solid 100mm_spacer - 100mm_spacer (repariert)
 facet normal 0.000000 0.000000 -1.000000
  outer loop
   vertex -13.200000 22.863071 0.000000
   vertex -18.990051 0.000000 0.000000
   vertex -26.400000 0.000000 0.000000
  endloop
 endfacet
 facet normal 0.000000 0.000000 -1.000000
  outer loop
   vertex -18.990051 0.000000 0.000000
   vertex -13.200000 22.863071 0.000000
   vertex -9.495026 16.445866 0.000000
  endloop
 endfacet
 facet normal 0.000000 0.000000 -1.000000
  outer loop
   vertex -9.495026 16.445866 0.000000
   vertex -13.200000 22.863071 0.000000
   vertex 13.200000 22.863071 0.000000
  endloop
 endfacet
 facet normal 0.000000 0.000000 -1.000000
  outer loop
   vertex -9.495026 16.445866 0.000000
   vertex 13.200000 22.863071 0.000000
   vertex 9.495026 16.445866 0.000000
  endloop
 endfacet
 facet normal 0.000000 0.000000 -1.000000
  outer loop
   vertex 9.495026 16.445866 0.000000
   vertex 13.200000 22.863071 0.000000
   vertex 18.990051 0.000000 0.000000
  endloop
 endfacet
 facet normal 0.000000 0.000000 -1.000000
  outer loop
   vertex 18.990051 0.000000 0.000000
   vertex 13.200000 22.863071 0.000000
   vertex 26.400000 0.000000 0.000000
  endloop
 endfacet
 facet normal 0.000000 0.000000 -1.000000
  outer loop
   vertex -18.990051 0.000000 0.000000
   vertex -13.200000 -22.863071 0.000000
   vertex -26.400000 0.000000 0.000000
  endloop
 endfacet
 facet normal 0.000000 0.000000 -1.000000
  outer loop
   vertex -13.200000 -22.863071 0.000000
   vertex -18.990051 0.000000 0.000000
   vertex -9.495026 -16.445866 0.000000
  endloop
 endfacet
 facet normal 0.000000 0.000000 -1.000000
  outer loop
   vertex -13.200000 -22.863071 0.000000
   vertex -9.495026 -16.445866 0.000000
   vertex 13.200000 -22.863071 0.000000
  endloop
 endfacet
 facet normal 0.000000 0.000000 -1.000000
  outer loop
   vertex 13.200000 -22.863071 0.000000
   vertex -9.495026 -16.445866 0.000000
   vertex 9.495026 -16.445866 0.000000
  endloop
 endfacet
 facet normal 0.000000 0.000000 -1.000000
  outer loop
   vertex 13.200000 -22.863071 0.000000
   vertex 9.495026 -16.445866 0.000000
   vertex 18.990051 0.000000 0.000000
  endloop
 endfacet
 facet normal 0.000000 0.000000 -1.000000
  outer loop
   vertex 13.200000 -22.863071 0.000000
   vertex 18.990051 0.000000 0.000000
   vertex 26.400000 0.000000 0.000000
  endloop
 endfacet
 facet normal 0.000000 -1.000000 0.000000
  outer loop
   vertex 13.200000 -22.863071 100.000000
   vertex -13.200000 -22.863071 0.000000
   vertex 13.200000 -22.863071 0.000000
  endloop
 endfacet
 facet normal 0.000000 -1.000000 0.000000
  outer loop
   vertex -13.200000 -22.863071 0.000000
   vertex 13.200000 -22.863071 100.000000
   vertex -13.200000 -22.863071 100.000000
  endloop
 endfacet
 facet normal -0.866025 -0.500000 0.000000
  outer loop
   vertex -26.400000 0.000000 100.000000
   vertex -13.200000 -22.863071 0.000000
   vertex -13.200000 -22.863071 100.000000
  endloop
 endfacet
 facet normal -0.866025 -0.500000 0.000000
  outer loop
   vertex -13.200000 -22.863071 0.000000
   vertex -26.400000 0.000000 100.000000
   vertex -26.400000 0.000000 0.000000
  endloop
 endfacet
 facet normal -0.866025 0.500000 0.000000
  outer loop
   vertex -13.200000 22.863071 100.000000
   vertex -26.400000 0.000000 0.000000
   vertex -26.400000 0.000000 100.000000
  endloop
 endfacet
 facet normal -0.866025 0.500000 0.000000
  outer loop
   vertex -26.400000 0.000000 0.000000
   vertex -13.200000 22.863071 100.000000
   vertex -13.200000 22.863071 0.000000
  endloop
 endfacet
 facet normal 0.000000 1.000000 0.000000
  outer loop
   vertex -13.200000 22.863071 100.000000
   vertex 13.200000 22.863071 0.000000
   vertex -13.200000 22.863071 0.000000
  endloop
 endfacet
 facet normal 0.000000 1.000000 0.000000
  outer loop
   vertex 13.200000 22.863071 0.000000
   vertex -13.200000 22.863071 100.000000
   vertex 13.200000 22.863071 100.000000
  endloop
 endfacet
 facet normal 0.866025 0.500000 0.000000
  outer loop
   vertex 13.200000 22.863071 0.000000
   vertex 26.400000 0.000000 100.000000
   vertex 26.400000 0.000000 0.000000
  endloop
 endfacet
 facet normal 0.866025 0.500000 0.000000
  outer loop
   vertex 26.400000 0.000000 100.000000
   vertex 13.200000 22.863071 0.000000
   vertex 13.200000 22.863071 100.000000
  endloop
 endfacet
 facet normal 0.866025 -0.500000 0.000000
  outer loop
   vertex 26.400000 0.000000 0.000000
   vertex 13.200000 -22.863071 100.000000
   vertex 13.200000 -22.863071 0.000000
  endloop
 endfacet
 facet normal 0.866025 -0.500000 0.000000
  outer loop
   vertex 13.200000 -22.863071 100.000000
   vertex 26.400000 0.000000 0.000000
   vertex 26.400000 0.000000 100.000000
  endloop
 endfacet
 facet normal -0.865966 -0.500102 0.000018
  outer loop
   vertex -16.499943 -0.866029 102.699997
   vertex -9.036250 -13.790100 100.000000
   vertex -9.036192 -13.790106 102.700005
  endloop
 endfacet
 facet normal -0.865966 -0.500102 0.000017
  outer loop
   vertex -9.036250 -13.790100 100.000000
   vertex -16.499943 -0.866029 102.699997
   vertex -16.500000 -0.866025 100.000000
  endloop
 endfacet
 facet normal 0.000109 -1.000000 -0.000002
  outer loop
   vertex 7.424568 -14.720687 100.000023
   vertex -7.499942 -14.722325 102.699997
   vertex -7.500000 -14.722320 100.000000
  endloop
 endfacet
 facet normal 0.000110 -1.000000 0.000002
  outer loop
   vertex -7.499942 -14.722325 102.699997
   vertex 7.424568 -14.720687 100.000023
   vertex 7.424623 -14.720682 102.699997
  endloop
 endfacet
 facet normal 0.866078 -0.499908 -0.000017
  outer loop
   vertex 16.460890 -0.930394 100.000305
   vertex 9.000058 -13.856190 102.699997
   vertex 9.000003 -13.856194 100.000023
  endloop
 endfacet
 facet normal 0.866081 -0.499905 0.000006
  outer loop
   vertex 9.000058 -13.856190 102.699997
   vertex 16.460890 -0.930394 100.000305
   vertex 16.460821 -0.930481 102.699944
  endloop
 endfacet
 facet normal -0.000110 1.000000 0.000001
  outer loop
   vertex -7.424500 14.720680 102.699997
   vertex 7.500000 14.722322 100.005608
   vertex -7.424558 14.720684 100.000870
  endloop
 endfacet
 facet normal -0.000110 1.000000 0.000001
  outer loop
   vertex 7.500000 14.722322 100.005608
   vertex -7.424500 14.720680 102.699997
   vertex 7.500058 14.722319 102.699997
  endloop
 endfacet
 facet normal -0.866077 0.499910 0.000019
  outer loop
   vertex -8.999942 13.856195 102.699997
   vertex -16.460796 0.930630 100.000000
   vertex -16.460739 0.930626 102.699997
  endloop
 endfacet
 facet normal -0.866077 0.499910 0.000019
  outer loop
   vertex -16.460796 0.930630 100.000000
   vertex -8.999942 13.856195 102.699997
   vertex -9.000000 13.856199 100.000870
  endloop
 endfacet
 facet normal 0.866025 0.500000 0.000000
  outer loop
   vertex -17.257999 0.000000 1.500000
   vertex -8.629000 -14.945867 3.000000
   vertex -8.629000 -14.945867 1.500000
  endloop
 endfacet
 facet normal 0.866025 0.500000 0.000000
  outer loop
   vertex -8.629000 -14.945867 3.000000
   vertex -17.257999 0.000000 1.500000
   vertex -17.257999 0.000000 3.000000
  endloop
 endfacet
 facet normal 0.866025 -0.500000 0.000000
  outer loop
   vertex -8.629000 14.945867 1.500000
   vertex -17.257999 0.000000 3.000000
   vertex -17.257999 0.000000 1.500000
  endloop
 endfacet
 facet normal 0.866025 -0.500000 0.000000
  outer loop
   vertex -17.257999 0.000000 3.000000
   vertex -8.629000 14.945867 1.500000
   vertex -8.629000 14.945867 3.000000
  endloop
 endfacet
 facet normal 0.000000 -1.000000 0.000000
  outer loop
   vertex 8.629000 14.945867 3.000000
   vertex -8.629000 14.945867 1.500000
   vertex 8.629000 14.945867 1.500000
  endloop
 endfacet
 facet normal 0.000000 -1.000000 0.000000
  outer loop
   vertex -8.629000 14.945867 1.500000
   vertex 8.629000 14.945867 3.000000
   vertex -8.629000 14.945867 3.000000
  endloop
 endfacet
 facet normal -0.866025 -0.500000 0.000000
  outer loop
   vertex 8.629000 14.945867 3.000000
   vertex 17.257999 0.000000 1.500000
   vertex 17.257999 0.000000 3.000000
  endloop
 endfacet
 facet normal -0.866025 -0.500000 0.000000
  outer loop
   vertex 17.257999 0.000000 1.500000
   vertex 8.629000 14.945867 3.000000
   vertex 8.629000 14.945867 1.500000
  endloop
 endfacet
 facet normal -0.866025 0.500000 0.000000
  outer loop
   vertex 17.257999 0.000000 3.000000
   vertex 8.629000 -14.945867 1.500000
   vertex 8.629000 -14.945867 3.000000
  endloop
 endfacet
 facet normal -0.866025 0.500000 0.000000
  outer loop
   vertex 8.629000 -14.945867 1.500000
   vertex 17.257999 0.000000 3.000000
   vertex 17.257999 0.000000 1.500000
  endloop
 endfacet
 facet normal 0.000000 1.000000 0.000000
  outer loop
   vertex -8.629000 -14.945867 3.000000
   vertex 8.629000 -14.945867 1.500000
   vertex -8.629000 -14.945867 1.500000
  endloop
 endfacet
 facet normal 0.000000 1.000000 0.000000
  outer loop
   vertex 8.629000 -14.945867 1.500000
   vertex -8.629000 -14.945867 3.000000
   vertex 8.629000 -14.945867 3.000000
  endloop
 endfacet
 facet normal -0.065467 0.997855 0.000003
  outer loop
   vertex -7.800809 14.695992 102.699997
   vertex -7.424558 14.720684 100.000870
   vertex -7.800867 14.695995 100.000870
  endloop
 endfacet
 facet normal -0.065467 0.997855 0.000003
  outer loop
   vertex -7.424558 14.720684 100.000870
   vertex -7.800809 14.695992 102.699997
   vertex -7.424500 14.720680 102.699997
  endloop
 endfacet
 facet normal -0.806503 0.591230 0.000018
  outer loop
   vertex -8.776978 14.160342 102.699997
   vertex -9.000000 13.856199 100.000870
   vertex -8.999942 13.856195 102.699997
  endloop
 endfacet
 facet normal -0.806503 0.591230 0.000018
  outer loop
   vertex -9.000000 13.856199 100.000870
   vertex -8.776978 14.160342 102.699997
   vertex -8.777037 14.160346 100.000870
  endloop
 endfacet
 facet normal -0.659414 0.751780 0.000015
  outer loop
   vertex -8.776978 14.160342 102.699997
   vertex -8.493526 14.409023 100.000870
   vertex -8.777037 14.160346 100.000870
  endloop
 endfacet
 facet normal -0.659414 0.751780 0.000015
  outer loop
   vertex -8.493526 14.409023 100.000870
   vertex -8.776978 14.160342 102.699997
   vertex -8.493468 14.409019 102.699997
  endloop
 endfacet
 facet normal -0.481060 0.876688 0.000012
  outer loop
   vertex -8.493468 14.409019 102.699997
   vertex -8.162911 14.590440 100.000870
   vertex -8.493526 14.409023 100.000870
  endloop
 endfacet
 facet normal -0.481060 0.876688 0.000012
  outer loop
   vertex -8.162911 14.590440 100.000870
   vertex -8.493468 14.409019 102.699997
   vertex -8.162853 14.590436 102.699997
  endloop
 endfacet
 facet normal -0.279900 0.960029 0.000007
  outer loop
   vertex -8.162853 14.590436 102.699997
   vertex -7.800867 14.695995 100.000870
   vertex -8.162911 14.590440 100.000870
  endloop
 endfacet
 facet normal -0.279900 0.960029 0.000007
  outer loop
   vertex -7.800867 14.695995 100.000870
   vertex -8.162853 14.590436 102.699997
   vertex -7.800809 14.695992 102.699997
  endloop
 endfacet
 facet normal 0.831471 0.555569 -0.000017
  outer loop
   vertex 9.036250 13.790102 100.005608
   vertex 8.826802 14.103647 102.699997
   vertex 9.036308 13.790098 102.699997
  endloop
 endfacet
 facet normal 0.831471 0.555569 -0.000017
  outer loop
   vertex 8.826802 14.103647 102.699997
   vertex 9.036250 13.790102 100.005608
   vertex 8.826744 14.103651 100.005608
  endloop
 endfacet
 facet normal 0.108866 0.994056 -0.000001
  outer loop
   vertex 7.500058 14.722319 102.699997
   vertex 7.874861 14.681269 100.005608
   vertex 7.500000 14.722322 100.005608
  endloop
 endfacet
 facet normal 0.108869 0.994056 -0.000001
  outer loop
   vertex 7.874861 14.681269 100.005608
   vertex 7.500058 14.722319 102.699997
   vertex 7.874919 14.681264 102.699997
  endloop
 endfacet
 facet normal 0.321440 0.946930 -0.000005
  outer loop
   vertex 7.874919 14.681264 102.699997
   vertex 8.231950 14.560053 100.005608
   vertex 7.874861 14.681269 100.005608
  endloop
 endfacet
 facet normal 0.321438 0.946931 -0.000006
  outer loop
   vertex 8.231950 14.560053 100.005608
   vertex 7.874919 14.681264 102.699997
   vertex 8.232008 14.560049 102.699997
  endloop
 endfacet
 facet normal 0.518775 0.854911 -0.000010
  outer loop
   vertex 8.232008 14.560049 102.699997
   vertex 8.554338 14.364422 100.005608
   vertex 8.231950 14.560053 100.005608
  endloop
 endfacet
 facet normal 0.518775 0.854911 -0.000010
  outer loop
   vertex 8.554338 14.364422 100.005608
   vertex 8.232008 14.560049 102.699997
   vertex 8.554397 14.364418 102.699997
  endloop
 endfacet
 facet normal 0.691512 0.722365 -0.000014
  outer loop
   vertex 8.554397 14.364418 102.699997
   vertex 8.826744 14.103651 100.005608
   vertex 8.554338 14.364422 100.005608
  endloop
 endfacet
 facet normal 0.691512 0.722365 -0.000014
  outer loop
   vertex 8.826744 14.103651 100.005608
   vertex 8.554397 14.364418 102.699997
   vertex 8.826802 14.103647 102.699997
  endloop
 endfacet
 facet normal 0.896902 -0.442230 0.000009
  outer loop
   vertex 16.460890 -0.930394 100.000305
   vertex 16.627594 -0.592243 102.699951
   vertex 16.460821 -0.930481 102.699944
  endloop
 endfacet
 facet normal 0.896904 -0.442225 0.000008
  outer loop
   vertex 16.627594 -0.592243 102.699951
   vertex 16.460890 -0.930394 100.000305
   vertex 16.627661 -0.592156 100.000313
  endloop
 endfacet
 facet normal 0.915268 0.402845 0.000036
  outer loop
   vertex 16.651854 0.521055 100.000343
   vertex 16.499866 0.866132 102.699997
   vertex 16.651787 0.520968 102.699989
  endloop
 endfacet
 facet normal 0.915270 0.402841 0.000036
  outer loop
   vertex 16.499866 0.866132 102.699997
   vertex 16.651854 0.521055 100.000343
   vertex 16.499935 0.866219 100.000359
  endloop
 endfacet
 facet normal 0.980767 0.195182 0.000031
  outer loop
   vertex 16.725462 0.151190 100.000328
   vertex 16.651787 0.520968 102.699989
   vertex 16.725393 0.151103 102.699974
  endloop
 endfacet
 facet normal 0.980766 0.195187 0.000031
  outer loop
   vertex 16.651787 0.520968 102.699989
   vertex 16.725462 0.151190 100.000328
   vertex 16.651854 0.521055 100.000343
  endloop
 endfacet
 facet normal 0.999764 -0.021728 0.000025
  outer loop
   vertex 16.717268 -0.225838 100.000320
   vertex 16.725393 0.151103 102.699974
   vertex 16.717199 -0.225925 102.699959
  endloop
 endfacet
 facet normal 0.999764 -0.021728 0.000025
  outer loop
   vertex 16.725393 0.151103 102.699974
   vertex 16.717268 -0.225838 100.000320
   vertex 16.725462 0.151190 100.000328
  endloop
 endfacet
 facet normal 0.971362 -0.237606 0.000016
  outer loop
   vertex 16.627661 -0.592156 100.000313
   vertex 16.717199 -0.225925 102.699959
   vertex 16.627594 -0.592243 102.699951
  endloop
 endfacet
 facet normal 0.971360 -0.237611 0.000017
  outer loop
   vertex 16.717199 -0.225925 102.699959
   vertex 16.627661 -0.592156 100.000313
   vertex 16.717268 -0.225838 100.000320
  endloop
 endfacet
 facet normal 0.065472 -0.997854 0.000000
  outer loop
   vertex 7.800932 -14.695992 102.699997
   vertex 7.424568 -14.720687 100.000023
   vertex 7.800876 -14.695996 100.000023
  endloop
 endfacet
 facet normal 0.065472 -0.997854 0.000000
  outer loop
   vertex 7.424568 -14.720687 100.000023
   vertex 7.800932 -14.695992 102.699997
   vertex 7.424623 -14.720682 102.699997
  endloop
 endfacet
 facet normal 0.806507 -0.591224 -0.000015
  outer loop
   vertex 9.000003 -13.856194 100.000023
   vertex 8.777097 -14.160338 102.699997
   vertex 8.777041 -14.160343 100.000023
  endloop
 endfacet
 facet normal 0.806507 -0.591224 -0.000015
  outer loop
   vertex 8.777097 -14.160338 102.699997
   vertex 9.000003 -13.856194 100.000023
   vertex 9.000058 -13.856190 102.699997
  endloop
 endfacet
 facet normal 0.659418 -0.751777 -0.000012
  outer loop
   vertex 8.777097 -14.160338 102.699997
   vertex 8.493533 -14.409021 100.000023
   vertex 8.777041 -14.160343 100.000023
  endloop
 endfacet
 facet normal 0.659418 -0.751777 -0.000012
  outer loop
   vertex 8.493533 -14.409021 100.000023
   vertex 8.777097 -14.160338 102.699997
   vertex 8.493588 -14.409017 102.699997
  endloop
 endfacet
 facet normal 0.481066 -0.876684 -0.000008
  outer loop
   vertex 8.493588 -14.409017 102.699997
   vertex 8.162920 -14.590440 100.000023
   vertex 8.493533 -14.409021 100.000023
  endloop
 endfacet
 facet normal 0.481066 -0.876684 -0.000008
  outer loop
   vertex 8.162920 -14.590440 100.000023
   vertex 8.493588 -14.409017 102.699997
   vertex 8.162975 -14.590435 102.699997
  endloop
 endfacet
 facet normal 0.279903 -0.960028 -0.000004
  outer loop
   vertex 8.162975 -14.590435 102.699997
   vertex 7.800876 -14.695996 100.000023
   vertex 8.162920 -14.590440 100.000023
  endloop
 endfacet
 facet normal 0.279904 -0.960028 -0.000004
  outer loop
   vertex 7.800876 -14.695996 100.000023
   vertex 8.162975 -14.590435 102.699997
   vertex 7.800932 -14.695992 102.699997
  endloop
 endfacet
 facet normal 0.000000 -0.991445 -0.130526
  outer loop
   vertex 8.658509 14.996978 1.111771
   vertex 8.629000 14.945867 1.500000
   vertex -8.658509 14.996978 1.111771
  endloop
 endfacet
 facet normal 0.000000 -0.991445 -0.130526
  outer loop
   vertex -8.629000 14.945867 1.500000
   vertex -8.658509 14.996978 1.111771
   vertex 8.629000 14.945867 1.500000
  endloop
 endfacet
 facet normal 0.000000 -0.923879 -0.382684
  outer loop
   vertex 8.745026 15.146829 0.750000
   vertex 8.658509 14.996978 1.111771
   vertex -8.745026 15.146829 0.750000
  endloop
 endfacet
 facet normal 0.000000 -0.923879 -0.382684
  outer loop
   vertex -8.658509 14.996978 1.111771
   vertex -8.745026 15.146829 0.750000
   vertex 8.658509 14.996978 1.111771
  endloop
 endfacet
 facet normal 0.000000 -0.793354 -0.608761
  outer loop
   vertex 8.882653 15.385206 0.439340
   vertex 8.745026 15.146829 0.750000
   vertex -8.882653 15.385206 0.439340
  endloop
 endfacet
 facet normal 0.000000 -0.793354 -0.608761
  outer loop
   vertex -8.745026 15.146829 0.750000
   vertex -8.882653 15.385206 0.439340
   vertex 8.745026 15.146829 0.750000
  endloop
 endfacet
 facet normal 0.000000 -0.608761 -0.793354
  outer loop
   vertex -9.062013 15.695867 0.200962
   vertex 9.062013 15.695867 0.200962
   vertex -8.882653 15.385206 0.439340
  endloop
 endfacet
 facet normal 0.000000 -0.608761 -0.793354
  outer loop
   vertex 8.882653 15.385206 0.439340
   vertex -8.882653 15.385206 0.439340
   vertex 9.062013 15.695867 0.200962
  endloop
 endfacet
 facet normal 0.000000 -0.382683 -0.923880
  outer loop
   vertex -9.270882 16.057638 0.051111
   vertex 9.270882 16.057638 0.051111
   vertex -9.062013 15.695867 0.200962
  endloop
 endfacet
 facet normal 0.000000 -0.382683 -0.923880
  outer loop
   vertex 9.062013 15.695867 0.200962
   vertex -9.062013 15.695867 0.200962
   vertex 9.270882 16.057638 0.051111
  endloop
 endfacet
 facet normal 0.000000 -0.130527 -0.991445
  outer loop
   vertex -9.495026 16.445866 0.000000
   vertex 9.495026 16.445866 0.000000
   vertex -9.270882 16.057638 0.051111
  endloop
 endfacet
 facet normal 0.000000 -0.130527 -0.991445
  outer loop
   vertex 9.270882 16.057638 0.051111
   vertex -9.270882 16.057638 0.051111
   vertex 9.495026 16.445866 0.000000
  endloop
 endfacet
 facet normal 0.858616 -0.495722 -0.130528
  outer loop
   vertex -17.257999 0.000000 1.500000
   vertex -17.317019 0.000000 1.111771
   vertex -8.629000 14.945867 1.500000
  endloop
 endfacet
 facet normal 0.858616 -0.495722 -0.130527
  outer loop
   vertex -8.658509 14.996978 1.111771
   vertex -8.629000 14.945867 1.500000
   vertex -17.317019 0.000000 1.111771
  endloop
 endfacet
 facet normal 0.800103 -0.461940 -0.382684
  outer loop
   vertex -17.317019 0.000000 1.111771
   vertex -17.490051 0.000000 0.750000
   vertex -8.658509 14.996978 1.111771
  endloop
 endfacet
 facet normal 0.800103 -0.461940 -0.382684
  outer loop
   vertex -8.745026 15.146829 0.750000
   vertex -8.658509 14.996978 1.111771
   vertex -17.490051 0.000000 0.750000
  endloop
 endfacet
 facet normal 0.687064 -0.396677 -0.608762
  outer loop
   vertex -17.765306 0.000000 0.439340
   vertex -8.882653 15.385206 0.439340
   vertex -17.490051 0.000000 0.750000
  endloop
 endfacet
 facet normal 0.687064 -0.396677 -0.608761
  outer loop
   vertex -8.745026 15.146829 0.750000
   vertex -17.490051 0.000000 0.750000
   vertex -8.882653 15.385206 0.439340
  endloop
 endfacet
 facet normal 0.527203 -0.304381 -0.793353
  outer loop
   vertex -18.124025 0.000000 0.200962
   vertex -9.062013 15.695867 0.200962
   vertex -17.765306 0.000000 0.439340
  endloop
 endfacet
 facet normal 0.527203 -0.304381 -0.793353
  outer loop
   vertex -8.882653 15.385206 0.439340
   vertex -17.765306 0.000000 0.439340
   vertex -9.062013 15.695867 0.200962
  endloop
 endfacet
 facet normal 0.331413 -0.191342 -0.923880
  outer loop
   vertex -18.541763 0.000000 0.051111
   vertex -9.270882 16.057638 0.051111
   vertex -18.124025 0.000000 0.200962
  endloop
 endfacet
 facet normal 0.331413 -0.191342 -0.923880
  outer loop
   vertex -9.062013 15.695867 0.200962
   vertex -18.124025 0.000000 0.200962
   vertex -9.270882 16.057638 0.051111
  endloop
 endfacet
 facet normal 0.113039 -0.065263 -0.991445
  outer loop
   vertex -18.990051 0.000000 0.000000
   vertex -9.495026 16.445866 0.000000
   vertex -18.541763 0.000000 0.051111
  endloop
 endfacet
 facet normal 0.113039 -0.065263 -0.991445
  outer loop
   vertex -9.270882 16.057638 0.051111
   vertex -18.541763 0.000000 0.051111
   vertex -9.495026 16.445866 0.000000
  endloop
 endfacet
 facet normal 0.858616 0.495722 -0.130527
  outer loop
   vertex -8.658509 -14.996978 1.111771
   vertex -17.317019 0.000000 1.111771
   vertex -8.629000 -14.945867 1.500000
  endloop
 endfacet
 facet normal 0.858616 0.495722 -0.130528
  outer loop
   vertex -17.257999 0.000000 1.500000
   vertex -8.629000 -14.945867 1.500000
   vertex -17.317019 0.000000 1.111771
  endloop
 endfacet
 facet normal 0.800103 0.461940 -0.382684
  outer loop
   vertex -8.745026 -15.146829 0.750000
   vertex -17.490051 0.000000 0.750000
   vertex -8.658509 -14.996978 1.111771
  endloop
 endfacet
 facet normal 0.800103 0.461940 -0.382684
  outer loop
   vertex -17.317019 0.000000 1.111771
   vertex -8.658509 -14.996978 1.111771
   vertex -17.490051 0.000000 0.750000
  endloop
 endfacet
 facet normal 0.687064 0.396677 -0.608761
  outer loop
   vertex -8.882653 -15.385206 0.439340
   vertex -17.765306 0.000000 0.439340
   vertex -8.745026 -15.146829 0.750000
  endloop
 endfacet
 facet normal 0.687064 0.396677 -0.608762
  outer loop
   vertex -17.490051 0.000000 0.750000
   vertex -8.745026 -15.146829 0.750000
   vertex -17.765306 0.000000 0.439340
  endloop
 endfacet
 facet normal 0.527203 0.304381 -0.793353
  outer loop
   vertex -18.124025 0.000000 0.200962
   vertex -17.765306 0.000000 0.439340
   vertex -9.062013 -15.695867 0.200962
  endloop
 endfacet
 facet normal 0.527203 0.304381 -0.793353
  outer loop
   vertex -8.882653 -15.385206 0.439340
   vertex -9.062013 -15.695867 0.200962
   vertex -17.765306 0.000000 0.439340
  endloop
 endfacet
 facet normal 0.331413 0.191342 -0.923880
  outer loop
   vertex -18.541763 0.000000 0.051111
   vertex -18.124025 0.000000 0.200962
   vertex -9.270882 -16.057638 0.051111
  endloop
 endfacet
 facet normal 0.331413 0.191342 -0.923880
  outer loop
   vertex -9.062013 -15.695867 0.200962
   vertex -9.270882 -16.057638 0.051111
   vertex -18.124025 0.000000 0.200962
  endloop
 endfacet
 facet normal 0.113039 0.065263 -0.991445
  outer loop
   vertex -18.990051 0.000000 0.000000
   vertex -18.541763 0.000000 0.051111
   vertex -9.495026 -16.445866 0.000000
  endloop
 endfacet
 facet normal 0.113039 0.065263 -0.991445
  outer loop
   vertex -9.270882 -16.057638 0.051111
   vertex -9.495026 -16.445866 0.000000
   vertex -18.541763 0.000000 0.051111
  endloop
 endfacet
 facet normal 0.000000 0.991445 -0.130526
  outer loop
   vertex 8.658509 -14.996978 1.111771
   vertex -8.658509 -14.996978 1.111771
   vertex 8.629000 -14.945867 1.500000
  endloop
 endfacet
 facet normal 0.000000 0.991445 -0.130526
  outer loop
   vertex -8.629000 -14.945867 1.500000
   vertex 8.629000 -14.945867 1.500000
   vertex -8.658509 -14.996978 1.111771
  endloop
 endfacet
 facet normal 0.000000 0.923879 -0.382684
  outer loop
   vertex 8.745026 -15.146829 0.750000
   vertex -8.745026 -15.146829 0.750000
   vertex 8.658509 -14.996978 1.111771
  endloop
 endfacet
 facet normal 0.000000 0.923879 -0.382684
  outer loop
   vertex -8.658509 -14.996978 1.111771
   vertex 8.658509 -14.996978 1.111771
   vertex -8.745026 -15.146829 0.750000
  endloop
 endfacet
 facet normal 0.000000 0.793354 -0.608761
  outer loop
   vertex 8.882653 -15.385206 0.439340
   vertex -8.882653 -15.385206 0.439340
   vertex 8.745026 -15.146829 0.750000
  endloop
 endfacet
 facet normal 0.000000 0.793354 -0.608761
  outer loop
   vertex -8.745026 -15.146829 0.750000
   vertex 8.745026 -15.146829 0.750000
   vertex -8.882653 -15.385206 0.439340
  endloop
 endfacet
 facet normal 0.000000 0.608761 -0.793354
  outer loop
   vertex -9.062013 -15.695867 0.200962
   vertex -8.882653 -15.385206 0.439340
   vertex 9.062013 -15.695867 0.200962
  endloop
 endfacet
 facet normal 0.000000 0.608761 -0.793354
  outer loop
   vertex 8.882653 -15.385206 0.439340
   vertex 9.062013 -15.695867 0.200962
   vertex -8.882653 -15.385206 0.439340
  endloop
 endfacet
 facet normal 0.000000 0.382683 -0.923880
  outer loop
   vertex -9.270882 -16.057638 0.051111
   vertex -9.062013 -15.695867 0.200962
   vertex 9.270882 -16.057638 0.051111
  endloop
 endfacet
 facet normal 0.000000 0.382683 -0.923880
  outer loop
   vertex 9.062013 -15.695867 0.200962
   vertex 9.270882 -16.057638 0.051111
   vertex -9.062013 -15.695867 0.200962
  endloop
 endfacet
 facet normal 0.000000 0.130527 -0.991445
  outer loop
   vertex -9.495026 -16.445866 0.000000
   vertex -9.270882 -16.057638 0.051111
   vertex 9.495026 -16.445866 0.000000
  endloop
 endfacet
 facet normal 0.000000 0.130527 -0.991445
  outer loop
   vertex 9.270882 -16.057638 0.051111
   vertex 9.495026 -16.445866 0.000000
   vertex -9.270882 -16.057638 0.051111
  endloop
 endfacet
 facet normal -0.858616 0.495722 -0.130527
  outer loop
   vertex 8.658509 -14.996978 1.111771
   vertex 8.629000 -14.945867 1.500000
   vertex 17.317019 0.000000 1.111771
  endloop
 endfacet
 facet normal -0.858616 0.495722 -0.130528
  outer loop
   vertex 17.257999 0.000000 1.500000
   vertex 17.317019 0.000000 1.111771
   vertex 8.629000 -14.945867 1.500000
  endloop
 endfacet
 facet normal -0.800103 0.461940 -0.382684
  outer loop
   vertex 8.745026 -15.146829 0.750000
   vertex 8.658509 -14.996978 1.111771
   vertex 17.490051 0.000000 0.750000
  endloop
 endfacet
 facet normal -0.800103 0.461940 -0.382684
  outer loop
   vertex 17.317019 0.000000 1.111771
   vertex 17.490051 0.000000 0.750000
   vertex 8.658509 -14.996978 1.111771
  endloop
 endfacet
 facet normal -0.687064 0.396677 -0.608761
  outer loop
   vertex 8.882653 -15.385206 0.439340
   vertex 8.745026 -15.146829 0.750000
   vertex 17.765306 0.000000 0.439340
  endloop
 endfacet
 facet normal -0.687064 0.396677 -0.608762
  outer loop
   vertex 17.490051 0.000000 0.750000
   vertex 17.765306 0.000000 0.439340
   vertex 8.745026 -15.146829 0.750000
  endloop
 endfacet
 facet normal -0.527203 0.304381 -0.793353
  outer loop
   vertex 8.882653 -15.385206 0.439340
   vertex 17.765306 0.000000 0.439340
   vertex 9.062013 -15.695867 0.200962
  endloop
 endfacet
 facet normal -0.527203 0.304381 -0.793353
  outer loop
   vertex 18.124025 0.000000 0.200962
   vertex 9.062013 -15.695867 0.200962
   vertex 17.765306 0.000000 0.439340
  endloop
 endfacet
 facet normal -0.331413 0.191342 -0.923880
  outer loop
   vertex 9.062013 -15.695867 0.200962
   vertex 18.124025 0.000000 0.200962
   vertex 9.270882 -16.057638 0.051111
  endloop
 endfacet
 facet normal -0.331413 0.191342 -0.923880
  outer loop
   vertex 18.541763 0.000000 0.051111
   vertex 9.270882 -16.057638 0.051111
   vertex 18.124025 0.000000 0.200962
  endloop
 endfacet
 facet normal -0.113039 0.065263 -0.991445
  outer loop
   vertex 9.270882 -16.057638 0.051111
   vertex 18.541763 0.000000 0.051111
   vertex 9.495026 -16.445866 0.000000
  endloop
 endfacet
 facet normal -0.113039 0.065263 -0.991445
  outer loop
   vertex 18.990051 0.000000 0.000000
   vertex 9.495026 -16.445866 0.000000
   vertex 18.541763 0.000000 0.051111
  endloop
 endfacet
 facet normal -0.858616 -0.495722 -0.130528
  outer loop
   vertex 17.257999 0.000000 1.500000
   vertex 8.629000 14.945867 1.500000
   vertex 17.317019 0.000000 1.111771
  endloop
 endfacet
 facet normal -0.858616 -0.495722 -0.130527
  outer loop
   vertex 8.658509 14.996978 1.111771
   vertex 17.317019 0.000000 1.111771
   vertex 8.629000 14.945867 1.500000
  endloop
 endfacet
 facet normal -0.800103 -0.461940 -0.382684
  outer loop
   vertex 17.490051 0.000000 0.750000
   vertex 17.317019 0.000000 1.111771
   vertex 8.745026 15.146829 0.750000
  endloop
 endfacet
 facet normal -0.800103 -0.461940 -0.382684
  outer loop
   vertex 8.658509 14.996978 1.111771
   vertex 8.745026 15.146829 0.750000
   vertex 17.317019 0.000000 1.111771
  endloop
 endfacet
 facet normal -0.687064 -0.396677 -0.608762
  outer loop
   vertex 17.765306 0.000000 0.439340
   vertex 17.490051 0.000000 0.750000
   vertex 8.882653 15.385206 0.439340
  endloop
 endfacet
 facet normal -0.687064 -0.396677 -0.608761
  outer loop
   vertex 8.745026 15.146829 0.750000
   vertex 8.882653 15.385206 0.439340
   vertex 17.490051 0.000000 0.750000
  endloop
 endfacet
 facet normal -0.527203 -0.304381 -0.793353
  outer loop
   vertex 8.882653 15.385206 0.439340
   vertex 9.062013 15.695867 0.200962
   vertex 17.765306 0.000000 0.439340
  endloop
 endfacet
 facet normal -0.527203 -0.304381 -0.793353
  outer loop
   vertex 18.124025 0.000000 0.200962
   vertex 17.765306 0.000000 0.439340
   vertex 9.062013 15.695867 0.200962
  endloop
 endfacet
 facet normal -0.331413 -0.191342 -0.923880
  outer loop
   vertex 9.062013 15.695867 0.200962
   vertex 9.270882 16.057638 0.051111
   vertex 18.124025 0.000000 0.200962
  endloop
 endfacet
 facet normal -0.331413 -0.191342 -0.923880
  outer loop
   vertex 18.541763 0.000000 0.051111
   vertex 18.124025 0.000000 0.200962
   vertex 9.270882 16.057638 0.051111
  endloop
 endfacet
 facet normal -0.113039 -0.065263 -0.991445
  outer loop
   vertex 9.270882 16.057638 0.051111
   vertex 9.495026 16.445866 0.000000
   vertex 18.541763 0.000000 0.051111
  endloop
 endfacet
 facet normal -0.113039 -0.065263 -0.991445
  outer loop
   vertex 18.990051 0.000000 0.000000
   vertex 18.541763 0.000000 0.051111
   vertex 9.495026 16.445866 0.000000
  endloop
 endfacet
 facet normal 0.865970 0.500096 0.000038
  outer loop
   vertex 16.499935 0.866219 100.000359
   vertex 9.036308 13.790098 102.699997
   vertex 16.499866 0.866132 102.699997
  endloop
 endfacet
 facet normal 0.865965 0.500104 -0.000018
  outer loop
   vertex 9.036308 13.790098 102.699997
   vertex 16.499935 0.866219 100.000359
   vertex 9.036250 13.790102 100.005608
  endloop
 endfacet
 facet normal 0.000000 0.000000 1.000000
  outer loop
   vertex -16.651829 -0.520842 102.699997
   vertex -16.717175 0.226074 102.699997
   vertex -16.725401 -0.150962 102.699997
  endloop
 endfacet
 facet normal 0.000000 0.000000 1.000000
  outer loop
   vertex -16.717175 0.226074 102.699997
   vertex -16.651829 -0.520842 102.699997
   vertex -16.627537 0.592392 102.699997
  endloop
 endfacet
 facet normal 0.000000 0.000000 1.000000
  outer loop
   vertex -16.627537 0.592392 102.699997
   vertex -16.651829 -0.520842 102.699997
   vertex -16.499943 -0.866029 102.699997
  endloop
 endfacet
 facet normal 0.000000 0.000000 1.000000
  outer loop
   vertex -16.627537 0.592392 102.699997
   vertex -16.499943 -0.866029 102.699997
   vertex -16.460739 0.930626 102.699997
  endloop
 endfacet
 facet normal -0.000001 0.000000 1.000000
  outer loop
   vertex -16.460739 0.930626 102.699997
   vertex -16.499943 -0.866029 102.699997
   vertex -9.036192 -13.790106 102.700005
  endloop
 endfacet
 facet normal 0.000000 0.000001 1.000000
  outer loop
   vertex -16.460739 0.930626 102.699997
   vertex -9.036192 -13.790106 102.700005
   vertex -14.999942 -0.000004 102.699997
  endloop
 endfacet
 facet normal 0.000004 0.000002 1.000000
  outer loop
   vertex -14.999942 -0.000004 102.699997
   vertex -9.036192 -13.790106 102.700005
   vertex -7.499942 -12.990385 102.699997
  endloop
 endfacet
 facet normal 0.000004 0.000002 1.000000
  outer loop
   vertex -7.499942 -12.990385 102.699997
   vertex -9.036192 -13.790106 102.700005
   vertex -8.826685 -14.103655 102.700005
  endloop
 endfacet
 facet normal 0.000016 -0.000012 1.000000
  outer loop
   vertex -7.499942 -12.990385 102.699997
   vertex -8.826685 -14.103655 102.700005
   vertex -8.554280 -14.364426 102.699997
  endloop
 endfacet
 facet normal 0.000000 0.000000 1.000000
  outer loop
   vertex -7.499942 -12.990385 102.699997
   vertex -8.554280 -14.364426 102.699997
   vertex -8.231892 -14.560057 102.699997
  endloop
 endfacet
 facet normal 0.000000 0.000000 1.000000
  outer loop
   vertex -7.499942 -12.990385 102.699997
   vertex -8.231892 -14.560057 102.699997
   vertex -7.874803 -14.681272 102.699997
  endloop
 endfacet
 facet normal 0.000000 0.000000 1.000000
  outer loop
   vertex -7.499942 -12.990385 102.699997
   vertex -7.874803 -14.681272 102.699997
   vertex -7.499942 -14.722325 102.699997
  endloop
 endfacet
 facet normal 0.000000 0.000000 1.000000
  outer loop
   vertex -7.499942 -12.990385 102.699997
   vertex -7.499942 -14.722325 102.699997
   vertex 7.424623 -14.720682 102.699997
  endloop
 endfacet
 facet normal 0.000000 0.000000 1.000000
  outer loop
   vertex -7.499942 -12.990385 102.699997
   vertex 7.424623 -14.720682 102.699997
   vertex 7.500058 -12.990385 102.699997
  endloop
 endfacet
 facet normal 0.000000 0.000000 1.000000
  outer loop
   vertex 7.500058 -12.990385 102.699997
   vertex 7.424623 -14.720682 102.699997
   vertex 7.800932 -14.695992 102.699997
  endloop
 endfacet
 facet normal 0.000000 0.000000 1.000000
  outer loop
   vertex 7.500058 -12.990385 102.699997
   vertex 7.800932 -14.695992 102.699997
   vertex 15.000058 -0.000004 102.699997
  endloop
 endfacet
 facet normal 0.000000 0.000000 1.000000
  outer loop
   vertex 15.000058 -0.000004 102.699997
   vertex 7.800932 -14.695992 102.699997
   vertex 8.162975 -14.590435 102.699997
  endloop
 endfacet
 facet normal 0.000000 0.000000 1.000000
  outer loop
   vertex 15.000058 -0.000004 102.699997
   vertex 8.162975 -14.590435 102.699997
   vertex 8.493588 -14.409017 102.699997
  endloop
 endfacet
 facet normal 0.000000 0.000000 1.000000
  outer loop
   vertex 15.000058 -0.000004 102.699997
   vertex 8.493588 -14.409017 102.699997
   vertex 8.777097 -14.160338 102.699997
  endloop
 endfacet
 facet normal 0.000000 0.000000 1.000000
  outer loop
   vertex 15.000058 -0.000004 102.699997
   vertex 8.777097 -14.160338 102.699997
   vertex 9.000058 -13.856190 102.699997
  endloop
 endfacet
 facet normal 0.000029 -0.000012 1.000000
  outer loop
   vertex 15.000058 -0.000004 102.699997
   vertex 9.000058 -13.856190 102.699997
   vertex 16.460821 -0.930481 102.699944
  endloop
 endfacet
 facet normal 0.000000 0.000000 1.000000
  outer loop
   vertex -14.999942 -0.000004 102.699997
   vertex -8.999942 13.856195 102.699997
   vertex -16.460739 0.930626 102.699997
  endloop
 endfacet
 facet normal 0.000000 0.000000 1.000000
  outer loop
   vertex -8.999942 13.856195 102.699997
   vertex -14.999942 -0.000004 102.699997
   vertex -14.133917 1.499996 102.699997
  endloop
 endfacet
 facet normal 0.000000 0.000000 1.000000
  outer loop
   vertex -8.999942 13.856195 102.699997
   vertex -14.133917 1.499996 102.699997
   vertex -7.499942 12.990377 102.699997
  endloop
 endfacet
 facet normal 0.000000 0.000000 1.000000
  outer loop
   vertex -8.999942 13.856195 102.699997
   vertex -7.499942 12.990377 102.699997
   vertex -8.776978 14.160342 102.699997
  endloop
 endfacet
 facet normal 0.000000 0.000000 1.000000
  outer loop
   vertex -8.776978 14.160342 102.699997
   vertex -7.499942 12.990377 102.699997
   vertex -8.493468 14.409019 102.699997
  endloop
 endfacet
 facet normal 0.000000 0.000000 1.000000
  outer loop
   vertex -8.493468 14.409019 102.699997
   vertex -7.499942 12.990377 102.699997
   vertex -8.162853 14.590436 102.699997
  endloop
 endfacet
 facet normal 0.000000 0.000000 1.000000
  outer loop
   vertex -8.162853 14.590436 102.699997
   vertex -7.499942 12.990377 102.699997
   vertex -7.800809 14.695992 102.699997
  endloop
 endfacet
 facet normal 0.000000 0.000000 1.000000
  outer loop
   vertex -7.800809 14.695992 102.699997
   vertex -7.499942 12.990377 102.699997
   vertex -7.424500 14.720680 102.699997
  endloop
 endfacet
 facet normal 0.000000 0.000000 1.000000
  outer loop
   vertex -7.424500 14.720680 102.699997
   vertex -7.499942 12.990377 102.699997
   vertex 7.500058 12.990377 102.699997
  endloop
 endfacet
 facet normal 0.000000 0.000000 1.000000
  outer loop
   vertex -7.424500 14.720680 102.699997
   vertex 7.500058 12.990377 102.699997
   vertex 7.500058 14.722319 102.699997
  endloop
 endfacet
 facet normal 0.000000 0.000000 1.000000
  outer loop
   vertex 7.500058 14.722319 102.699997
   vertex 7.500058 12.990377 102.699997
   vertex 15.000058 -0.000004 102.699997
  endloop
 endfacet
 facet normal 0.000000 0.000000 1.000000
  outer loop
   vertex 7.500058 14.722319 102.699997
   vertex 15.000058 -0.000004 102.699997
   vertex 7.874919 14.681264 102.699997
  endloop
 endfacet
 facet normal 0.000000 0.000000 1.000000
  outer loop
   vertex 7.874919 14.681264 102.699997
   vertex 15.000058 -0.000004 102.699997
   vertex 8.232008 14.560049 102.699997
  endloop
 endfacet
 facet normal 0.000000 0.000000 1.000000
  outer loop
   vertex 8.232008 14.560049 102.699997
   vertex 15.000058 -0.000004 102.699997
   vertex 8.554397 14.364418 102.699997
  endloop
 endfacet
 facet normal 0.000000 0.000000 1.000000
  outer loop
   vertex 8.554397 14.364418 102.699997
   vertex 15.000058 -0.000004 102.699997
   vertex 8.826802 14.103647 102.699997
  endloop
 endfacet
 facet normal 0.000000 0.000000 1.000000
  outer loop
   vertex 8.826802 14.103647 102.699997
   vertex 15.000058 -0.000004 102.699997
   vertex 9.036308 13.790098 102.699997
  endloop
 endfacet
 facet normal 0.000000 0.000000 1.000000
  outer loop
   vertex 9.036308 13.790098 102.699997
   vertex 15.000058 -0.000004 102.699997
   vertex 16.499866 0.866132 102.699997
  endloop
 endfacet
 facet normal 0.000017 -0.000030 1.000000
  outer loop
   vertex 16.499866 0.866132 102.699997
   vertex 15.000058 -0.000004 102.699997
   vertex 16.460821 -0.930481 102.699944
  endloop
 endfacet
 facet normal 0.000015 -0.000030 1.000000
  outer loop
   vertex 16.499866 0.866132 102.699997
   vertex 16.460821 -0.930481 102.699944
   vertex 16.627594 -0.592243 102.699951
  endloop
 endfacet
 facet normal -0.000026 -0.000034 1.000000
  outer loop
   vertex 16.499866 0.866132 102.699997
   vertex 16.627594 -0.592243 102.699951
   vertex 16.651787 0.520968 102.699989
  endloop
 endfacet
 facet normal 0.000060 -0.000036 1.000000
  outer loop
   vertex 16.651787 0.520968 102.699989
   vertex 16.627594 -0.592243 102.699951
   vertex 16.717199 -0.225925 102.699959
  endloop
 endfacet
 facet normal 0.000004 -0.000041 1.000000
  outer loop
   vertex 16.651787 0.520968 102.699989
   vertex 16.717199 -0.225925 102.699959
   vertex 16.725393 0.151103 102.699974
  endloop
 endfacet
 facet normal 0.000000 0.000000 1.000000
  outer loop
   vertex -13.200000 -22.863071 100.000000
   vertex -16.725460 -0.150958 100.000000
   vertex -26.400000 0.000000 100.000000
  endloop
 endfacet
 facet normal 0.000000 0.000000 1.000000
  outer loop
   vertex -16.725460 -0.150958 100.000000
   vertex -13.200000 -22.863071 100.000000
   vertex -16.651886 -0.520838 100.000000
  endloop
 endfacet
 facet normal 0.000000 0.000000 1.000000
  outer loop
   vertex -16.651886 -0.520838 100.000000
   vertex -13.200000 -22.863071 100.000000
   vertex -16.500000 -0.866025 100.000000
  endloop
 endfacet
 facet normal 0.000000 0.000000 1.000000
  outer loop
   vertex -16.500000 -0.866025 100.000000
   vertex -13.200000 -22.863071 100.000000
   vertex -9.036250 -13.790100 100.000000
  endloop
 endfacet
 facet normal 0.000000 0.000000 1.000000
  outer loop
   vertex -9.036250 -13.790100 100.000000
   vertex -13.200000 -22.863071 100.000000
   vertex -8.826744 -14.103648 100.000000
  endloop
 endfacet
 facet normal 0.000000 0.000000 1.000000
  outer loop
   vertex -8.826744 -14.103648 100.000000
   vertex -13.200000 -22.863071 100.000000
   vertex -8.554339 -14.364420 100.000000
  endloop
 endfacet
 facet normal 0.000000 0.000000 1.000000
  outer loop
   vertex -8.554339 -14.364420 100.000000
   vertex -13.200000 -22.863071 100.000000
   vertex -8.231950 -14.560050 100.000000
  endloop
 endfacet
 facet normal 0.000000 0.000000 1.000000
  outer loop
   vertex -8.231950 -14.560050 100.000000
   vertex -13.200000 -22.863071 100.000000
   vertex 13.200000 -22.863071 100.000000
  endloop
 endfacet
 facet normal 0.000000 0.000000 1.000000
  outer loop
   vertex -8.231950 -14.560050 100.000000
   vertex 13.200000 -22.863071 100.000000
   vertex -7.874861 -14.681266 100.000000
  endloop
 endfacet
 facet normal 0.000000 0.000000 1.000000
  outer loop
   vertex -7.874861 -14.681266 100.000000
   vertex 13.200000 -22.863071 100.000000
   vertex -7.500000 -14.722320 100.000000
  endloop
 endfacet
 facet normal -0.000002 -0.000004 1.000000
  outer loop
   vertex -7.500000 -14.722320 100.000000
   vertex 13.200000 -22.863071 100.000000
   vertex 7.424568 -14.720687 100.000023
  endloop
 endfacet
 facet normal 0.000000 -0.000003 1.000000
  outer loop
   vertex 7.424568 -14.720687 100.000023
   vertex 13.200000 -22.863071 100.000000
   vertex 7.800876 -14.695996 100.000023
  endloop
 endfacet
 facet normal 0.000001 -0.000002 1.000000
  outer loop
   vertex 7.800876 -14.695996 100.000023
   vertex 13.200000 -22.863071 100.000000
   vertex 8.162920 -14.590440 100.000023
  endloop
 endfacet
 facet normal 0.000001 -0.000002 1.000000
  outer loop
   vertex 8.162920 -14.590440 100.000023
   vertex 13.200000 -22.863071 100.000000
   vertex 8.493533 -14.409021 100.000023
  endloop
 endfacet
 facet normal 0.000002 -0.000002 1.000000
  outer loop
   vertex 8.493533 -14.409021 100.000023
   vertex 13.200000 -22.863071 100.000000
   vertex 8.777041 -14.160343 100.000023
  endloop
 endfacet
 facet normal 0.000002 -0.000002 1.000000
  outer loop
   vertex 8.777041 -14.160343 100.000023
   vertex 13.200000 -22.863071 100.000000
   vertex 9.000003 -13.856194 100.000023
  endloop
 endfacet
 facet normal -0.000018 -0.000011 1.000000
  outer loop
   vertex 9.000003 -13.856194 100.000023
   vertex 13.200000 -22.863071 100.000000
   vertex 16.460890 -0.930394 100.000305
  endloop
 endfacet
 facet normal 0.000032 -0.000019 1.000000
  outer loop
   vertex 16.460890 -0.930394 100.000305
   vertex 13.200000 -22.863071 100.000000
   vertex 26.400000 0.000000 100.000000
  endloop
 endfacet
 facet normal 0.000034 -0.000040 1.000000
  outer loop
   vertex 16.460890 -0.930394 100.000305
   vertex 26.400000 0.000000 100.000000
   vertex 16.627661 -0.592156 100.000313
  endloop
 endfacet
 facet normal 0.000034 -0.000029 1.000000
  outer loop
   vertex 16.627661 -0.592156 100.000313
   vertex 26.400000 0.000000 100.000000
   vertex 16.717268 -0.225838 100.000320
  endloop
 endfacet
 facet normal 0.000034 -0.000021 1.000000
  outer loop
   vertex 16.717268 -0.225838 100.000320
   vertex 26.400000 0.000000 100.000000
   vertex 16.725462 0.151190 100.000328
  endloop
 endfacet
 facet normal 0.000000 0.000000 1.000000
  outer loop
   vertex -26.400000 0.000000 100.000000
   vertex -16.717234 0.226078 100.000000
   vertex -13.200000 22.863071 100.000000
  endloop
 endfacet
 facet normal 0.000000 0.000000 1.000000
  outer loop
   vertex -16.717234 0.226078 100.000000
   vertex -26.400000 0.000000 100.000000
   vertex -16.725460 -0.150958 100.000000
  endloop
 endfacet
 facet normal 0.000000 0.000000 1.000000
  outer loop
   vertex -13.200000 22.863071 100.000000
   vertex -16.717234 0.226078 100.000000
   vertex -16.627596 0.592396 100.000000
  endloop
 endfacet
 facet normal 0.000000 0.000000 1.000000
  outer loop
   vertex -13.200000 22.863071 100.000000
   vertex -16.627596 0.592396 100.000000
   vertex -16.460796 0.930630 100.000000
  endloop
 endfacet
 facet normal -0.000157 0.000023 1.000000
  outer loop
   vertex -13.200000 22.863071 100.000000
   vertex -16.460796 0.930630 100.000000
   vertex -9.000000 13.856199 100.000870
  endloop
 endfacet
 facet normal -0.000081 0.000059 1.000000
  outer loop
   vertex -13.200000 22.863071 100.000000
   vertex -9.000000 13.856199 100.000870
   vertex -8.777037 14.160346 100.000870
  endloop
 endfacet
 facet normal -0.000061 0.000069 1.000000
  outer loop
   vertex -13.200000 22.863071 100.000000
   vertex -8.777037 14.160346 100.000870
   vertex -8.493526 14.409023 100.000870
  endloop
 endfacet
 facet normal -0.000043 0.000079 1.000000
  outer loop
   vertex -13.200000 22.863071 100.000000
   vertex -8.493526 14.409023 100.000870
   vertex -8.162911 14.590440 100.000870
  endloop
 endfacet
 facet normal 0.000000 0.000105 1.000000
  outer loop
   vertex -13.200000 22.863071 100.000000
   vertex -8.162911 14.590440 100.000870
   vertex 13.200000 22.863071 100.000000
  endloop
 endfacet
 facet normal -0.000124 0.000425 1.000000
  outer loop
   vertex 13.200000 22.863071 100.000000
   vertex -8.162911 14.590440 100.000870
   vertex -7.800867 14.695995 100.000870
  endloop
 endfacet
 facet normal -0.000008 0.000128 1.000000
  outer loop
   vertex 13.200000 22.863071 100.000000
   vertex -7.800867 14.695995 100.000870
   vertex -7.424558 14.720684 100.000870
  endloop
 endfacet
 facet normal -0.000318 0.000911 1.000000
  outer loop
   vertex 13.200000 22.863071 100.000000
   vertex -7.424558 14.720684 100.000870
   vertex 7.500000 14.722322 100.005608
  endloop
 endfacet
 facet normal 0.000070 0.000640 1.000000
  outer loop
   vertex 13.200000 22.863071 100.000000
   vertex 7.500000 14.722322 100.005608
   vertex 7.874861 14.681269 100.005608
  endloop
 endfacet
 facet normal 0.000191 0.000561 1.000000
  outer loop
   vertex 13.200000 22.863071 100.000000
   vertex 7.874861 14.681269 100.005608
   vertex 8.231950 14.560053 100.005608
  endloop
 endfacet
 facet normal 0.000301 0.000495 1.000000
  outer loop
   vertex 13.200000 22.863071 100.000000
   vertex 8.231950 14.560053 100.005608
   vertex 8.554338 14.364422 100.005608
  endloop
 endfacet
 facet normal 0.000415 0.000433 1.000000
  outer loop
   vertex 13.200000 22.863071 100.000000
   vertex 8.554338 14.364422 100.005608
   vertex 8.826744 14.103651 100.005608
  endloop
 endfacet
 facet normal 0.000548 0.000366 1.000000
  outer loop
   vertex 13.200000 22.863071 100.000000
   vertex 8.826744 14.103651 100.005608
   vertex 9.036250 13.790102 100.005608
  endloop
 endfacet
 facet normal 0.000988 0.000165 1.000000
  outer loop
   vertex 13.200000 22.863071 100.000000
   vertex 9.036250 13.790102 100.005608
   vertex 16.499935 0.866219 100.000359
  endloop
 endfacet
 facet normal 0.000038 0.000022 1.000000
  outer loop
   vertex 13.200000 22.863071 100.000000
   vertex 16.499935 0.866219 100.000359
   vertex 26.400000 0.000000 100.000000
  endloop
 endfacet
 facet normal 0.000034 -0.000029 1.000000
  outer loop
   vertex 26.400000 0.000000 100.000000
   vertex 16.499935 0.866219 100.000359
   vertex 16.651854 0.521055 100.000343
  endloop
 endfacet
 facet normal 0.000033 -0.000035 1.000000
  outer loop
   vertex 26.400000 0.000000 100.000000
   vertex 16.651854 0.521055 100.000343
   vertex 16.725462 0.151190 100.000328
  endloop
 endfacet
 facet normal -0.896874 0.442287 0.000020
  outer loop
   vertex -16.460739 0.930626 102.699997
   vertex -16.627596 0.592396 100.000000
   vertex -16.627537 0.592392 102.699997
  endloop
 endfacet
 facet normal -0.896872 0.442291 0.000020
  outer loop
   vertex -16.627596 0.592396 100.000000
   vertex -16.460739 0.930626 102.699997
   vertex -16.460796 0.930630 100.000000
  endloop
 endfacet
 facet normal -0.971342 0.237686 0.000022
  outer loop
   vertex -16.627537 0.592392 102.699997
   vertex -16.717234 0.226078 100.000000
   vertex -16.717175 0.226074 102.699997
  endloop
 endfacet
 facet normal -0.971342 0.237687 0.000022
  outer loop
   vertex -16.717234 0.226078 100.000000
   vertex -16.627537 0.592392 102.699997
   vertex -16.627596 0.592396 100.000000
  endloop
 endfacet
 facet normal -0.999762 0.021813 0.000022
  outer loop
   vertex -16.717175 0.226074 102.699997
   vertex -16.725460 -0.150958 100.000000
   vertex -16.725401 -0.150962 102.699997
  endloop
 endfacet
 facet normal -0.999762 0.021813 0.000022
  outer loop
   vertex -16.725460 -0.150958 100.000000
   vertex -16.717175 0.226074 102.699997
   vertex -16.717234 0.226078 100.000000
  endloop
 endfacet
 facet normal -0.915312 -0.402746 0.000019
  outer loop
   vertex -16.651829 -0.520842 102.699997
   vertex -16.500000 -0.866025 100.000000
   vertex -16.499943 -0.866029 102.699997
  endloop
 endfacet
 facet normal -0.915312 -0.402746 0.000019
  outer loop
   vertex -16.500000 -0.866025 100.000000
   vertex -16.651829 -0.520842 102.699997
   vertex -16.651886 -0.520838 100.000000
  endloop
 endfacet
 facet normal -0.980786 -0.195087 0.000021
  outer loop
   vertex -16.725401 -0.150962 102.699997
   vertex -16.651886 -0.520838 100.000000
   vertex -16.651829 -0.520842 102.699997
  endloop
 endfacet
 facet normal -0.980785 -0.195091 0.000021
  outer loop
   vertex -16.651886 -0.520838 100.000000
   vertex -16.725401 -0.150962 102.699997
   vertex -16.725460 -0.150958 100.000000
  endloop
 endfacet
 facet normal -0.831469 -0.555571 0.000017
  outer loop
   vertex -9.036192 -13.790106 102.700005
   vertex -8.826744 -14.103648 100.000000
   vertex -8.826685 -14.103655 102.700005
  endloop
 endfacet
 facet normal -0.831470 -0.555570 0.000017
  outer loop
   vertex -8.826744 -14.103648 100.000000
   vertex -9.036192 -13.790106 102.700005
   vertex -9.036250 -13.790100 100.000000
  endloop
 endfacet
 facet normal -0.691514 -0.722363 0.000014
  outer loop
   vertex -8.554280 -14.364426 102.699997
   vertex -8.826744 -14.103648 100.000000
   vertex -8.554339 -14.364420 100.000000
  endloop
 endfacet
 facet normal -0.691513 -0.722364 0.000013
  outer loop
   vertex -8.826744 -14.103648 100.000000
   vertex -8.554280 -14.364426 102.699997
   vertex -8.826685 -14.103655 102.700005
  endloop
 endfacet
 facet normal -0.518772 -0.854913 0.000009
  outer loop
   vertex -8.231892 -14.560057 102.699997
   vertex -8.554339 -14.364420 100.000000
   vertex -8.231950 -14.560050 100.000000
  endloop
 endfacet
 facet normal -0.518775 -0.854911 0.000010
  outer loop
   vertex -8.554339 -14.364420 100.000000
   vertex -8.231892 -14.560057 102.699997
   vertex -8.554280 -14.364426 102.699997
  endloop
 endfacet
 facet normal -0.108867 -0.994056 0.000000
  outer loop
   vertex -7.499942 -14.722325 102.699997
   vertex -7.874861 -14.681266 100.000000
   vertex -7.500000 -14.722320 100.000000
  endloop
 endfacet
 facet normal -0.108866 -0.994056 0.000000
  outer loop
   vertex -7.874861 -14.681266 100.000000
   vertex -7.499942 -14.722325 102.699997
   vertex -7.874803 -14.681272 102.699997
  endloop
 endfacet
 facet normal -0.321440 -0.946930 0.000005
  outer loop
   vertex -7.874803 -14.681272 102.699997
   vertex -8.231950 -14.560050 100.000000
   vertex -7.874861 -14.681266 100.000000
  endloop
 endfacet
 facet normal -0.321438 -0.946931 0.000005
  outer loop
   vertex -8.231950 -14.560050 100.000000
   vertex -7.874803 -14.681272 102.699997
   vertex -8.231892 -14.560057 102.699997
  endloop
 endfacet
 facet normal 0.000000 -0.999808 -0.019610
  outer loop
   vertex 7.500058 12.990377 102.699997
   vertex -8.629000 14.945867 3.000000
   vertex 8.629000 14.945867 3.000000
  endloop
 endfacet
 facet normal 0.000000 -0.999808 -0.019610
  outer loop
   vertex -8.629000 14.945867 3.000000
   vertex 7.500058 12.990377 102.699997
   vertex -7.499942 12.990377 102.699997
  endloop
 endfacet
 facet normal -0.865859 -0.499904 -0.019609
  outer loop
   vertex 7.500058 12.990377 102.699997
   vertex 17.257999 0.000000 3.000000
   vertex 15.000058 -0.000004 102.699997
  endloop
 endfacet
 facet normal -0.865859 -0.499904 -0.019609
  outer loop
   vertex 17.257999 0.000000 3.000000
   vertex 7.500058 12.990377 102.699997
   vertex 8.629000 14.945867 3.000000
  endloop
 endfacet
 facet normal 0.865859 -0.499904 -0.019610
  outer loop
   vertex -17.257999 0.000000 3.000000
   vertex -14.133917 1.499996 102.699997
   vertex -14.999942 -0.000004 102.699997
  endloop
 endfacet
 facet normal 0.865859 -0.499904 -0.019610
  outer loop
   vertex -14.133917 1.499996 102.699997
   vertex -17.257999 0.000000 3.000000
   vertex -8.629000 14.945867 3.000000
  endloop
 endfacet
 facet normal 0.865859 -0.499904 -0.019610
  outer loop
   vertex -14.133917 1.499996 102.699997
   vertex -8.629000 14.945867 3.000000
   vertex -7.499942 12.990377 102.699997
  endloop
 endfacet
 facet normal 0.865859 0.499904 -0.019610
  outer loop
   vertex -17.257999 0.000000 3.000000
   vertex -7.499942 -12.990385 102.699997
   vertex -8.629000 -14.945867 3.000000
  endloop
 endfacet
 facet normal 0.865859 0.499904 -0.019610
  outer loop
   vertex -7.499942 -12.990385 102.699997
   vertex -17.257999 0.000000 3.000000
   vertex -14.999942 -0.000004 102.699997
  endloop
 endfacet
 facet normal -0.865859 0.499904 -0.019609
  outer loop
   vertex 7.500058 -12.990385 102.699997
   vertex 17.257999 0.000000 3.000000
   vertex 8.629000 -14.945867 3.000000
  endloop
 endfacet
 facet normal -0.865859 0.499904 -0.019609
  outer loop
   vertex 17.257999 0.000000 3.000000
   vertex 7.500058 -12.990385 102.699997
   vertex 15.000058 -0.000004 102.699997
  endloop
 endfacet
 facet normal 0.000000 0.999808 -0.019610
  outer loop
   vertex -7.499942 -12.990385 102.699997
   vertex 8.629000 -14.945867 3.000000
   vertex -8.629000 -14.945867 3.000000
  endloop
 endfacet
 facet normal 0.000000 0.999808 -0.019610
  outer loop
   vertex 8.629000 -14.945867 3.000000
   vertex -7.499942 -12.990385 102.699997
   vertex 7.500058 -12.990385 102.699997
  endloop
 endfacet
endsolid 100mm_spacer - 100mm_spacer (repariert)
