solid 50mm_spacer
facet normal 0.0 0.0 1.0
  outer loop
    vertex -13.20000000000001 -22.86307065990917 50.0
    vertex -16.725459831325644 -0.15095817461033523 50.00000000000001
    vertex -26.399999999999995 3.233067549749012e-15 50.0
  endloop
endfacet
facet normal 0.0 0.0 1.0
  outer loop
    vertex -16.725459831325644 -0.15095817461033523 50.00000000000001
    vertex -13.20000000000001 -22.86307065990917 50.0
    vertex -16.651886214735597 -0.5208377228720097 50.00000000000001
  endloop
endfacet
facet normal 0.0 0.0 1.0
  outer loop
    vertex -16.651886214735597 -0.5208377228720097 50.00000000000001
    vertex -13.20000000000001 -22.86307065990917 50.0
    vertex -16.500000000000004 -0.8660254037844275 50.00000000000001
  endloop
endfacet
facet normal 0.0 0.0 1.0
  outer loop
    vertex -16.500000000000004 -0.8660254037844275 50.00000000000001
    vertex -13.20000000000001 -22.86307065990917 50.0
    vertex -9.036250399739917 -13.790099808544447 50.000002178048724
  endloop
endfacet
facet normal 0.0 0.0 1.0
  outer loop
    vertex -9.036250399739917 -13.790099808544447 50.000002178048724
    vertex -13.20000000000001 -22.86307065990917 50.0
    vertex -8.826743787832717 -14.103648611241365 50.00000203906144
  endloop
endfacet
facet normal 0.0 0.0 1.0
  outer loop
    vertex -8.826743787832717 -14.103648611241365 50.00000203906144
    vertex -13.20000000000001 -22.86307065990917 50.0
    vertex -8.554338937356027 -14.364419525152918 50.00000186182911
  endloop
endfacet
facet normal 0.0 0.0 1.0
  outer loop
    vertex -8.554338937356027 -14.364419525152918 50.00000186182911
    vertex -13.20000000000001 -22.86307065990917 50.0
    vertex -8.23195001358224 -14.560049926505725 50.000001654753945
  endloop
endfacet
facet normal 0.0 0.0 1.0
  outer loop
    vertex -8.23195001358224 -14.560049926505725 50.000001654753945
    vertex -13.20000000000001 -22.86307065990917 50.0
    vertex 13.199999999999978 -22.863070659909187 50.0
  endloop
endfacet
facet normal 0.0 0.0 1.0
  outer loop
    vertex -8.23195001358224 -14.560049926505725 50.000001654753945
    vertex 13.199999999999978 -22.863070659909187 50.0
    vertex -7.874860826018846 -14.681265372018206 50.00000142765297
  endloop
endfacet
facet normal 0.0 0.0 1.0
  outer loop
    vertex -7.874860826018846 -14.681265372018206 50.00000142765297
    vertex 13.199999999999978 -22.863070659909187 50.0
    vertex -7.500000253784952 -14.722319281575595 50.00000119129259
  endloop
endfacet
facet normal 0.0 0.0 1.0
  outer loop
    vertex -7.500000253784952 -14.722319281575595 50.00000119129259
    vertex 13.199999999999978 -22.863070659909187 50.0
    vertex 7.424567715987001 -14.72068690498245 50.00002069712983
  endloop
endfacet
facet normal 0.0 0.0 1.0
  outer loop
    vertex 7.424567715987001 -14.72068690498245 50.00002069712983
    vertex 13.199999999999978 -22.863070659909187 50.0
    vertex 7.800876314324585 -14.695996320118063 50.000020254801925
  endloop
endfacet
facet normal 0.0 0.0 1.0
  outer loop
    vertex 7.800876314324585 -14.695996320118063 50.000020254801925
    vertex 13.199999999999978 -22.863070659909187 50.0
    vertex 8.162919906824975 -14.590439589905253 50.00001989542793
  endloop
endfacet
facet normal 0.0 0.0 1.0
  outer loop
    vertex 8.162919906824975 -14.590439589905253 50.00001989542793
    vertex 13.199999999999978 -22.863070659909187 50.0
    vertex 8.493533297503005 -14.409021365715267 50.00001963604648
  endloop
endfacet
facet normal 0.0 0.0 1.0
  outer loop
    vertex 8.493533297503005 -14.409021365715267 50.00001963604648
    vertex 13.199999999999978 -22.863070659909187 50.0
    vertex 8.77704145781551 -14.160343040965932 50.00001948895535
  endloop
endfacet
facet normal 0.0 0.0 1.0
  outer loop
    vertex 8.77704145781551 -14.160343040965932 50.00001948895535
    vertex 13.199999999999978 -22.863070659909187 50.0
    vertex 9.000002710472895 -13.856194942209113 50.000019461128424
  endloop
endfacet
facet normal 0.0 0.0 1.0
  outer loop
    vertex 9.000002710472895 -13.856194942209113 50.000019461128424
    vertex 13.199999999999978 -22.863070659909187 50.0
    vertex 16.46088951960932 -0.9303937474294317 50.00030212000357
  endloop
endfacet
facet normal 0.0 0.0 1.0
  outer loop
    vertex 16.46088951960932 -0.9303937474294317 50.00030212000357
    vertex 13.199999999999978 -22.863070659909187 50.0
    vertex 26.399999999999995 0.0 50.0
  endloop
endfacet
facet normal 0.0 0.0 1.0
  outer loop
    vertex 16.46088951960932 -0.9303937474294317 50.00030212000357
    vertex 26.399999999999995 0.0 50.0
    vertex 16.62766107952292 -0.5921556398896822 50.00030985983159
  endloop
endfacet
facet normal 0.0 0.0 1.0
  outer loop
    vertex 16.62766107952292 -0.5921556398896822 50.00030985983159
    vertex 26.399999999999995 0.0 50.0
    vertex 16.717267992071573 -0.22583832966504944 50.00031992363016
  endloop
endfacet
facet normal 0.0 0.0 1.0
  outer loop
    vertex 16.717267992071573 -0.22583832966504944 50.00031992363016
    vertex 26.399999999999995 0.0 50.0
    vertex 16.725461817159246 0.15119035854920504 50.00033183425479
  endloop
endfacet
facet normal 0.0 0.0 1.0
  outer loop
    vertex -26.399999999999995 3.233067549749012e-15 50.0
    vertex -16.717232872802523 0.22607799664364198 50.00000000000001
    vertex -13.199999999999992 22.863070659909177 50.0
  endloop
endfacet
facet normal 0.0 0.0 1.0
  outer loop
    vertex -16.717232872802523 0.22607799664364198 50.00000000000001
    vertex -26.399999999999995 3.233067549749012e-15 50.0
    vertex -16.725459831325644 -0.15095817461033523 50.00000000000001
  endloop
endfacet
facet normal 0.0 0.0 1.0
  outer loop
    vertex -13.199999999999992 22.863070659909177 50.0
    vertex -16.717232872802523 0.22607799664364198 50.00000000000001
    vertex -16.62759536269875 0.5923962654520585 50.00000000000001
  endloop
endfacet
facet normal 0.0 0.0 1.0
  outer loop
    vertex -13.199999999999992 22.863070659909177 50.0
    vertex -16.62759536269875 0.5923962654520585 50.00000000000001
    vertex -16.460796834816893 0.9306302205435681 50.00000000000001
  endloop
endfacet
facet normal 0.0 0.0 1.0
  outer loop
    vertex -13.199999999999992 22.863070659909177 50.0
    vertex -16.460796834816893 0.9306302205435681 50.00000000000001
    vertex -8.999999978566448 13.85619941683358 50.00087299999999
  endloop
endfacet
facet normal 0.0 0.0 1.0
  outer loop
    vertex -13.199999999999992 22.863070659909177 50.0
    vertex -8.999999978566448 13.85619941683358 50.00087299999999
    vertex -8.777036505125345 14.160346497668874 50.00087299999999
  endloop
endfacet
facet normal 0.0 0.0 1.0
  outer loop
    vertex -13.199999999999992 22.863070659909177 50.0
    vertex -8.777036505125345 14.160346497668874 50.00087299999999
    vertex -8.493526534212082 14.409023504370971 50.00087299999999
  endloop
endfacet
facet normal 0.0 0.0 1.0
  outer loop
    vertex -13.199999999999992 22.863070659909177 50.0
    vertex -8.493526534212082 14.409023504370971 50.00087299999999
    vertex -8.16291176124284 14.590440232276777 50.00087299999999
  endloop
endfacet
facet normal 0.0 0.0 1.0
  outer loop
    vertex -13.199999999999992 22.863070659909177 50.0
    vertex -8.16291176124284 14.590440232276777 50.00087299999999
    vertex 13.200000000000001 22.863070659909177 50.0
  endloop
endfacet
facet normal 0.0 0.0 1.0
  outer loop
    vertex 13.200000000000001 22.863070659909177 50.0
    vertex -8.16291176124284 14.590440232276777 50.00087299999999
    vertex -7.8008672013291624 14.695995402242373 50.00087299999999
  endloop
endfacet
facet normal 0.0 0.0 1.0
  outer loop
    vertex 13.200000000000001 22.863070659909177 50.0
    vertex -7.8008672013291624 14.695995402242373 50.00087299999999
    vertex -7.4245580098473045 14.72068446208319 50.00087299999999
  endloop
endfacet
facet normal 0.0 0.0 1.0
  outer loop
    vertex 13.200000000000001 22.863070659909177 50.0
    vertex -7.4245580098473045 14.72068446208319 50.00087299999999
    vertex 7.499999999999997 14.722322134303944 50.005605
  endloop
endfacet
facet normal 0.0 0.0 1.0
  outer loop
    vertex 13.200000000000001 22.863070659909177 50.0
    vertex 7.499999999999997 14.722322134303944 50.005605
    vertex 7.8748606581857254 14.681268215333303 50.005605
  endloop
endfacet
facet normal 0.0 0.0 1.0
  outer loop
    vertex 13.200000000000001 22.863070659909177 50.0
    vertex 7.8748606581857254 14.681268215333303 50.005605
    vertex 8.23194992762615 14.56005274202734 50.005605
  endloop
endfacet
facet normal 0.0 0.0 1.0
  outer loop
    vertex 13.200000000000001 22.863070659909177 50.0
    vertex 8.23194992762615 14.56005274202734 50.005605
    vertex 8.554338925320545 14.364422295818448 50.005605
  endloop
endfacet
facet normal 0.0 0.0 1.0
  outer loop
    vertex 13.200000000000001 22.863070659909177 50.0
    vertex 8.554338925320545 14.364422295818448 50.005605
    vertex 8.82674383825699 14.103651322114752 50.005605
  endloop
endfacet
facet normal 0.0 0.0 1.0
  outer loop
    vertex 13.200000000000001 22.863070659909177 50.0
    vertex 8.82674383825699 14.103651322114752 50.005605
    vertex 9.036250498202 13.79010244752425 50.005605
  endloop
endfacet
facet normal 0.0 0.0 1.0
  outer loop
    vertex 13.200000000000001 22.863070659909177 50.0
    vertex 9.036250498202 13.79010244752425 50.005605
    vertex 16.499934637027955 0.866218853401643 50.000358876369745
  endloop
endfacet
facet normal 0.0 0.0 1.0
  outer loop
    vertex 13.200000000000001 22.863070659909177 50.0
    vertex 16.499934637027955 0.866218853401643 50.000358876369745
    vertex 26.399999999999995 0.0 50.0
  endloop
endfacet
facet normal 0.0 0.0 1.0
  outer loop
    vertex 26.399999999999995 0.0 50.0
    vertex 16.499934637027955 0.866218853401643 50.000358876369745
    vertex 16.651854069410735 0.5210547525442678 50.000345026999305
  endloop
endfacet
facet normal 0.0 0.0 1.0
  outer loop
    vertex 26.399999999999995 0.0 50.0
    vertex 16.651854069410735 0.5210547525442678 50.000345026999305
    vertex 16.725461817159246 0.15119035854920504 50.00033183425479
  endloop
endfacet
facet normal -6.409014733063406e-16 -1.0 -0.0
  outer loop
    vertex 13.199999999999978 -22.863070659909187 50.0
    vertex -13.20000000000001 -22.86307065990917 0.0
    vertex 13.199999999999978 -22.863070659909187 0.0
  endloop
endfacet
facet normal -6.409014733063406e-16 -1.0 -0.0
  outer loop
    vertex -13.20000000000001 -22.86307065990917 0.0
    vertex 13.199999999999978 -22.863070659909187 50.0
    vertex -13.20000000000001 -22.86307065990917 50.0
  endloop
endfacet
facet normal -0.8660254037844388 -0.4999999999999998 -0.0
  outer loop
    vertex -26.399999999999995 3.233067549749012e-15 50.0
    vertex -13.20000000000001 -22.86307065990917 0.0
    vertex -13.20000000000001 -22.86307065990917 50.0
  endloop
endfacet
facet normal -0.8660254037844388 -0.4999999999999998 -0.0
  outer loop
    vertex -13.20000000000001 -22.86307065990917 0.0
    vertex -26.399999999999995 3.233067549749012e-15 50.0
    vertex -26.399999999999995 3.233067549749012e-15 0.0
  endloop
endfacet
facet normal 0.8660254037844386 0.4999999999999999 0.0
  outer loop
    vertex 13.200000000000001 22.863070659909177 0.0
    vertex 26.399999999999995 0.0 50.0
    vertex 26.399999999999995 0.0 0.0
  endloop
endfacet
facet normal 0.8660254037844386 0.4999999999999999 0.0
  outer loop
    vertex 26.399999999999995 0.0 50.0
    vertex 13.200000000000001 22.863070659909177 0.0
    vertex 13.200000000000001 22.863070659909177 50.0
  endloop
endfacet
facet normal 0.8660254037844385 -0.5000000000000004 0.0
  outer loop
    vertex 26.399999999999995 0.0 0.0
    vertex 13.199999999999978 -22.863070659909187 50.0
    vertex 13.199999999999978 -22.863070659909187 0.0
  endloop
endfacet
facet normal 0.8660254037844385 -0.5000000000000004 0.0
  outer loop
    vertex 13.199999999999978 -22.863070659909187 50.0
    vertex 26.399999999999995 0.0 0.0
    vertex 26.399999999999995 0.0 50.0
  endloop
endfacet
facet normal 6.461283419383784e-07 -4.385297378171036e-08 0.9999999999997904
  outer loop
    vertex -16.651860369601916 -0.520839476990961 52.69999999999161
    vertex -16.717207027668845 0.2260762425246907 52.69999999999161
    vertex -16.725433986191966 -0.15095992872928649 52.69999999999161
  endloop
endfacet
facet normal 6.461283419383784e-07 -4.385297378171036e-08 0.9999999999997904
  outer loop
    vertex -16.717207027668845 0.2260762425246907 52.69999999999161
    vertex -16.651860369601916 -0.520839476990961 52.69999999999161
    vertex -16.62756951756507 0.5923945113331072 52.69999999999161
  endloop
endfacet
facet normal 6.461283419383784e-07 -4.385297378171036e-08 0.9999999999997904
  outer loop
    vertex -16.62756951756507 0.5923945113331072 52.69999999999161
    vertex -16.651860369601916 -0.520839476990961 52.69999999999161
    vertex -16.499974154866326 -0.8660271579033788 52.69999999999161
  endloop
endfacet
facet normal 6.461283419383784e-07 -4.385297378171036e-08 0.9999999999997904
  outer loop
    vertex -16.62756951756507 0.5923945113331072 52.69999999999161
    vertex -16.499974154866326 -0.8660271579033788 52.69999999999161
    vertex -16.460770989683216 0.9306284664246168 52.69999999999161
  endloop
endfacet
facet normal 6.461283419383784e-07 -4.385297378171036e-08 0.9999999999997904
  outer loop
    vertex -16.460770989683216 0.9306284664246168 52.69999999999161
    vertex -16.499974154866326 -0.8660271579033788 52.69999999999161
    vertex -9.036224300821297 -13.7901040182751 52.70000094570068
  endloop
endfacet
facet normal 6.461283419383784e-07 -4.385297378171036e-08 0.9999999999997904
  outer loop
    vertex -16.460770989683216 0.9306284664246168 52.69999999999161
    vertex -9.036224300821297 -13.7901040182751 52.70000094570068
    vertex -14.999974154866322 -1.7541189434918626e-06 52.69999999999161
  endloop
endfacet
facet normal 6.461283419383784e-07 -4.385297378171036e-08 0.9999999999997904
  outer loop
    vertex -14.999974154866322 -1.7541189434918626e-06 52.69999999999161
    vertex -9.036224300821297 -13.7901040182751 52.70000094570068
    vertex -8.365944495076388 -11.490478183793412 52.70000057931095
  endloop
endfacet
facet normal 6.461283419383784e-07 -4.385297378171036e-08 0.9999999999997904
  outer loop
    vertex -8.365944495076388 -11.490478183793412 52.70000057931095
    vertex -9.036224300821297 -13.7901040182751 52.70000094570068
    vertex -8.826717688914098 -14.10365282097202 52.7000008067134
  endloop
endfacet
facet normal 6.461283419383784e-07 -4.385297378171036e-08 0.9999999999997904
  outer loop
    vertex -8.365944495076388 -11.490478183793412 52.70000057931095
    vertex -8.826717688914098 -14.10365282097202 52.7000008067134
    vertex -8.554312838437408 -14.364423734883573 52.70000062948107
  endloop
endfacet
facet normal 6.461283419383784e-07 -4.385297378171036e-08 0.9999999999997904
  outer loop
    vertex -8.365944495076388 -11.490478183793412 52.70000057931095
    vertex -8.554312838437408 -14.364423734883573 52.70000062948107
    vertex -8.231923914663621 -14.56005413623638 52.70000042240591
  endloop
endfacet
facet normal 6.461283419383784e-07 -4.385297378171036e-08 0.9999999999997904
  outer loop
    vertex -8.365944495076388 -11.490478183793412 52.70000057931095
    vertex -8.231923914663621 -14.56005413623638 52.70000042240591
    vertex -7.4999741548663295 -12.990382810885526 52.69999999999161
  endloop
endfacet
facet normal 6.461283419383784e-07 -4.385297378171036e-08 0.9999999999997904
  outer loop
    vertex -7.4999741548663295 -12.990382810885526 52.69999999999161
    vertex -8.231923914663621 -14.56005413623638 52.70000042240591
    vertex -7.874834727100228 -14.681269581748861 52.70000019530494
  endloop
endfacet
facet normal 6.461283419383784e-07 -4.385297378171036e-08 0.9999999999997904
  outer loop
    vertex -7.4999741548663295 -12.990382810885526 52.69999999999161
    vertex -7.874834727100228 -14.681269581748861 52.70000019530494
    vertex -7.499974154866333 -14.72232349130625 52.69999995894455
  endloop
endfacet
facet normal 6.461283419383784e-07 -4.385297378171036e-08 0.9999999999997904
  outer loop
    vertex -7.4999741548663295 -12.990382810885526 52.69999999999161
    vertex -7.499974154866333 -14.72232349130625 52.69999995894455
    vertex 7.4245908263810785 -14.720679891527421 52.6999986926784
  endloop
endfacet
facet normal 6.461283419383784e-07 -4.385297378171036e-08 0.9999999999997904
  outer loop
    vertex -7.4999741548663295 -12.990382810885526 52.69999999999161
    vertex 7.4245908263810785 -14.720679891527421 52.6999986926784
    vertex 5.768085191032261 -12.990382810886759 52.70000212772671
  endloop
endfacet
facet normal 6.461283419383784e-07 -4.385297378171036e-08 0.9999999999997904
  outer loop
    vertex 5.768085191032261 -12.990382810886759 52.70000212772671
    vertex 7.4245908263810785 -14.720679891527421 52.6999986926784
    vertex 7.5000258451336705 -12.990382810885535 52.69999999999161
  endloop
endfacet
facet normal 6.461283419383784e-07 -4.385297378171036e-08 0.9999999999997904
  outer loop
    vertex 7.5000258451336705 -12.990382810885535 52.69999999999161
    vertex 7.4245908263810785 -14.720679891527421 52.6999986926784
    vertex 7.800899424718661 -14.695989306663034 52.69999825035049
  endloop
endfacet
facet normal 6.461283419383784e-07 -4.385297378171036e-08 0.9999999999997904
  outer loop
    vertex 7.5000258451336705 -12.990382810885535 52.69999999999161
    vertex 7.800899424718661 -14.695989306663034 52.69999825035049
    vertex 14.134055660062367 -1.4999061363383774 52.699968013824
  endloop
endfacet
facet normal 6.461283419383784e-07 -4.385297378171036e-08 0.9999999999997904
  outer loop
    vertex 14.134055660062367 -1.4999061363383774 52.699968013824
    vertex 7.800899424718661 -14.695989306663034 52.69999825035049
    vertex 8.162943017219053 -14.590432576450224 52.699997890976505
  endloop
endfacet
facet normal 6.461283419383784e-07 -4.385297378171036e-08 0.9999999999997904
  outer loop
    vertex 14.134055660062367 -1.4999061363383774 52.699968013824
    vertex 8.162943017219053 -14.590432576450224 52.699997890976505
    vertex 8.493556407897081 -14.409014352260236 52.699997631595046
  endloop
endfacet
facet normal 6.461283419383784e-07 -4.385297378171036e-08 0.9999999999997904
  outer loop
    vertex 14.134055660062367 -1.4999061363383774 52.699968013824
    vertex 8.493556407897081 -14.409014352260236 52.699997631595046
    vertex 8.777064568209589 -14.160336027510903 52.699997484503925
  endloop
endfacet
facet normal 6.461283419383784e-07 -4.385297378171036e-08 0.9999999999997904
  outer loop
    vertex 14.134055660062367 -1.4999061363383774 52.699968013824
    vertex 8.777064568209589 -14.160336027510903 52.699997484503925
    vertex 9.000025820866972 -13.856187928754084 52.699997456676996
  endloop
endfacet
facet normal 6.461283419383784e-07 -4.385297378171036e-08 0.9999999999997904
  outer loop
    vertex 14.134055660062367 -1.4999061363383774 52.699968013824
    vertex 9.000025820866972 -13.856187928754084 52.699997456676996
    vertex 16.46078948684333 -0.9304785663472099 52.69994324362544
  endloop
endfacet
facet normal 6.461283419383784e-07 -4.385297378171036e-08 0.9999999999997904
  outer loop
    vertex 14.134055660062367 -1.4999061363383774 52.699968013824
    vertex 16.46078948684333 -0.9304785663472099 52.69994324362544
    vertex 15.00002584513368 -1.7541189608819364e-06 52.69999999999161
  endloop
endfacet
facet normal 6.461283419383784e-07 -4.385297378171036e-08 0.9999999999997904
  outer loop
    vertex -14.999974154866322 -1.7541189434918626e-06 52.69999999999161
    vertex -8.99997413343277 13.856197662714628 52.69999999999161
    vertex -16.460770989683216 0.9306284664246168 52.69999999999161
  endloop
endfacet
facet normal 6.461283419383784e-07 -4.385297378171036e-08 0.9999999999997904
  outer loop
    vertex -8.99997413343277 13.856197662714628 52.69999999999161
    vertex -14.999974154866322 -1.7541189434918626e-06 52.69999999999161
    vertex -14.133948751081883 1.4999982458810572 52.69999999999161
  endloop
endfacet
facet normal 6.461283419383784e-07 -4.385297378171036e-08 0.9999999999997904
  outer loop
    vertex -8.99997413343277 13.856197662714628 52.69999999999161
    vertex -14.133948751081883 1.4999982458810572 52.69999999999161
    vertex -7.499974154866322 12.99037930264763 52.69999999999161
  endloop
endfacet
facet normal 6.461283419383784e-07 -4.385297378171036e-08 0.9999999999997904
  outer loop
    vertex -8.99997413343277 13.856197662714628 52.69999999999161
    vertex -7.499974154866322 12.99037930264763 52.69999999999161
    vertex -8.777010659991667 14.160344743549922 52.69999999999161
  endloop
endfacet
facet normal 6.461283419383784e-07 -4.385297378171036e-08 0.9999999999997904
  outer loop
    vertex -8.777010659991667 14.160344743549922 52.69999999999161
    vertex -7.499974154866322 12.99037930264763 52.69999999999161
    vertex -8.493500689078406 14.409021750252021 52.69999999999161
  endloop
endfacet
facet normal 6.461283419383784e-07 -4.385297378171036e-08 0.9999999999997904
  outer loop
    vertex -8.493500689078406 14.409021750252021 52.69999999999161
    vertex -7.499974154866322 12.99037930264763 52.69999999999161
    vertex -8.162885916109163 14.590438478157827 52.69999999999161
  endloop
endfacet
facet normal 6.461283419383784e-07 -4.385297378171036e-08 0.9999999999997904
  outer loop
    vertex -8.162885916109163 14.590438478157827 52.69999999999161
    vertex -7.499974154866322 12.99037930264763 52.69999999999161
    vertex -7.800841356195486 14.695993648123421 52.69999999999161
  endloop
endfacet
facet normal 6.461283419383784e-07 -4.385297378171036e-08 0.9999999999997904
  outer loop
    vertex -7.800841356195486 14.695993648123421 52.69999999999161
    vertex -7.499974154866322 12.99037930264763 52.69999999999161
    vertex -7.424532164713628 14.720682707964238 52.69999999999161
  endloop
endfacet
facet normal 6.461283419383784e-07 -4.385297378171036e-08 0.9999999999997904
  outer loop
    vertex -7.424532164713628 14.720682707964238 52.69999999999161
    vertex -7.499974154866322 12.99037930264763 52.69999999999161
    vertex -5.76802687843772 12.99037930264763 52.69999999999161
  endloop
endfacet
facet normal 6.461283419383784e-07 -4.385297378171036e-08 0.9999999999997904
  outer loop
    vertex -7.424532164713628 14.720682707964238 52.69999999999161
    vertex -5.76802687843772 12.99037930264763 52.69999999999161
    vertex 7.500025845133674 14.722320380184993 52.69999999999161
  endloop
endfacet
facet normal 6.461283419383784e-07 -4.385297378171036e-08 0.9999999999997904
  outer loop
    vertex 7.500025845133674 14.722320380184993 52.69999999999161
    vertex -5.76802687843772 12.99037930264763 52.69999999999161
    vertex 7.500025845133674 12.99037930264763 52.69999999999161
  endloop
endfacet
facet normal 6.461283419383784e-07 -4.385297378171036e-08 0.9999999999997904
  outer loop
    vertex 7.500025845133674 14.722320380184993 52.69999999999161
    vertex 7.500025845133674 12.99037930264763 52.69999999999161
    vertex 8.365996383902354 11.490474331642481 52.69999999999161
  endloop
endfacet
facet normal 6.461283419383784e-07 -4.385297378171036e-08 0.9999999999997904
  outer loop
    vertex 7.500025845133674 14.722320380184993 52.69999999999161
    vertex 8.365996383902354 11.490474331642481 52.69999999999161
    vertex 7.874886503319402 14.681266461214353 52.69999999999161
  endloop
endfacet
facet normal 6.461283419383784e-07 -4.385297378171036e-08 0.9999999999997904
  outer loop
    vertex 7.874886503319402 14.681266461214353 52.69999999999161
    vertex 8.365996383902354 11.490474331642481 52.69999999999161
    vertex 8.231975772759828 14.56005098790839 52.69999999999161
  endloop
endfacet
facet normal 6.461283419383784e-07 -4.385297378171036e-08 0.9999999999997904
  outer loop
    vertex 8.231975772759828 14.56005098790839 52.69999999999161
    vertex 8.365996383902354 11.490474331642481 52.69999999999161
    vertex 8.554364770454221 14.364420541699499 52.69999999999161
  endloop
endfacet
facet normal 6.461283419383784e-07 -4.385297378171036e-08 0.9999999999997904
  outer loop
    vertex 8.554364770454221 14.364420541699499 52.69999999999161
    vertex 8.365996383902354 11.490474331642481 52.69999999999161
    vertex 15.00002584513368 -1.7541189608819364e-06 52.69999999999161
  endloop
endfacet
facet normal 6.461283419383784e-07 -4.385297378171036e-08 0.9999999999997904
  outer loop
    vertex 8.554364770454221 14.364420541699499 52.69999999999161
    vertex 15.00002584513368 -1.7541189608819364e-06 52.69999999999161
    vertex 8.826769683390665 14.1036495679958 52.69999999999161
  endloop
endfacet
facet normal 6.461283419383784e-07 -4.385297378171036e-08 0.9999999999997904
  outer loop
    vertex 8.826769683390665 14.1036495679958 52.69999999999161
    vertex 15.00002584513368 -1.7541189608819364e-06 52.69999999999161
    vertex 9.036276343335675 13.7901006934053 52.69999999999161
  endloop
endfacet
facet normal 6.461283419383784e-07 -4.385297378171036e-08 0.9999999999997904
  outer loop
    vertex 9.036276343335675 13.7901006934053 52.69999999999161
    vertex 15.00002584513368 -1.7541189608819364e-06 52.69999999999161
    vertex 16.499834604261967 0.8661340344838647 52.69999999999161
  endloop
endfacet
facet normal 6.461283419383784e-07 -4.385297378171036e-08 0.9999999999997904
  outer loop
    vertex 16.499834604261967 0.8661340344838647 52.69999999999161
    vertex 15.00002584513368 -1.7541189608819364e-06 52.69999999999161
    vertex 16.46078948684333 -0.9304785663472099 52.69994324362544
  endloop
endfacet
facet normal 6.461283419383784e-07 -4.385297378171036e-08 0.9999999999997904
  outer loop
    vertex 16.499834604261967 0.8661340344838647 52.69999999999161
    vertex 16.46078948684333 -0.9304785663472099 52.69994324362544
    vertex 16.62756104675693 -0.5922404588074603 52.699950983453455
  endloop
endfacet
facet normal 6.461283419383784e-07 -4.385297378171036e-08 0.9999999999997904
  outer loop
    vertex 16.499834604261967 0.8661340344838647 52.69999999999161
    vertex 16.62756104675693 -0.5922404588074603 52.699950983453455
    vertex 16.651754036644746 0.5209699336264897 52.69998615062118
  endloop
endfacet
facet normal 6.461283419383784e-07 -4.385297378171036e-08 0.9999999999997904
  outer loop
    vertex 16.651754036644746 0.5209699336264897 52.69998615062118
    vertex 16.62756104675693 -0.5922404588074603 52.699950983453455
    vertex 16.717167959305584 -0.22592314858282772 52.699961047252025
  endloop
endfacet
facet normal 6.461283419383784e-07 -4.385297378171036e-08 0.9999999999997904
  outer loop
    vertex 16.651754036644746 0.5209699336264897 52.69998615062118
    vertex 16.717167959305584 -0.22592314858282772 52.699961047252025
    vertex 16.725361784393254 0.15110553963142676 52.69997295787665
  endloop
endfacet
facet normal -0.8660112937002541 -0.5000244013358267 0.00019300870513532523
  outer loop
    vertex -16.499974154866326 -0.8660271579033788 52.69999999999161
    vertex -9.036250399739917 -13.790099808544447 50.000002178048724
    vertex -9.036224300821297 -13.7901040182751 52.70000094570068
  endloop
endfacet
facet normal -0.8660112937002541 -0.5000244013358267 0.00019300870513532523
  outer loop
    vertex -9.036250399739917 -13.790099808544447 50.000002178048724
    vertex -16.499974154866326 -0.8660271579033788 52.69999999999161
    vertex -16.500000000000004 -0.8660254037844275 50.00000000000001
  endloop
endfacet
facet normal 0.00010988296853072809 -0.9999999939618673 1.4137981235860466e-06
  outer loop
    vertex 7.424567715987001 -14.72068690498245 50.00002069712983
    vertex -7.499974154866333 -14.72232349130625 52.69999995894455
    vertex -7.500000253784952 -14.722319281575595 50.00000119129259
  endloop
endfacet
facet normal 0.00010988296853072809 -0.9999999939618673 1.4137981235860466e-06
  outer loop
    vertex -7.499974154866333 -14.72232349130625 52.69999995894455
    vertex 7.424567715987001 -14.72068690498245 50.00002069712983
    vertex 7.4245908263810785 -14.720679891527421 52.6999986926784
  endloop
endfacet
facet normal 0.866079530236175 -0.49990623839620013 1.0883387105835572e-05
  outer loop
    vertex 16.46088951960932 -0.9303937474294317 50.00030212000357
    vertex 9.000025820866972 -13.856187928754084 52.699997456676996
    vertex 9.000002710472895 -13.856194942209113 50.000019461128424
  endloop
endfacet
facet normal 0.866079530236175 -0.49990623839620013 1.0883387105835572e-05
  outer loop
    vertex 9.000025820866972 -13.856187928754084 52.699997456676996
    vertex 16.46088951960932 -0.9303937474294317 50.00030212000357
    vertex 16.46078948684333 -0.9304785663472099 52.69994324362544
  endloop
endfacet
facet normal 0.8659676753246629 0.5000999745174193 2.7936997282898463e-05
  outer loop
    vertex 16.499934637027955 0.866218853401643 50.000358876369745
    vertex 9.036276343335675 13.7901006934053 52.69999999999161
    vertex 16.499834604261967 0.8661340344838647 52.69999999999161
  endloop
endfacet
facet normal 0.8659676753246629 0.5000999745174193 2.7936997282898463e-05
  outer loop
    vertex 9.036276343335675 13.7901006934053 52.69999999999161
    vertex 16.499934637027955 0.866218853401643 50.000358876369745
    vertex 9.036250498202 13.79010244752425 50.005605
  endloop
endfacet
facet normal -0.00010973003085346504 0.9999999939796602 -8.714266926178918e-21
  outer loop
    vertex -7.424532164713628 14.720682707964238 52.69999999999161
    vertex 7.499999999999997 14.722322134303944 50.005605
    vertex -7.4245580098473045 14.72068446208319 50.00087299999999
  endloop
endfacet
facet normal -0.00010973003085346504 0.9999999939796602 -8.714266926178918e-21
  outer loop
    vertex 7.499999999999997 14.722322134303944 50.005605
    vertex -7.424532164713628 14.720682707964238 52.69999999999161
    vertex 7.500025845133674 14.722320380184993 52.69999999999161
  endloop
endfacet
facet normal -0.8660771600735768 0.4999103447608263 -7.529884442602175e-17
  outer loop
    vertex -8.99997413343277 13.856197662714628 52.69999999999161
    vertex -16.460796834816893 0.9306302205435681 50.00000000000001
    vertex -16.460770989683216 0.9306284664246168 52.69999999999161
  endloop
endfacet
facet normal -0.8660771600735768 0.4999103447608263 -7.529884442602175e-17
  outer loop
    vertex -16.460796834816893 0.9306302205435681 50.00000000000001
    vertex -8.99997413343277 13.856197662714628 52.69999999999161
    vertex -8.999999978566448 13.85619941683358 50.00087299999999
  endloop
endfacet
facet normal -0.8968727415326871 0.44228869021900385 0.0
  outer loop
    vertex -16.460770989683216 0.9306284664246168 52.69999999999161
    vertex -16.62759536269875 0.5923962654520585 50.00000000000001
    vertex -16.62756951756507 0.5923945113331072 52.69999999999161
  endloop
endfacet
facet normal -0.8968727415326871 0.44228869021900385 0.0
  outer loop
    vertex -16.62759536269875 0.5923962654520585 50.00000000000001
    vertex -16.460770989683216 0.9306284664246168 52.69999999999161
    vertex -16.460796834816893 0.9306302205435681 50.00000000000001
  endloop
endfacet
facet normal -0.9153114791194487 -0.4027466898587338 -6.86455470311037e-33
  outer loop
    vertex -16.651860369601916 -0.520839476990961 52.69999999999161
    vertex -16.500000000000004 -0.8660254037844275 50.00000000000001
    vertex -16.499974154866326 -0.8660271579033788 52.69999999999161
  endloop
endfacet
facet normal -0.9153114791194487 -0.4027466898587338 -6.86455470311037e-33
  outer loop
    vertex -16.500000000000004 -0.8660254037844275 50.00000000000001
    vertex -16.651860369601916 -0.520839476990961 52.69999999999161
    vertex -16.651886214735597 -0.5208377228720097 50.00000000000001
  endloop
endfacet
facet normal -0.9807852804032302 -0.19509032201613033 -0.0
  outer loop
    vertex -16.725433986191966 -0.15095992872928649 52.69999999999161
    vertex -16.651886214735597 -0.5208377228720097 50.00000000000001
    vertex -16.651860369601916 -0.520839476990961 52.69999999999161
  endloop
endfacet
facet normal -0.9807852804032302 -0.19509032201613033 -0.0
  outer loop
    vertex -16.651886214735597 -0.5208377228720097 50.00000000000001
    vertex -16.725433986191966 -0.15095992872928649 52.69999999999161
    vertex -16.725459831325644 -0.15095817461033523 50.00000000000001
  endloop
endfacet
facet normal -0.999762027079909 0.021814885034563962 -0.0
  outer loop
    vertex -16.717207027668845 0.2260762425246907 52.69999999999161
    vertex -16.725459831325644 -0.15095817461033523 50.00000000000001
    vertex -16.725433986191966 -0.15095992872928649 52.69999999999161
  endloop
endfacet
facet normal -0.999762027079909 0.021814885034563962 -0.0
  outer loop
    vertex -16.725459831325644 -0.15095817461033523 50.00000000000001
    vertex -16.717207027668845 0.2260762425246907 52.69999999999161
    vertex -16.717232872802523 0.22607799664364198 50.00000000000001
  endloop
endfacet
facet normal -0.9713420698132611 0.23768589232617457 -0.0
  outer loop
    vertex -16.62756951756507 0.5923945113331072 52.69999999999161
    vertex -16.717232872802523 0.22607799664364198 50.00000000000001
    vertex -16.717207027668845 0.2260762425246907 52.69999999999161
  endloop
endfacet
facet normal -0.9713420698132611 0.23768589232617457 -0.0
  outer loop
    vertex -16.717232872802523 0.22607799664364198 50.00000000000001
    vertex -16.62756951756507 0.5923945113331072 52.69999999999161
    vertex -16.62759536269875 0.5923962654520585 50.00000000000001
  endloop
endfacet
facet normal -0.06546769172520431 0.997854689491498 1.0892023166526673e-30
  outer loop
    vertex -7.800841356195486 14.695993648123421 52.69999999999161
    vertex -7.4245580098473045 14.72068446208319 50.00087299999999
    vertex -7.8008672013291624 14.695995402242373 50.00087299999999
  endloop
endfacet
facet normal -0.06546769172520431 0.997854689491498 1.0892023166526673e-30
  outer loop
    vertex -7.4245580098473045 14.72068446208319 50.00087299999999
    vertex -7.800841356195486 14.695993648123421 52.69999999999161
    vertex -7.424532164713628 14.720682707964238 52.69999999999161
  endloop
endfacet
facet normal -0.8065032632116298 0.5912296393356754 -8.803338120560365e-31
  outer loop
    vertex -8.777010659991667 14.160344743549922 52.69999999999161
    vertex -8.999999978566448 13.85619941683358 50.00087299999999
    vertex -8.99997413343277 13.856197662714628 52.69999999999161
  endloop
endfacet
facet normal -0.8065032632116298 0.5912296393356754 -8.803338120560365e-31
  outer loop
    vertex -8.999999978566448 13.85619941683358 50.00087299999999
    vertex -8.777010659991667 14.160344743549922 52.69999999999161
    vertex -8.777036505125345 14.160346497668874 50.00087299999999
  endloop
endfacet
facet normal -0.6594139152680247 0.751780079777919 -0.0
  outer loop
    vertex -8.777010659991667 14.160344743549922 52.69999999999161
    vertex -8.493526534212082 14.409023504370971 50.00087299999999
    vertex -8.777036505125345 14.160346497668874 50.00087299999999
  endloop
endfacet
facet normal -0.6594139152680247 0.751780079777919 -0.0
  outer loop
    vertex -8.493526534212082 14.409023504370971 50.00087299999999
    vertex -8.777010659991667 14.160344743549922 52.69999999999161
    vertex -8.493500689078406 14.409021750252021 52.69999999999161
  endloop
endfacet
facet normal -0.4810606192746655 0.8766873334222842 -0.0
  outer loop
    vertex -8.493500689078406 14.409021750252021 52.69999999999161
    vertex -8.16291176124284 14.590440232276777 50.00087299999999
    vertex -8.493526534212082 14.409023504370971 50.00087299999999
  endloop
endfacet
facet normal -0.4810606192746655 0.8766873334222842 -0.0
  outer loop
    vertex -8.16291176124284 14.590440232276777 50.00087299999999
    vertex -8.493500689078406 14.409021750252021 52.69999999999161
    vertex -8.162885916109163 14.590438478157827 52.69999999999161
  endloop
endfacet
facet normal -0.27989941179876615 0.9600293325074526 -0.0
  outer loop
    vertex -8.162885916109163 14.590438478157827 52.69999999999161
    vertex -7.8008672013291624 14.695995402242373 50.00087299999999
    vertex -8.16291176124284 14.590440232276777 50.00087299999999
  endloop
endfacet
facet normal -0.27989941179876615 0.9600293325074526 -0.0
  outer loop
    vertex -7.8008672013291624 14.695995402242373 50.00087299999999
    vertex -8.162885916109163 14.590438478157827 52.69999999999161
    vertex -7.800841356195486 14.695993648123421 52.69999999999161
  endloop
endfacet
facet normal 0.8314696123025449 0.5555702330196027 -3.0428065184956335e-31
  outer loop
    vertex 9.036250498202 13.79010244752425 50.005605
    vertex 8.826769683390665 14.1036495679958 52.69999999999161
    vertex 9.036276343335675 13.7901006934053 52.69999999999161
  endloop
endfacet
facet normal 0.8314696123025449 0.5555702330196027 -3.0428065184956335e-31
  outer loop
    vertex 8.826769683390665 14.1036495679958 52.69999999999161
    vertex 9.036250498202 13.79010244752425 50.005605
    vertex 8.82674383825699 14.103651322114752 50.005605
  endloop
endfacet
facet normal 0.10886687485196425 0.9940563382223196 5.244703475512425e-19
  outer loop
    vertex 7.500025845133674 14.722320380184993 52.69999999999161
    vertex 7.8748606581857254 14.681268215333303 50.005605
    vertex 7.499999999999997 14.722322134303944 50.005605
  endloop
endfacet
facet normal 0.10886687485196425 0.9940563382223196 5.244703475512425e-19
  outer loop
    vertex 7.8748606581857254 14.681268215333303 50.005605
    vertex 7.500025845133674 14.722320380184993 52.69999999999161
    vertex 7.874886503319402 14.681266461214353 52.69999999999161
  endloop
endfacet
facet normal 0.32143946530315964 0.9469301294951062 0.0
  outer loop
    vertex 7.874886503319402 14.681266461214353 52.69999999999161
    vertex 8.23194992762615 14.56005274202734 50.005605
    vertex 7.8748606581857254 14.681268215333303 50.005605
  endloop
endfacet
facet normal 0.32143946530315964 0.9469301294951062 0.0
  outer loop
    vertex 8.23194992762615 14.56005274202734 50.005605
    vertex 7.874886503319402 14.681266461214353 52.69999999999161
    vertex 8.231975772759828 14.56005098790839 52.69999999999161
  endloop
endfacet
facet normal 0.5187732581605239 0.8549118706729453 0.0
  outer loop
    vertex 8.231975772759828 14.56005098790839 52.69999999999161
    vertex 8.554338925320545 14.364422295818448 50.005605
    vertex 8.23194992762615 14.56005274202734 50.005605
  endloop
endfacet
facet normal 0.5187732581605239 0.8549118706729453 0.0
  outer loop
    vertex 8.554338925320545 14.364422295818448 50.005605
    vertex 8.231975772759828 14.56005098790839 52.69999999999161
    vertex 8.554364770454221 14.364420541699499 52.69999999999161
  endloop
endfacet
facet normal 0.6915130557822687 0.7223639620597563 0.0
  outer loop
    vertex 8.554364770454221 14.364420541699499 52.69999999999161
    vertex 8.82674383825699 14.103651322114752 50.005605
    vertex 8.554338925320545 14.364422295818448 50.005605
  endloop
endfacet
facet normal 0.6915130557822687 0.7223639620597563 0.0
  outer loop
    vertex 8.82674383825699 14.103651322114752 50.005605
    vertex 8.554364770454221 14.364420541699499 52.69999999999161
    vertex 8.826769683390665 14.1036495679958 52.69999999999161
  endloop
endfacet
facet normal 0.896903259394576 -0.44222679983394736 2.821368279913439e-05
  outer loop
    vertex 16.46088951960932 -0.9303937474294317 50.00030212000357
    vertex 16.62756104675693 -0.5922404588074603 52.699950983453455
    vertex 16.46078948684333 -0.9304785663472099 52.69994324362544
  endloop
endfacet
facet normal 0.896903259394576 -0.44222679983394736 2.821368279913439e-05
  outer loop
    vertex 16.62756104675693 -0.5922404588074603 52.699950983453455
    vertex 16.46088951960932 -0.9303937474294317 50.00030212000357
    vertex 16.62766107952292 -0.5921556398896822 50.00030985983159
  endloop
endfacet
facet normal 0.9152688604428468 0.40284353050625504 5.507185281133284e-05
  outer loop
    vertex 16.651854069410735 0.5210547525442678 50.000345026999305
    vertex 16.499834604261967 0.8661340344838647 52.69999999999161
    vertex 16.651754036644746 0.5209699336264897 52.69998615062118
  endloop
endfacet
facet normal 0.9152688604428468 0.40284353050625504 5.507185281133284e-05
  outer loop
    vertex 16.499834604261967 0.8661340344838647 52.69999999999161
    vertex 16.651854069410735 0.5210547525442678 50.000345026999305
    vertex 16.499934637027955 0.866218853401643 50.000358876369745
  endloop
endfacet
facet normal 0.9807664279950274 0.19518506869434318 5.1736442024413166e-05
  outer loop
    vertex 16.725461817159246 0.15119035854920504 50.00033183425479
    vertex 16.651754036644746 0.5209699336264897 52.69998615062118
    vertex 16.725361784393254 0.15110553963142676 52.69997295787665
  endloop
endfacet
facet normal 0.9807664279950274 0.19518506869434318 5.1736442024413166e-05
  outer loop
    vertex 16.651754036644746 0.5209699336264897 52.69998615062118
    vertex 16.725461817159246 0.15119035854920504 50.00033183425479
    vertex 16.651854069410735 0.5210547525442678 50.000345026999305
  endloop
endfacet
facet normal 0.9997639289234391 -0.021727501290769526 4.594810470194376e-05
  outer loop
    vertex 16.717267992071573 -0.22583832966504944 50.00031992363016
    vertex 16.725361784393254 0.15110553963142676 52.69997295787665
    vertex 16.717167959305584 -0.22592314858282772 52.699961047252025
  endloop
endfacet
facet normal 0.9997639289234391 -0.021727501290769526 4.594810470194376e-05
  outer loop
    vertex 16.725361784393254 0.15110553963142676 52.69997295787665
    vertex 16.717267992071573 -0.22583832966504944 50.00031992363016
    vertex 16.725461817159246 0.15119035854920504 50.00033183425479
  endloop
endfacet
facet normal 0.9713606543533418 -0.23760992767910705 3.798127730769495e-05
  outer loop
    vertex 16.62766107952292 -0.5921556398896822 50.00030985983159
    vertex 16.717167959305584 -0.22592314858282772 52.699961047252025
    vertex 16.62756104675693 -0.5922404588074603 52.699950983453455
  endloop
endfacet
facet normal 0.9713606543533418 -0.23760992767910705 3.798127730769495e-05
  outer loop
    vertex 16.717167959305584 -0.22592314858282772 52.699961047252025
    vertex 16.62766107952292 -0.5921556398896822 50.00030985983159
    vertex 16.717267992071573 -0.22583832966504944 50.00031992363016
  endloop
endfacet
facet normal 0.0654718210374578 -0.9978544185596941 3.306623547552605e-06
  outer loop
    vertex 7.800899424718661 -14.695989306663034 52.69999825035049
    vertex 7.424567715987001 -14.72068690498245 50.00002069712983
    vertex 7.800876314324585 -14.695996320118063 50.000020254801925
  endloop
endfacet
facet normal 0.0654718210374578 -0.9978544185596941 3.306623547552605e-06
  outer loop
    vertex 7.424567715987001 -14.72068690498245 50.00002069712983
    vertex 7.800899424718661 -14.695989306663034 52.69999825035049
    vertex 7.4245908263810785 -14.720679891527421 52.6999986926784
  endloop
endfacet
facet normal 0.8065070146741505 -0.5912245218814082 2.736759861044056e-06
  outer loop
    vertex 9.000002710472895 -13.856194942209113 50.000019461128424
    vertex 8.777064568209589 -14.160336027510903 52.699997484503925
    vertex 8.77704145781551 -14.160343040965932 50.00001948895535
  endloop
endfacet
facet normal 0.8065070146741505 -0.5912245218814082 2.736759861044056e-06
  outer loop
    vertex 8.777064568209589 -14.160336027510903 52.699997484503925
    vertex 9.000002710472895 -13.856194942209113 50.000019461128424
    vertex 9.000025820866972 -13.856187928754084 52.699997456676996
  endloop
endfacet
facet normal 0.6594182706634497 -0.7517762594718982 3.109133200981469e-06
  outer loop
    vertex 8.777064568209589 -14.160336027510903 52.699997484503925
    vertex 8.493533297503005 -14.409021365715267 50.00001963604648
    vertex 8.77704145781551 -14.160343040965932 50.00001948895535
  endloop
endfacet
facet normal 0.6594182706634497 -0.7517762594718982 3.109133200981469e-06
  outer loop
    vertex 8.493533297503005 -14.409021365715267 50.00001963604648
    vertex 8.777064568209589 -14.160336027510903 52.699997484503925
    vertex 8.493556407897081 -14.409014352260236 52.699997631595046
  endloop
endfacet
facet normal 0.48106521460223495 -0.876684811827255 3.3340964448874692e-06
  outer loop
    vertex 8.493556407897081 -14.409014352260236 52.699997631595046
    vertex 8.162919906824975 -14.590439589905253 50.00001989542793
    vertex 8.493533297503005 -14.409021365715267 50.00001963604648
  endloop
endfacet
facet normal 0.48106521460223495 -0.876684811827255 3.3340964448874692e-06
  outer loop
    vertex 8.162919906824975 -14.590439589905253 50.00001989542793
    vertex 8.493556407897081 -14.409014352260236 52.699997631595046
    vertex 8.162943017219053 -14.590432576450224 52.699997890976505
  endloop
endfacet
facet normal 0.2799039142821135 -0.9600280197775399 3.4009836446532548e-06
  outer loop
    vertex 8.162943017219053 -14.590432576450224 52.699997890976505
    vertex 7.800876314324585 -14.695996320118063 50.000020254801925
    vertex 8.162919906824975 -14.590439589905253 50.00001989542793
  endloop
endfacet
facet normal 0.2799039142821135 -0.9600280197775399 3.4009836446532548e-06
  outer loop
    vertex 7.800876314324585 -14.695996320118063 50.000020254801925
    vertex 8.162943017219053 -14.590432576450224 52.699997890976505
    vertex 7.800899424718661 -14.695989306663034 52.69999825035049
  endloop
endfacet
facet normal -0.10886687485249234 -0.9940563382218599 -8.938476712632602e-07
  outer loop
    vertex -7.499974154866333 -14.72232349130625 52.69999995894455
    vertex -7.874860826018846 -14.681265372018206 50.00000142765297
    vertex -7.500000253784952 -14.722319281575595 50.00000119129259
  endloop
endfacet
facet normal -0.10886687485249234 -0.9940563382218599 -8.938476712632602e-07
  outer loop
    vertex -7.874860826018846 -14.681265372018206 50.00000142765297
    vertex -7.499974154866333 -14.72232349130625 52.69999995894455
    vertex -7.874834727100228 -14.681269581748861 52.70000019530494
  endloop
endfacet
facet normal -0.3214394653035812 -0.9469301294945988 -8.310063860614676e-07
  outer loop
    vertex -7.874834727100228 -14.681269581748861 52.70000019530494
    vertex -8.23195001358224 -14.560049926505725 50.000001654753945
    vertex -7.874860826018846 -14.681265372018206 50.00000142765297
  endloop
endfacet
facet normal -0.3214394653035812 -0.9469301294945988 -8.310063860614676e-07
  outer loop
    vertex -8.23195001358224 -14.560049926505725 50.000001654753945
    vertex -7.874834727100228 -14.681269581748861 52.70000019530494
    vertex -8.231923914663621 -14.56005413623638 52.70000042240591
  endloop
endfacet
facet normal -0.5187732581608068 -0.8549118706724629 -7.287687619427357e-07
  outer loop
    vertex -8.231923914663621 -14.56005413623638 52.70000042240591
    vertex -8.554338937356027 -14.364419525152918 50.00000186182911
    vertex -8.23195001358224 -14.560049926505725 50.000001654753945
  endloop
endfacet
facet normal -0.5187732581608068 -0.8549118706724629 -7.287687619427357e-07
  outer loop
    vertex -8.554338937356027 -14.364419525152918 50.00000186182911
    vertex -8.231923914663621 -14.56005413623638 52.70000042240591
    vertex -8.554312838437408 -14.364423734883573 52.70000062948107
  endloop
endfacet
facet normal -0.6915130557824364 -0.7223639620593533 -5.919816770917824e-07
  outer loop
    vertex -8.554312838437408 -14.364423734883573 52.70000062948107
    vertex -8.826743787832717 -14.103648611241365 50.00000203906144
    vertex -8.554338937356027 -14.364419525152918 50.00000186182911
  endloop
endfacet
facet normal -0.6915130557824364 -0.7223639620593533 -5.919816770917824e-07
  outer loop
    vertex -8.826743787832717 -14.103648611241365 50.00000203906144
    vertex -8.554312838437408 -14.364423734883573 52.70000062948107
    vertex -8.826717688914098 -14.10365282097202 52.7000008067134
  endloop
endfacet
facet normal -0.8314696123026235 -0.555570233019321 -4.271299352870027e-07
  outer loop
    vertex -9.036224300821297 -13.7901040182751 52.70000094570068
    vertex -8.826743787832717 -14.103648611241365 50.00000203906144
    vertex -8.826717688914098 -14.10365282097202 52.7000008067134
  endloop
endfacet
facet normal -0.8314696123026235 -0.555570233019321 -4.271299352870027e-07
  outer loop
    vertex -8.826743787832717 -14.103648611241365 50.00000203906144
    vertex -9.036224300821297 -13.7901040182751 52.70000094570068
    vertex -9.036250399739917 -13.790099808544447 50.000002178048724
  endloop
endfacet
facet normal 0.8653558223111707 -0.4996134169561645 -0.03931582874038665
  outer loop
    vertex -17.258 2.1134954459685017e-15 3.0
    vertex -14.133948751081883 1.4999982458810572 52.69999999999161
    vertex -14.999974154866322 -1.7541189434918626e-06 52.69999999999161
  endloop
endfacet
facet normal 0.8653558223111707 -0.4996134169561645 -0.03931582874038665
  outer loop
    vertex -14.133948751081883 1.4999982458810572 52.69999999999161
    vertex -17.258 2.1134954459685017e-15 3.0
    vertex -8.628999999999994 14.94586641851184 3.0
  endloop
endfacet
facet normal 0.8653558223111707 -0.4996134169561645 -0.03931582874038665
  outer loop
    vertex -14.133948751081883 1.4999982458810572 52.69999999999161
    vertex -8.628999999999994 14.94586641851184 3.0
    vertex -7.499974154866322 12.99037930264763 52.69999999999161
  endloop
endfacet
facet normal 1.0299375029519795e-17 -0.9992268508981303 -0.03931539703736801
  outer loop
    vertex 7.500025845133674 12.99037930264763 52.69999999999161
    vertex -8.628999999999994 14.94586641851184 3.0
    vertex 8.629 14.94586641851184 3.0
  endloop
endfacet
facet normal 1.0299375029519795e-17 -0.9992268508981303 -0.03931539703736801
  outer loop
    vertex -8.628999999999994 14.94586641851184 3.0
    vertex 7.500025845133674 12.99037930264763 52.69999999999161
    vertex -7.499974154866322 12.99037930264763 52.69999999999161
  endloop
endfacet
facet normal 1.0299375029519795e-17 -0.9992268508981303 -0.03931539703736801
  outer loop
    vertex -7.499974154866322 12.99037930264763 52.69999999999161
    vertex 7.500025845133674 12.99037930264763 52.69999999999161
    vertex -5.76802687843772 12.99037930264763 52.69999999999161
  endloop
endfacet
facet normal -0.8653558529311094 -0.4996134346345942 -0.03931493012198133
  outer loop
    vertex 8.365996383902354 11.490474331642481 52.69999999999161
    vertex 17.258 0.0 3.0
    vertex 15.00002584513368 -1.7541189608819364e-06 52.69999999999161
  endloop
endfacet
facet normal -0.8653558529311094 -0.4996134346345942 -0.03931493012198133
  outer loop
    vertex 17.258 0.0 3.0
    vertex 8.365996383902354 11.490474331642481 52.69999999999161
    vertex 8.629 14.94586641851184 3.0
  endloop
endfacet
facet normal -0.8653558529311094 -0.4996134346345942 -0.03931493012198133
  outer loop
    vertex 8.629 14.94586641851184 3.0
    vertex 8.365996383902354 11.490474331642481 52.69999999999161
    vertex 7.500025845133674 12.99037930264763 52.69999999999161
  endloop
endfacet
facet normal -0.8653558623137545 0.49961342054920815 -0.03931490259861767
  outer loop
    vertex 7.5000258451336705 -12.990382810885535 52.69999999999161
    vertex 17.258 0.0 3.0
    vertex 8.628999999999987 -14.945866418511846 3.0
  endloop
endfacet
facet normal -0.8653558623137545 0.49961342054920815 -0.03931490259861767
  outer loop
    vertex 17.258 0.0 3.0
    vertex 7.5000258451336705 -12.990382810885535 52.69999999999161
    vertex 14.134055660062367 -1.4999061363383774 52.699968013824
  endloop
endfacet
facet normal -0.8653558623137545 0.49961342054920815 -0.03931490259861767
  outer loop
    vertex 17.258 0.0 3.0
    vertex 14.134055660062367 -1.4999061363383774 52.699968013824
    vertex 15.00002584513368 -1.7541189608819364e-06 52.69999999999161
  endloop
endfacet
facet normal 0.8653558236702289 0.4996134173842164 -0.03931579338745187
  outer loop
    vertex -17.258 2.1134954459685017e-15 3.0
    vertex -7.4999741548663295 -12.990382810885526 52.69999999999161
    vertex -8.629000000000007 -14.945866418511836 3.0
  endloop
endfacet
facet normal 0.8653558236702289 0.4996134173842164 -0.03931579338745187
  outer loop
    vertex -7.4999741548663295 -12.990382810885526 52.69999999999161
    vertex -17.258 2.1134954459685017e-15 3.0
    vertex -8.365944495076388 -11.490478183793412 52.70000057931095
  endloop
endfacet
facet normal 0.8653558236702289 0.4996134173842164 -0.03931579338745187
  outer loop
    vertex -8.365944495076388 -11.490478183793412 52.70000057931095
    vertex -17.258 2.1134954459685017e-15 3.0
    vertex -14.999974154866322 -1.7541189434918626e-06 52.69999999999161
  endloop
endfacet
facet normal 1.134276248278151e-09 0.9992268536893619 -0.03931532609630112
  outer loop
    vertex -7.4999741548663295 -12.990382810885526 52.69999999999161
    vertex 8.628999999999987 -14.945866418511846 3.0
    vertex -8.629000000000007 -14.945866418511836 3.0
  endloop
endfacet
facet normal 1.134276248278151e-09 0.9992268536893619 -0.03931532609630112
  outer loop
    vertex 8.628999999999987 -14.945866418511846 3.0
    vertex -7.4999741548663295 -12.990382810885526 52.69999999999161
    vertex 7.5000258451336705 -12.990382810885535 52.69999999999161
  endloop
endfacet
facet normal 1.134276248278151e-09 0.9992268536893619 -0.03931532609630112
  outer loop
    vertex 7.5000258451336705 -12.990382810885535 52.69999999999161
    vertex -7.4999741548663295 -12.990382810885526 52.69999999999161
    vertex 5.768085191032261 -12.990382810886759 52.70000212772671
  endloop
endfacet
facet normal -0.8660254037844386 0.5000000000000002 0.0
  outer loop
    vertex -13.199999999999992 22.863070659909177 50.0
    vertex -26.399999999999995 3.233067549749012e-15 0.0
    vertex -26.399999999999995 3.233067549749012e-15 50.0
  endloop
endfacet
facet normal -0.8660254037844386 0.5000000000000002 0.0
  outer loop
    vertex -26.399999999999995 3.233067549749012e-15 0.0
    vertex -13.199999999999992 22.863070659909177 50.0
    vertex -13.199999999999992 22.863070659909177 0.0
  endloop
endfacet
facet normal 0.0 0.0 -1.0
  outer loop
    vertex -13.199999999999992 22.863070659909177 0.0
    vertex -18.990050807568878 5.639932965095795e-15 0.0
    vertex -26.399999999999995 3.233067549749012e-15 0.0
  endloop
endfacet
facet normal 0.0 0.0 -1.0
  outer loop
    vertex -18.990050807568878 5.639932965095795e-15 0.0
    vertex -13.199999999999992 22.863070659909177 0.0
    vertex -9.495025403784437 16.445866418511844 0.0
  endloop
endfacet
facet normal 0.0 0.0 -1.0
  outer loop
    vertex -9.495025403784437 16.445866418511844 0.0
    vertex -13.199999999999992 22.863070659909177 0.0
    vertex 8.629 22.863070659909177 0.0
  endloop
endfacet
facet normal 0.0 0.0 -1.0
  outer loop
    vertex -9.495025403784437 16.445866418511844 0.0
    vertex 8.629 22.863070659909177 0.0
    vertex 9.495025403784439 16.44586641851184 0.0
  endloop
endfacet
facet normal 0.0 0.0 -1.0
  outer loop
    vertex 9.495025403784439 16.44586641851184 0.0
    vertex 8.629 22.863070659909177 0.0
    vertex 13.200000000000001 22.863070659909177 0.0
  endloop
endfacet
facet normal 0.0 0.0 -1.0
  outer loop
    vertex 9.495025403784439 16.44586641851184 0.0
    vertex 13.200000000000001 22.863070659909177 0.0
    vertex 18.990050807568878 -1.4099832412739488e-14 0.0
  endloop
endfacet
facet normal 0.0 0.0 -1.0
  outer loop
    vertex 18.990050807568878 -1.4099832412739488e-14 0.0
    vertex 13.200000000000001 22.863070659909177 0.0
    vertex 26.399999999999995 0.0 0.0
  endloop
endfacet
facet normal 0.0 0.0 -1.0
  outer loop
    vertex -18.990050807568878 5.639932965095795e-15 0.0
    vertex -13.20000000000001 -22.86307065990917 0.0
    vertex -26.399999999999995 3.233067549749012e-15 0.0
  endloop
endfacet
facet normal 0.0 0.0 -1.0
  outer loop
    vertex -13.20000000000001 -22.86307065990917 0.0
    vertex -18.990050807568878 5.639932965095795e-15 0.0
    vertex -9.495025403784439 -16.44586641851184 0.0
  endloop
endfacet
facet normal 0.0 0.0 -1.0
  outer loop
    vertex -13.20000000000001 -22.86307065990917 0.0
    vertex -9.495025403784439 -16.44586641851184 0.0
    vertex 13.199999999999978 -22.863070659909187 0.0
  endloop
endfacet
facet normal 0.0 0.0 -1.0
  outer loop
    vertex 13.199999999999978 -22.863070659909187 0.0
    vertex -9.495025403784439 -16.44586641851184 0.0
    vertex 9.495025403784428 -16.445866418511844 0.0
  endloop
endfacet
facet normal 0.0 0.0 -1.0
  outer loop
    vertex 13.199999999999978 -22.863070659909187 0.0
    vertex 9.495025403784428 -16.445866418511844 0.0
    vertex 18.990050807568878 -1.4099832412739488e-14 0.0
  endloop
endfacet
facet normal 0.0 0.0 -1.0
  outer loop
    vertex 13.199999999999978 -22.863070659909187 0.0
    vertex 18.990050807568878 -1.4099832412739488e-14 0.0
    vertex 26.399999999999995 0.0 0.0
  endloop
endfacet
facet normal 1.068169122177234e-16 1.0 0.0
  outer loop
    vertex -13.199999999999992 22.863070659909177 50.0
    vertex 8.629 22.863070659909177 0.0
    vertex -13.199999999999992 22.863070659909177 0.0
  endloop
endfacet
facet normal 1.068169122177234e-16 1.0 0.0
  outer loop
    vertex 8.629 22.863070659909177 0.0
    vertex -13.199999999999992 22.863070659909177 50.0
    vertex 13.200000000000001 22.863070659909177 0.0
  endloop
endfacet
facet normal 1.068169122177234e-16 1.0 0.0
  outer loop
    vertex 13.200000000000001 22.863070659909177 0.0
    vertex -13.199999999999992 22.863070659909177 50.0
    vertex 13.200000000000001 22.863070659909177 50.0
  endloop
endfacet
facet normal 0.8660254037844389 0.49999999999999983 7.949002941344883e-16
  outer loop
    vertex -17.258 4.229949723821846e-15 1.4999999999999996
    vertex -8.629000000000007 -14.945866418511836 3.0
    vertex -8.629000000000001 -14.94586641851184 1.4999999999999996
  endloop
endfacet
facet normal 0.8660254037844389 0.49999999999999983 7.949002941344883e-16
  outer loop
    vertex -8.629000000000007 -14.945866418511836 3.0
    vertex -17.258 4.229949723821846e-15 1.4999999999999996
    vertex -17.258 2.1134954459685017e-15 3.0
  endloop
endfacet
facet normal -8.170026893463605e-17 -1.0 -9.399888275159653e-16
  outer loop
    vertex 8.629 14.94586641851184 3.0
    vertex -8.629 14.945866418511843 1.4999999999999996
    vertex 8.629 14.94586641851184 1.4999999999999996
  endloop
endfacet
facet normal -8.170026893463605e-17 -1.0 -9.399888275159653e-16
  outer loop
    vertex -8.629 14.945866418511843 1.4999999999999996
    vertex 8.629 14.94586641851184 3.0
    vertex -8.628999999999994 14.94586641851184 3.0
  endloop
endfacet
facet normal 0.8660254037844387 -0.5000000000000002 -2.2871325578160832e-15
  outer loop
    vertex -17.258 4.229949723821846e-15 1.4999999999999996
    vertex -8.628999999999994 14.94586641851184 3.0
    vertex -17.258 2.1134954459685017e-15 3.0
  endloop
endfacet
facet normal 0.8660254037844387 -0.5000000000000002 -2.2871325578160832e-15
  outer loop
    vertex -8.628999999999994 14.94586641851184 3.0
    vertex -17.258 4.229949723821846e-15 1.4999999999999996
    vertex -8.629 14.945866418511843 1.4999999999999996
  endloop
endfacet
facet normal 4.902016136078164e-16 1.0 -1.8799776550319294e-15
  outer loop
    vertex -8.629000000000007 -14.945866418511836 3.0
    vertex 8.62899999999999 -14.945866418511846 1.4999999999999996
    vertex -8.629000000000001 -14.94586641851184 1.4999999999999996
  endloop
endfacet
facet normal 4.902016136078164e-16 1.0 -1.8799776550319294e-15
  outer loop
    vertex 8.62899999999999 -14.945866418511846 1.4999999999999996
    vertex -8.629000000000007 -14.945866418511836 3.0
    vertex 8.628999999999987 -14.945866418511846 3.0
  endloop
endfacet
facet normal -0.8660254037844389 -0.49999999999999983 2.7024389475851603e-15
  outer loop
    vertex 17.258 0.0 3.0
    vertex 8.629 14.94586641851184 1.4999999999999996
    vertex 17.258 -1.4099832412739488e-14 1.4999999999999996
  endloop
endfacet
facet normal -0.8660254037844389 -0.49999999999999983 2.7024389475851603e-15
  outer loop
    vertex 8.629 14.94586641851184 1.4999999999999996
    vertex 17.258 0.0 3.0
    vertex 8.629 14.94586641851184 3.0
  endloop
endfacet
facet normal -0.8660254037844384 0.5000000000000004 -3.779364821497678e-15
  outer loop
    vertex 17.258 0.0 3.0
    vertex 8.62899999999999 -14.945866418511846 1.4999999999999996
    vertex 8.628999999999987 -14.945866418511846 3.0
  endloop
endfacet
facet normal -0.8660254037844384 0.5000000000000004 -3.779364821497678e-15
  outer loop
    vertex 8.62899999999999 -14.945866418511846 1.4999999999999996
    vertex 17.258 0.0 3.0
    vertex 17.258 -1.4099832412739488e-14 1.4999999999999996
  endloop
endfacet
facet normal -1.962355414645429e-17 -0.13052619222005124 -0.9914448613738105
  outer loop
    vertex 9.495025403784439 16.44586641851184 0.0
    vertex -9.270881535742424 16.05763785085806 0.051111260566397455
    vertex -9.495025403784437 16.445866418511844 0.0
  endloop
endfacet
facet normal -1.962355414645429e-17 -0.13052619222005124 -0.9914448613738105
  outer loop
    vertex -9.270881535742424 16.05763785085806 0.051111260566397455
    vertex 9.495025403784439 16.44586641851184 0.0
    vertex 9.270881535742426 16.057637850858058 0.051111260566397455
  endloop
endfacet
facet normal -5.866354885934443e-17 -0.3826834323650911 -0.9238795325112863
  outer loop
    vertex 9.270881535742426 16.057637850858058 0.051111260566397455
    vertex -9.062012701892217 15.695866418511844 0.20096189432334186
    vertex -9.270881535742424 16.05763785085806 0.051111260566397455
  endloop
endfacet
facet normal -5.866354885934443e-17 -0.3826834323650911 -0.9238795325112863
  outer loop
    vertex -9.062012701892217 15.695866418511844 0.20096189432334186
    vertex 9.270881535742426 16.057637850858058 0.051111260566397455
    vertex 9.062012701892222 15.695866418511843 0.20096189432334186
  endloop
endfacet
facet normal -9.573925749118484e-17 -0.6087614290087193 -0.7933533402912364
  outer loop
    vertex 9.062012701892222 15.695866418511843 0.20096189432334186
    vertex -8.882652968088642 15.385206246732022 0.4393398282201786
    vertex -9.062012701892217 15.695866418511844 0.20096189432334186
  endloop
endfacet
facet normal -9.573925749118484e-17 -0.6087614290087193 -0.7933533402912364
  outer loop
    vertex -8.882652968088642 15.385206246732022 0.4393398282201786
    vertex 9.062012701892222 15.695866418511843 0.20096189432334186
    vertex 8.882652968088644 15.38520624673202 0.4393398282201786
  endloop
endfacet
facet normal -1.267928560376731e-16 -0.7933533402912338 -0.6087614290087223
  outer loop
    vertex 8.745025403784439 15.146828312835181 0.7499999999999998
    vertex -8.882652968088642 15.385206246732022 0.4393398282201786
    vertex 8.882652968088644 15.38520624673202 0.4393398282201786
  endloop
endfacet
facet normal -1.267928560376731e-16 -0.7933533402912338 -0.6087614290087223
  outer loop
    vertex -8.882652968088642 15.385206246732022 0.4393398282201786
    vertex 8.745025403784439 15.146828312835181 0.7499999999999998
    vertex -8.745025403784435 15.146828312835185 0.7499999999999998
  endloop
endfacet
facet normal -1.4990631473758734e-16 -0.9238795325112874 -0.38268343236508834
  outer loop
    vertex 8.658509100046631 14.996977679078238 1.1117714323462184
    vertex -8.745025403784435 15.146828312835185 0.7499999999999998
    vertex 8.745025403784439 15.146828312835181 0.7499999999999998
  endloop
endfacet
facet normal -1.4990631473758734e-16 -0.9238795325112874 -0.38268343236508834
  outer loop
    vertex -8.745025403784435 15.146828312835185 0.7499999999999998
    vertex 8.658509100046631 14.996977679078238 1.1117714323462184
    vertex -8.65850910004663 14.99697767907824 1.1117714323462184
  endloop
endfacet
facet normal -1.6162847545797658e-16 -0.9914448613738105 -0.13052619222005177
  outer loop
    vertex 8.629 14.94586641851184 1.4999999999999996
    vertex -8.65850910004663 14.99697767907824 1.1117714323462184
    vertex 8.658509100046631 14.996977679078238 1.1117714323462184
  endloop
endfacet
facet normal -1.6162847545797658e-16 -0.9914448613738105 -0.13052619222005177
  outer loop
    vertex -8.65850910004663 14.99697767907824 1.1117714323462184
    vertex 8.629 14.94586641851184 1.4999999999999996
    vertex -8.629 14.945866418511843 1.4999999999999996
  endloop
endfacet
facet normal 0.11303899832181481 -0.06526309611002544 -0.9914448613738105
  outer loop
    vertex -9.495025403784437 16.445866418511844 0.0
    vertex -18.54176307148485 2.8199664825478975e-15 0.051111260566397455
    vertex -18.990050807568878 5.639932965095795e-15 0.0
  endloop
endfacet
facet normal 0.11303899832181481 -0.06526309611002544 -0.9914448613738105
  outer loop
    vertex -18.54176307148485 2.8199664825478975e-15 0.051111260566397455
    vertex -9.495025403784437 16.445866418511844 0.0
    vertex -9.270881535742424 16.05763785085806 0.051111260566397455
  endloop
endfacet
facet normal 0.3314135740355923 -0.19134171618254522 -0.9238795325112865
  outer loop
    vertex -9.270881535742424 16.05763785085806 0.051111260566397455
    vertex -18.124025403784437 5.639932965095795e-15 0.20096189432334186
    vertex -18.54176307148485 2.8199664825478975e-15 0.051111260566397455
  endloop
endfacet
facet normal 0.3314135740355923 -0.19134171618254522 -0.9238795325112865
  outer loop
    vertex -18.124025403784437 5.639932965095795e-15 0.20096189432334186
    vertex -9.270881535742424 16.05763785085806 0.051111260566397455
    vertex -9.062012701892217 15.695866418511844 0.20096189432334186
  endloop
endfacet
facet normal 0.5272028623656686 -0.30438071450436 -0.7933533402912358
  outer loop
    vertex -9.062012701892217 15.695866418511844 0.20096189432334186
    vertex -17.76530593617729 2.8199664825478975e-15 0.4393398282201786
    vertex -18.124025403784437 5.639932965095795e-15 0.20096189432334186
  endloop
endfacet
facet normal 0.5272028623656686 -0.30438071450436 -0.7933533402912358
  outer loop
    vertex -17.76530593617729 2.8199664825478975e-15 0.4393398282201786
    vertex -9.062012701892217 15.695866418511844 0.20096189432334186
    vertex -8.882652968088642 15.385206246732022 0.4393398282201786
  endloop
endfacet
facet normal 0.6870641468694482 -0.3966766701456166 -0.6087614290087234
  outer loop
    vertex -8.882652968088642 15.385206246732022 0.4393398282201786
    vertex -17.490050807568874 5.639932965095795e-15 0.7499999999999998
    vertex -17.76530593617729 2.8199664825478975e-15 0.4393398282201786
  endloop
endfacet
facet normal 0.6870641468694482 -0.3966766701456166 -0.6087614290087234
  outer loop
    vertex -17.490050807568874 5.639932965095795e-15 0.7499999999999998
    vertex -8.882652968088642 15.385206246732022 0.4393398282201786
    vertex -8.745025403784435 15.146828312835185 0.7499999999999998
  endloop
endfacet
facet normal 0.8001031451912662 -0.461939766255644 -0.38268343236508795
  outer loop
    vertex -17.490050807568874 5.639932965095795e-15 0.7499999999999998
    vertex -8.65850910004663 14.99697767907824 1.1117714323462184
    vertex -17.317018200093262 2.8199664825478975e-15 1.1117714323462184
  endloop
endfacet
facet normal 0.8001031451912662 -0.461939766255644 -0.38268343236508795
  outer loop
    vertex -8.65850910004663 14.99697767907824 1.1117714323462184
    vertex -17.490050807568874 5.639932965095795e-15 0.7499999999999998
    vertex -8.745025403784435 15.146828312835185 0.7499999999999998
  endloop
endfacet
facet normal 0.8586164364012612 -0.49572243068690536 -0.1305261922200511
  outer loop
    vertex -8.65850910004663 14.99697767907824 1.1117714323462184
    vertex -17.258 4.229949723821846e-15 1.4999999999999996
    vertex -17.317018200093262 2.8199664825478975e-15 1.1117714323462184
  endloop
endfacet
facet normal 0.8586164364012612 -0.49572243068690536 -0.1305261922200511
  outer loop
    vertex -17.258 4.229949723821846e-15 1.4999999999999996
    vertex -8.65850910004663 14.99697767907824 1.1117714323462184
    vertex -8.629 14.945866418511843 1.4999999999999996
  endloop
endfacet
facet normal 0.11303899832181526 0.06526309611002566 -0.9914448613738104
  outer loop
    vertex -18.54176307148485 2.8199664825478975e-15 0.051111260566397455
    vertex -9.495025403784439 -16.44586641851184 0.0
    vertex -18.990050807568878 5.639932965095795e-15 0.0
  endloop
endfacet
facet normal 0.11303899832181526 0.06526309611002566 -0.9914448613738104
  outer loop
    vertex -9.495025403784439 -16.44586641851184 0.0
    vertex -18.54176307148485 2.8199664825478975e-15 0.051111260566397455
    vertex -9.270881535742426 -16.057637850858058 0.051111260566397455
  endloop
endfacet
facet normal 0.3314135740355917 0.19134171618254478 -0.9238795325112867
  outer loop
    vertex -18.124025403784437 5.639932965095795e-15 0.20096189432334186
    vertex -9.270881535742426 -16.057637850858058 0.051111260566397455
    vertex -18.54176307148485 2.8199664825478975e-15 0.051111260566397455
  endloop
endfacet
facet normal 0.3314135740355917 0.19134171618254478 -0.9238795325112867
  outer loop
    vertex -9.270881535742426 -16.057637850858058 0.051111260566397455
    vertex -18.124025403784437 5.639932965095795e-15 0.20096189432334186
    vertex -9.062012701892222 -15.695866418511836 0.20096189432334186
  endloop
endfacet
facet normal 0.5272028623656709 0.3043807145043612 -0.7933533402912336
  outer loop
    vertex -17.76530593617729 2.8199664825478975e-15 0.4393398282201786
    vertex -9.062012701892222 -15.695866418511836 0.20096189432334186
    vertex -18.124025403784437 5.639932965095795e-15 0.20096189432334186
  endloop
endfacet
facet normal 0.5272028623656709 0.3043807145043612 -0.7933533402912336
  outer loop
    vertex -9.062012701892222 -15.695866418511836 0.20096189432334186
    vertex -17.76530593617729 2.8199664825478975e-15 0.4393398282201786
    vertex -8.882652968088646 -15.38520624673202 0.4393398282201786
  endloop
endfacet
facet normal 0.6870641468694466 0.3966766701456154 -0.6087614290087261
  outer loop
    vertex -17.76530593617729 2.8199664825478975e-15 0.4393398282201786
    vertex -8.745025403784439 -15.14682831283518 0.7499999999999998
    vertex -8.882652968088646 -15.38520624673202 0.4393398282201786
  endloop
endfacet
facet normal 0.6870641468694466 0.3966766701456154 -0.6087614290087261
  outer loop
    vertex -8.745025403784439 -15.14682831283518 0.7499999999999998
    vertex -17.76530593617729 2.8199664825478975e-15 0.4393398282201786
    vertex -17.490050807568874 5.639932965095795e-15 0.7499999999999998
  endloop
endfacet
facet normal 0.8001031451912678 0.4619397662556446 -0.38268343236508356
  outer loop
    vertex -17.490050807568874 5.639932965095795e-15 0.7499999999999998
    vertex -8.658509100046633 -14.996977679078238 1.1117714323462184
    vertex -8.745025403784439 -15.14682831283518 0.7499999999999998
  endloop
endfacet
facet normal 0.8001031451912678 0.4619397662556446 -0.38268343236508356
  outer loop
    vertex -8.658509100046633 -14.996977679078238 1.1117714323462184
    vertex -17.490050807568874 5.639932965095795e-15 0.7499999999999998
    vertex -17.317018200093262 2.8199664825478975e-15 1.1117714323462184
  endloop
endfacet
facet normal 0.8586164364012607 0.49572243068690486 -0.13052619222005443
  outer loop
    vertex -17.317018200093262 2.8199664825478975e-15 1.1117714323462184
    vertex -8.629000000000001 -14.94586641851184 1.4999999999999996
    vertex -8.658509100046633 -14.996977679078238 1.1117714323462184
  endloop
endfacet
facet normal 0.8586164364012607 0.49572243068690486 -0.13052619222005443
  outer loop
    vertex -8.629000000000001 -14.94586641851184 1.4999999999999996
    vertex -17.317018200093262 2.8199664825478975e-15 1.1117714323462184
    vertex -17.258 4.229949723821846e-15 1.4999999999999996
  endloop
endfacet
facet normal 3.924710829290859e-17 0.13052619222005124 -0.9914448613738106
  outer loop
    vertex -9.270881535742426 -16.057637850858058 0.051111260566397455
    vertex 9.495025403784428 -16.445866418511844 0.0
    vertex -9.495025403784439 -16.44586641851184 0.0
  endloop
endfacet
facet normal 3.924710829290859e-17 0.13052619222005124 -0.9914448613738106
  outer loop
    vertex 9.495025403784428 -16.445866418511844 0.0
    vertex -9.270881535742426 -16.057637850858058 0.051111260566397455
    vertex 9.270881535742415 -16.057637850858065 0.051111260566397455
  endloop
endfacet
facet normal 1.1793608436170857e-16 0.382683432365086 -0.9238795325112884
  outer loop
    vertex -9.062012701892222 -15.695866418511836 0.20096189432334186
    vertex 9.270881535742415 -16.057637850858065 0.051111260566397455
    vertex -9.270881535742426 -16.057637850858058 0.051111260566397455
  endloop
endfacet
facet normal 1.1793608436170857e-16 0.382683432365086 -0.9238795325112884
  outer loop
    vertex 9.270881535742415 -16.057637850858065 0.051111260566397455
    vertex -9.062012701892222 -15.695866418511836 0.20096189432334186
    vertex 9.062012701892206 -15.695866418511843 0.20096189432334186
  endloop
endfacet
facet normal 1.9147851498237192e-16 0.6087614290087263 -0.7933533402912308
  outer loop
    vertex -8.882652968088646 -15.38520624673202 0.4393398282201786
    vertex 9.062012701892206 -15.695866418511843 0.20096189432334186
    vertex -9.062012701892222 -15.695866418511836 0.20096189432334186
  endloop
endfacet
facet normal 1.9147851498237192e-16 0.6087614290087263 -0.7933533402912308
  outer loop
    vertex 9.062012701892206 -15.695866418511843 0.20096189432334186
    vertex -8.882652968088646 -15.38520624673202 0.4393398282201786
    vertex 8.882652968088633 -15.385206246732025 0.4393398282201786
  endloop
endfacet
facet normal 2.535857120753452e-16 0.7933533402912306 -0.6087614290087269
  outer loop
    vertex -8.745025403784439 -15.14682831283518 0.7499999999999998
    vertex 8.882652968088633 -15.385206246732025 0.4393398282201786
    vertex -8.882652968088646 -15.38520624673202 0.4393398282201786
  endloop
endfacet
facet normal 2.535857120753452e-16 0.7933533402912306 -0.6087614290087269
  outer loop
    vertex 8.882652968088633 -15.385206246732025 0.4393398282201786
    vertex -8.745025403784439 -15.14682831283518 0.7499999999999998
    vertex 8.745025403784426 -15.146828312835185 0.7499999999999998
  endloop
endfacet
facet normal 2.991711225608082e-16 0.92387953251129 -0.3826834323650821
  outer loop
    vertex -8.658509100046633 -14.996977679078238 1.1117714323462184
    vertex 8.745025403784426 -15.146828312835185 0.7499999999999998
    vertex -8.745025403784439 -15.14682831283518 0.7499999999999998
  endloop
endfacet
facet normal 2.991711225608082e-16 0.92387953251129 -0.3826834323650821
  outer loop
    vertex 8.745025403784426 -15.146828312835185 0.7499999999999998
    vertex -8.658509100046633 -14.996977679078238 1.1117714323462184
    vertex 8.658509100046622 -14.996977679078244 1.1117714323462184
  endloop
endfacet
facet normal 3.233606258830673e-16 0.9914448613738105 -0.13052619222005177
  outer loop
    vertex -8.629000000000001 -14.94586641851184 1.4999999999999996
    vertex 8.658509100046622 -14.996977679078244 1.1117714323462184
    vertex -8.658509100046633 -14.996977679078238 1.1117714323462184
  endloop
endfacet
facet normal 3.233606258830673e-16 0.9914448613738105 -0.13052619222005177
  outer loop
    vertex 8.658509100046622 -14.996977679078244 1.1117714323462184
    vertex -8.629000000000001 -14.94586641851184 1.4999999999999996
    vertex 8.62899999999999 -14.945866418511846 1.4999999999999996
  endloop
endfacet
facet normal -0.11303899832181494 0.0652630961100256 -0.9914448613738105
  outer loop
    vertex 18.54176307148485 -1.127986593019159e-14 0.051111260566397455
    vertex 9.495025403784428 -16.445866418511844 0.0
    vertex 9.270881535742415 -16.057637850858065 0.051111260566397455
  endloop
endfacet
facet normal -0.11303899832181494 0.0652630961100256 -0.9914448613738105
  outer loop
    vertex 9.495025403784428 -16.445866418511844 0.0
    vertex 18.54176307148485 -1.127986593019159e-14 0.051111260566397455
    vertex 18.990050807568878 -1.4099832412739488e-14 0.0
  endloop
endfacet
facet normal -0.3314135740355874 0.19134171618254267 -0.923879532511289
  outer loop
    vertex 18.124025403784433 -1.127986593019159e-14 0.20096189432334186
    vertex 9.270881535742415 -16.057637850858065 0.051111260566397455
    vertex 9.062012701892206 -15.695866418511843 0.20096189432334186
  endloop
endfacet
facet normal -0.3314135740355874 0.19134171618254267 -0.923879532511289
  outer loop
    vertex 9.270881535742415 -16.057637850858065 0.051111260566397455
    vertex 18.124025403784433 -1.127986593019159e-14 0.20096189432334186
    vertex 18.54176307148485 -1.127986593019159e-14 0.051111260566397455
  endloop
endfacet
facet normal -0.5272028623656744 0.3043807145043637 -0.7933533402912306
  outer loop
    vertex 17.76530593617729 -1.127986593019159e-14 0.4393398282201786
    vertex 9.062012701892206 -15.695866418511843 0.20096189432334186
    vertex 8.882652968088633 -15.385206246732025 0.4393398282201786
  endloop
endfacet
facet normal -0.5272028623656744 0.3043807145043637 -0.7933533402912306
  outer loop
    vertex 9.062012701892206 -15.695866418511843 0.20096189432334186
    vertex 17.76530593617729 -1.127986593019159e-14 0.4393398282201786
    vertex 18.124025403784433 -1.127986593019159e-14 0.20096189432334186
  endloop
endfacet
facet normal -0.687064146869446 0.39667667014561586 -0.6087614290087265
  outer loop
    vertex 8.745025403784426 -15.146828312835185 0.7499999999999998
    vertex 17.76530593617729 -1.127986593019159e-14 0.4393398282201786
    vertex 8.882652968088633 -15.385206246732025 0.4393398282201786
  endloop
endfacet
facet normal -0.687064146869446 0.39667667014561586 -0.6087614290087265
  outer loop
    vertex 17.76530593617729 -1.127986593019159e-14 0.4393398282201786
    vertex 8.745025403784426 -15.146828312835185 0.7499999999999998
    vertex 17.490050807568874 -1.127986593019159e-14 0.7499999999999998
  endloop
endfacet
facet normal -0.8001031451912679 0.4619397662556455 -0.38268343236508245
  outer loop
    vertex 8.658509100046622 -14.996977679078244 1.1117714323462184
    vertex 17.490050807568874 -1.127986593019159e-14 0.7499999999999998
    vertex 8.745025403784426 -15.146828312835185 0.7499999999999998
  endloop
endfacet
facet normal -0.8001031451912679 0.4619397662556455 -0.38268343236508245
  outer loop
    vertex 17.490050807568874 -1.127986593019159e-14 0.7499999999999998
    vertex 8.658509100046622 -14.996977679078244 1.1117714323462184
    vertex 17.317018200093262 -1.127986593019159e-14 1.1117714323462184
  endloop
endfacet
facet normal -0.8586164364012607 0.49572243068690575 -0.13052619222005096
  outer loop
    vertex 8.62899999999999 -14.945866418511846 1.4999999999999996
    vertex 17.317018200093262 -1.127986593019159e-14 1.1117714323462184
    vertex 8.658509100046622 -14.996977679078244 1.1117714323462184
  endloop
endfacet
facet normal -0.8586164364012607 0.49572243068690575 -0.13052619222005096
  outer loop
    vertex 17.317018200093262 -1.127986593019159e-14 1.1117714323462184
    vertex 8.62899999999999 -14.945866418511846 1.4999999999999996
    vertex 17.258 -1.4099832412739488e-14 1.4999999999999996
  endloop
endfacet
facet normal -0.11303899832181609 -0.06526309611002609 -0.9914448613738105
  outer loop
    vertex 9.495025403784439 16.44586641851184 0.0
    vertex 18.54176307148485 -1.127986593019159e-14 0.051111260566397455
    vertex 9.270881535742426 16.057637850858058 0.051111260566397455
  endloop
endfacet
facet normal -0.11303899832181609 -0.06526309611002609 -0.9914448613738105
  outer loop
    vertex 18.54176307148485 -1.127986593019159e-14 0.051111260566397455
    vertex 9.495025403784439 16.44586641851184 0.0
    vertex 18.990050807568878 -1.4099832412739488e-14 0.0
  endloop
endfacet
facet normal -0.33141357403558713 -0.19134171618254195 -0.9238795325112891
  outer loop
    vertex 9.270881535742426 16.057637850858058 0.051111260566397455
    vertex 18.124025403784433 -1.127986593019159e-14 0.20096189432334186
    vertex 9.062012701892222 15.695866418511843 0.20096189432334186
  endloop
endfacet
facet normal -0.33141357403558713 -0.19134171618254195 -0.9238795325112891
  outer loop
    vertex 18.124025403784433 -1.127986593019159e-14 0.20096189432334186
    vertex 9.270881535742426 16.057637850858058 0.051111260566397455
    vertex 18.54176307148485 -1.127986593019159e-14 0.051111260566397455
  endloop
endfacet
facet normal -0.5272028623656752 -0.3043807145043634 -0.7933533402912303
  outer loop
    vertex 9.062012701892222 15.695866418511843 0.20096189432334186
    vertex 17.76530593617729 -1.127986593019159e-14 0.4393398282201786
    vertex 8.882652968088644 15.38520624673202 0.4393398282201786
  endloop
endfacet
facet normal -0.5272028623656752 -0.3043807145043634 -0.7933533402912303
  outer loop
    vertex 17.76530593617729 -1.127986593019159e-14 0.4393398282201786
    vertex 9.062012701892222 15.695866418511843 0.20096189432334186
    vertex 18.124025403784433 -1.127986593019159e-14 0.20096189432334186
  endloop
endfacet
facet normal -0.6870641468694465 -0.39667667014561525 -0.6087614290087264
  outer loop
    vertex 8.745025403784439 15.146828312835181 0.7499999999999998
    vertex 17.76530593617729 -1.127986593019159e-14 0.4393398282201786
    vertex 17.490050807568874 -1.127986593019159e-14 0.7499999999999998
  endloop
endfacet
facet normal -0.6870641468694465 -0.39667667014561525 -0.6087614290087264
  outer loop
    vertex 17.76530593617729 -1.127986593019159e-14 0.4393398282201786
    vertex 8.745025403784439 15.146828312835181 0.7499999999999998
    vertex 8.882652968088644 15.38520624673202 0.4393398282201786
  endloop
endfacet
facet normal -0.8001031451912679 -0.46193976625564437 -0.38268343236508356
  outer loop
    vertex 8.658509100046631 14.996977679078238 1.1117714323462184
    vertex 17.490050807568874 -1.127986593019159e-14 0.7499999999999998
    vertex 17.317018200093262 -1.127986593019159e-14 1.1117714323462184
  endloop
endfacet
facet normal -0.8001031451912679 -0.46193976625564437 -0.38268343236508356
  outer loop
    vertex 17.490050807568874 -1.127986593019159e-14 0.7499999999999998
    vertex 8.658509100046631 14.996977679078238 1.1117714323462184
    vertex 8.745025403784439 15.146828312835181 0.7499999999999998
  endloop
endfacet
facet normal -0.858616436401261 -0.4957224306869046 -0.13052619222005538
  outer loop
    vertex 8.629 14.94586641851184 1.4999999999999996
    vertex 17.317018200093262 -1.127986593019159e-14 1.1117714323462184
    vertex 17.258 -1.4099832412739488e-14 1.4999999999999996
  endloop
endfacet
facet normal -0.858616436401261 -0.4957224306869046 -0.13052619222005538
  outer loop
    vertex 17.317018200093262 -1.127986593019159e-14 1.1117714323462184
    vertex 8.629 14.94586641851184 1.4999999999999996
    vertex 8.658509100046631 14.996977679078238 1.1117714323462184
  endloop
endfacet
endsolid 50mm_spacer
