solid OpenSCAD_Model
  facet normal -1 0 0
    outer loop
      vertex -25 22.1707 -3.82718
      vertex -25 22.1707 3.82718
      vertex -25 22.7685 0
    endloop
  endfacet
  facet normal -1 0 0
    outer loop
      vertex -25 -22.1707 -3.82718
      vertex -25 22.1707 -3.82718
      vertex -25 21.9875 -5
    endloop
  endfacet
  facet normal -1 0 0
    outer loop
      vertex -25 22.1707 -3.82718
      vertex -25 -22.1707 -3.82718
      vertex -25 22.1707 3.82718
    endloop
  endfacet
  facet normal -1 0 0
    outer loop
      vertex -25 -22.1707 -3.82718
      vertex -25 21.9875 -5
      vertex -25 -21.9875 -5
    endloop
  endfacet
  facet normal -1 0 0
    outer loop
      vertex -25 -22.1707 3.82718
      vertex -25 22.1707 3.82718
      vertex -25 -22.1707 -3.82718
    endloop
  endfacet
  facet normal -1 0 0
    outer loop
      vertex -25 22.1707 3.82718
      vertex -25 -22.1707 3.82718
      vertex -25 21.9875 5
    endloop
  endfacet
  facet normal -1 -0 0
    outer loop
      vertex -25 21.9875 5
      vertex -25 -22.1707 3.82718
      vertex -25 -21.9875 5
    endloop
  endfacet
  facet normal -1 0 -0
    outer loop
      vertex -25 -22.1707 3.82718
      vertex -25 -22.1707 -3.82718
      vertex -25 -22.7685 0
    endloop
  endfacet
  facet normal 0 0 1
    outer loop
      vertex -22.3988 24.8764 5
      vertex -20 25 5
      vertex -22.2287 25 5
    endloop
  endfacet
  facet normal 0 0 1
    outer loop
      vertex 25 -20 5
      vertex 22.3988 -24.8764 5
      vertex 25 -21.9875 5
    endloop
  endfacet
  facet normal 0 0 1
    outer loop
      vertex 25 -20 5
      vertex 22.2287 -25 5
      vertex 22.3988 -24.8764 5
    endloop
  endfacet
  facet normal -0 0 1
    outer loop
      vertex -20 -20 5
      vertex 22.2287 -25 5
      vertex 25 -20 5
    endloop
  endfacet
  facet normal 0 0 1
    outer loop
      vertex -20 -20 5
      vertex -22.2287 -25 5
      vertex 22.2287 -25 5
    endloop
  endfacet
  facet normal 0 0 1
    outer loop
      vertex -20 25 5
      vertex -25 21.9875 5
      vertex -20 -20 5
    endloop
  endfacet
  facet normal 0 0 1
    outer loop
      vertex -20 25 5
      vertex -22.3988 24.8764 5
      vertex -25 21.9875 5
    endloop
  endfacet
  facet normal 0 0 1
    outer loop
      vertex -25 -21.9875 5
      vertex -20 -20 5
      vertex -25 21.9875 5
    endloop
  endfacet
  facet normal 0 -0 1
    outer loop
      vertex -22.3988 -24.8764 5
      vertex -20 -20 5
      vertex -25 -21.9875 5
    endloop
  endfacet
  facet normal 0 0 1
    outer loop
      vertex -20 -20 5
      vertex -22.3988 -24.8764 5
      vertex -22.2287 -25 5
    endloop
  endfacet
  facet normal 1 -0 0
    outer loop
      vertex 25 -21.9875 5
      vertex 25 -20 4
      vertex 25 -20 5
    endloop
  endfacet
  facet normal 1 0 0
    outer loop
      vertex 25 -22.1707 3.82718
      vertex 25 -20 4
      vertex 25 -21.9875 5
    endloop
  endfacet
  facet normal 1 0 0
    outer loop
      vertex 25 -20 4
      vertex 25 -22.1707 3.82718
      vertex 25 -20.25 3.5
    endloop
  endfacet
  facet normal 1 0 0
    outer loop
      vertex 25 -22.7685 0
      vertex 25 -22 3.5
      vertex 25 -22.1707 3.82718
    endloop
  endfacet
  facet normal 1 0 0
    outer loop
      vertex 25 -20.25 3.5
      vertex 25 -22.1707 3.82718
      vertex 25 -22 3.5
    endloop
  endfacet
  facet normal 1 0 0
    outer loop
      vertex 25 -22 0
      vertex 25 21.9875 -5
      vertex 25 22.1707 -3.82718
    endloop
  endfacet
  facet normal 1 -0 0
    outer loop
      vertex 25 -22 0
      vertex 25 22.1707 -3.82718
      vertex 25 22.7685 0
    endloop
  endfacet
  facet normal 1 0 0
    outer loop
      vertex 25 21.9875 -5
      vertex 25 -22 0
      vertex 25 -21.9875 -5
    endloop
  endfacet
  facet normal 1 0 0
    outer loop
      vertex 25 -22 3.5
      vertex 25 -22.7685 0
      vertex 25 -22 0
    endloop
  endfacet
  facet normal 1 0 0
    outer loop
      vertex 25 -22 0
      vertex 25 -22.1707 -3.82718
      vertex 25 -21.9875 -5
    endloop
  endfacet
  facet normal 1 0 0
    outer loop
      vertex 25 -22 0
      vertex 25 -22.7685 0
      vertex 25 -22.1707 -3.82718
    endloop
  endfacet
  facet normal 0 1 -0
    outer loop
      vertex 22.9444 25 -0.329936
      vertex -22 25 0
      vertex 22.9908 25 0
    endloop
  endfacet
  facet normal 0 1 -0
    outer loop
      vertex 22.5101 25 -3.41738
      vertex -22 25 0
      vertex 22.9444 25 -0.329936
    endloop
  endfacet
  facet normal 0 1 0
    outer loop
      vertex -22 25 0
      vertex -22.9444 25 -0.329936
      vertex -22.9908 25 0
    endloop
  endfacet
  facet normal 0 1 -0
    outer loop
      vertex 22.2287 25 -5
      vertex -22 25 0
      vertex 22.5101 25 -3.41738
    endloop
  endfacet
  facet normal 0 1 0
    outer loop
      vertex -22 25 0
      vertex -22.5101 25 -3.41738
      vertex -22.9444 25 -0.329936
    endloop
  endfacet
  facet normal 0 1 0
    outer loop
      vertex -22.2287 25 -5
      vertex -22 25 0
      vertex 22.2287 25 -5
    endloop
  endfacet
  facet normal 0 1 0
    outer loop
      vertex -22 25 0
      vertex -22.2287 25 -5
      vertex -22.5101 25 -3.41738
    endloop
  endfacet
  facet normal 0 1 -0
    outer loop
      vertex -20 25 4
      vertex -22.2287 25 5
      vertex -20 25 5
    endloop
  endfacet
  facet normal 0 1 0
    outer loop
      vertex -22 25 3.5
      vertex -20 25 4
      vertex -20.25 25 3.5
    endloop
  endfacet
  facet normal 0 1 0
    outer loop
      vertex -20 25 4
      vertex -22 25 3.5
      vertex -22.2287 25 5
    endloop
  endfacet
  facet normal 0 1 0
    outer loop
      vertex -22 25 3.5
      vertex -22.5101 25 3.41738
      vertex -22.2287 25 5
    endloop
  endfacet
  facet normal 0 1 0
    outer loop
      vertex -22 25 3.5
      vertex -22.9444 25 0.329936
      vertex -22.5101 25 3.41738
    endloop
  endfacet
  facet normal 0 1 -0
    outer loop
      vertex -22 25 0
      vertex -22.9444 25 0.329936
      vertex -22 25 3.5
    endloop
  endfacet
  facet normal 0 1 0
    outer loop
      vertex -22.9444 25 0.329936
      vertex -22 25 0
      vertex -22.9908 25 0
    endloop
  endfacet
  facet normal 0 0 -1
    outer loop
      vertex 13.3826 -14.8629 -5
      vertex 25 -21.9875 -5
      vertex 22.3988 -24.8764 -5
    endloop
  endfacet
  facet normal 0 0 -1
    outer loop
      vertex 25 -21.9875 -5
      vertex 20 0 -5
      vertex 25 21.9875 -5
    endloop
  endfacet
  facet normal 0 0 -1
    outer loop
      vertex 13.3826 -14.8629 -5
      vertex 22.3988 -24.8764 -5
      vertex 22.2287 -25 -5
    endloop
  endfacet
  facet normal 0 0 -1
    outer loop
      vertex 19.563 4.15823 -5
      vertex 25 21.9875 -5
      vertex 20 0 -5
    endloop
  endfacet
  facet normal 0 0 -1
    outer loop
      vertex 18.2709 8.13473 -5
      vertex 25 21.9875 -5
      vertex 19.563 4.15823 -5
    endloop
  endfacet
  facet normal 0 0 -1
    outer loop
      vertex 25 -21.9875 -5
      vertex 19.563 -4.15823 -5
      vertex 20 0 -5
    endloop
  endfacet
  facet normal 0 0 -1
    outer loop
      vertex 25 -21.9875 -5
      vertex 18.2709 -8.13473 -5
      vertex 19.563 -4.15823 -5
    endloop
  endfacet
  facet normal 0 0 -1
    outer loop
      vertex 25 -21.9875 -5
      vertex 16.1803 -11.7557 -5
      vertex 18.2709 -8.13473 -5
    endloop
  endfacet
  facet normal 0 0 -1
    outer loop
      vertex 25 -21.9875 -5
      vertex 13.3826 -14.8629 -5
      vertex 16.1803 -11.7557 -5
    endloop
  endfacet
  facet normal 0 0 -1
    outer loop
      vertex 22.2287 -25 -5
      vertex 10 -17.3205 -5
      vertex 13.3826 -14.8629 -5
    endloop
  endfacet
  facet normal 0 0 -1
    outer loop
      vertex 22.2287 -25 -5
      vertex 6.18034 -19.0211 -5
      vertex 10 -17.3205 -5
    endloop
  endfacet
  facet normal 0 0 -1
    outer loop
      vertex 22.2287 -25 -5
      vertex 2.09057 -19.8904 -5
      vertex 6.18034 -19.0211 -5
    endloop
  endfacet
  facet normal 0 0 -1
    outer loop
      vertex 22.2287 -25 -5
      vertex -2.09057 -19.8904 -5
      vertex 2.09057 -19.8904 -5
    endloop
  endfacet
  facet normal -0 0 -1
    outer loop
      vertex -18.2709 -8.13473 -5
      vertex -25 -21.9875 -5
      vertex -19.563 -4.15823 -5
    endloop
  endfacet
  facet normal -0 0 -1
    outer loop
      vertex -16.1803 -11.7557 -5
      vertex -25 -21.9875 -5
      vertex -18.2709 -8.13473 -5
    endloop
  endfacet
  facet normal -0 0 -1
    outer loop
      vertex -13.3826 -14.8629 -5
      vertex -25 -21.9875 -5
      vertex -16.1803 -11.7557 -5
    endloop
  endfacet
  facet normal 0 0 -1
    outer loop
      vertex -25 -21.9875 -5
      vertex -13.3826 -14.8629 -5
      vertex -22.2287 -25 -5
    endloop
  endfacet
  facet normal -0 0 -1
    outer loop
      vertex -10 -17.3205 -5
      vertex -22.2287 -25 -5
      vertex -13.3826 -14.8629 -5
    endloop
  endfacet
  facet normal -0 0 -1
    outer loop
      vertex -6.18034 -19.0211 -5
      vertex -22.2287 -25 -5
      vertex -10 -17.3205 -5
    endloop
  endfacet
  facet normal -0 0 -1
    outer loop
      vertex -2.09057 -19.8904 -5
      vertex -22.2287 -25 -5
      vertex -6.18034 -19.0211 -5
    endloop
  endfacet
  facet normal 0 0 -1
    outer loop
      vertex -22.2287 -25 -5
      vertex -2.09057 -19.8904 -5
      vertex 22.2287 -25 -5
    endloop
  endfacet
  facet normal 0 0 -1
    outer loop
      vertex 16.1803 11.7557 -5
      vertex 25 21.9875 -5
      vertex 18.2709 8.13473 -5
    endloop
  endfacet
  facet normal 0 0 -1
    outer loop
      vertex 13.3826 14.8629 -5
      vertex 25 21.9875 -5
      vertex 16.1803 11.7557 -5
    endloop
  endfacet
  facet normal -0 0 -1
    outer loop
      vertex 25 21.9875 -5
      vertex 13.3826 14.8629 -5
      vertex 22.3988 24.8764 -5
    endloop
  endfacet
  facet normal -0 0 -1
    outer loop
      vertex 22.3988 24.8764 -5
      vertex 13.3826 14.8629 -5
      vertex 22.2287 25 -5
    endloop
  endfacet
  facet normal 0 0 -1
    outer loop
      vertex 10 17.3205 -5
      vertex 22.2287 25 -5
      vertex 13.3826 14.8629 -5
    endloop
  endfacet
  facet normal 0 0 -1
    outer loop
      vertex 6.18034 19.0211 -5
      vertex 22.2287 25 -5
      vertex 10 17.3205 -5
    endloop
  endfacet
  facet normal 0 0 -1
    outer loop
      vertex 2.09057 19.8904 -5
      vertex 22.2287 25 -5
      vertex 6.18034 19.0211 -5
    endloop
  endfacet
  facet normal 0 0 -1
    outer loop
      vertex -2.09057 19.8904 -5
      vertex 22.2287 25 -5
      vertex 2.09057 19.8904 -5
    endloop
  endfacet
  facet normal 0 0 -1
    outer loop
      vertex -2.09057 19.8904 -5
      vertex -22.2287 25 -5
      vertex 22.2287 25 -5
    endloop
  endfacet
  facet normal 0 0 -1
    outer loop
      vertex -6.18034 19.0211 -5
      vertex -22.2287 25 -5
      vertex -2.09057 19.8904 -5
    endloop
  endfacet
  facet normal 0 0 -1
    outer loop
      vertex -10 17.3205 -5
      vertex -22.2287 25 -5
      vertex -6.18034 19.0211 -5
    endloop
  endfacet
  facet normal 0 0 -1
    outer loop
      vertex -13.3826 14.8629 -5
      vertex -22.2287 25 -5
      vertex -10 17.3205 -5
    endloop
  endfacet
  facet normal 0 0 -1
    outer loop
      vertex -25 21.9875 -5
      vertex -13.3826 14.8629 -5
      vertex -16.1803 11.7557 -5
    endloop
  endfacet
  facet normal 0 0 -1
    outer loop
      vertex -25 21.9875 -5
      vertex -16.1803 11.7557 -5
      vertex -18.2709 8.13473 -5
    endloop
  endfacet
  facet normal 0 0 -1
    outer loop
      vertex -25 21.9875 -5
      vertex -18.2709 8.13473 -5
      vertex -19.563 4.15823 -5
    endloop
  endfacet
  facet normal 0 0 -1
    outer loop
      vertex -25 21.9875 -5
      vertex -19.563 4.15823 -5
      vertex -20 0 -5
    endloop
  endfacet
  facet normal -0 0 -1
    outer loop
      vertex -19.563 -4.15823 -5
      vertex -25 -21.9875 -5
      vertex -20 0 -5
    endloop
  endfacet
  facet normal 0 0 -1
    outer loop
      vertex -25 -21.9875 -5
      vertex -22.2287 -25 -5
      vertex -22.3988 -24.8764 -5
    endloop
  endfacet
  facet normal 0 0 -1
    outer loop
      vertex -25 21.9875 -5
      vertex -20 0 -5
      vertex -25 -21.9875 -5
    endloop
  endfacet
  facet normal 0 0 -1
    outer loop
      vertex -13.3826 14.8629 -5
      vertex -25 21.9875 -5
      vertex -22.3988 24.8764 -5
    endloop
  endfacet
  facet normal 0 0 -1
    outer loop
      vertex -13.3826 14.8629 -5
      vertex -22.3988 24.8764 -5
      vertex -22.2287 25 -5
    endloop
  endfacet
  facet normal 0 -1 0
    outer loop
      vertex -22.5101 -25 3.41738
      vertex 22.2287 -25 5
      vertex -22.2287 -25 5
    endloop
  endfacet
  facet normal 0 -1 0
    outer loop
      vertex -22.5101 -25 3.41738
      vertex 22.5101 -25 3.41738
      vertex 22.2287 -25 5
    endloop
  endfacet
  facet normal 0 -1 0
    outer loop
      vertex -22.5101 -25 -3.41738
      vertex -22.5101 -25 3.41738
      vertex -22.9444 -25 0.329936
    endloop
  endfacet
  facet normal 0 -1 0
    outer loop
      vertex -22.5101 -25 3.41738
      vertex -22.5101 -25 -3.41738
      vertex 22.5101 -25 3.41738
    endloop
  endfacet
  facet normal 0 -1 0
    outer loop
      vertex -22.9444 -25 -0.329936
      vertex -22.9444 -25 0.329936
      vertex -22.9908 -25 0
    endloop
  endfacet
  facet normal 0 -1 0
    outer loop
      vertex -22.5101 -25 -3.41738
      vertex -22.9444 -25 0.329936
      vertex -22.9444 -25 -0.329936
    endloop
  endfacet
  facet normal 0 -1 0
    outer loop
      vertex 22.5101 -25 -3.41738
      vertex 22.5101 -25 3.41738
      vertex -22.5101 -25 -3.41738
    endloop
  endfacet
  facet normal 0 -1 0
    outer loop
      vertex 22.9444 -25 0.329936
      vertex 22.9444 -25 -0.329936
      vertex 22.9908 -25 0
    endloop
  endfacet
  facet normal 0 -1 0
    outer loop
      vertex 22.5101 -25 3.41738
      vertex 22.5101 -25 -3.41738
      vertex 22.9444 -25 0.329936
    endloop
  endfacet
  facet normal 0 -1 -0
    outer loop
      vertex 22.9444 -25 0.329936
      vertex 22.5101 -25 -3.41738
      vertex 22.9444 -25 -0.329936
    endloop
  endfacet
  facet normal 0 -1 0
    outer loop
      vertex -22.2287 -25 -5
      vertex 22.5101 -25 -3.41738
      vertex -22.5101 -25 -3.41738
    endloop
  endfacet
  facet normal 0 -1 0
    outer loop
      vertex 22.5101 -25 -3.41738
      vertex -22.2287 -25 -5
      vertex 22.2287 -25 -5
    endloop
  endfacet
  facet normal -0.739115 0.665509 -0.103954
    outer loop
      vertex -25 22.1707 -3.82718
      vertex -22.5101 25 -3.41738
      vertex -22.3988 24.8764 -5
    endloop
  endfacet
  facet normal -0.739113 0.665509 -0.103968
    outer loop
      vertex -22.5101 25 -3.41738
      vertex -25 22.1707 -3.82718
      vertex -22.9444 25 -0.329936
    endloop
  endfacet
  facet normal -0.739116 0.665508 -0.103956
    outer loop
      vertex -25 22.1707 -3.82718
      vertex -22.3988 24.8764 -5
      vertex -25 21.9875 -5
    endloop
  endfacet
  facet normal -0.584647 0.8046 0.103954
    outer loop
      vertex -22.2287 25 5
      vertex -22.5101 25 3.41738
      vertex -22.3988 24.8764 5
    endloop
  endfacet
  facet normal 0.739113 0.665509 -0.103968
    outer loop
      vertex 25 22.1707 -3.82718
      vertex 22.5101 25 -3.41738
      vertex 22.9444 25 -0.329936
    endloop
  endfacet
  facet normal 0.739115 0.665509 -0.103954
    outer loop
      vertex 22.5101 25 -3.41738
      vertex 25 22.1707 -3.82718
      vertex 22.3988 24.8764 -5
    endloop
  endfacet
  facet normal 0.739116 0.665508 -0.103956
    outer loop
      vertex 22.3988 24.8764 -5
      vertex 25 22.1707 -3.82718
      vertex 25 21.9875 -5
    endloop
  endfacet
  facet normal -0.739128 0.665496 0.103946
    outer loop
      vertex -25 22.7685 0
      vertex -22.9444 25 0.329936
      vertex -22.9908 25 0
    endloop
  endfacet
  facet normal -0.739128 0.665496 0.10395
    outer loop
      vertex -22.9444 25 0.329936
      vertex -25 22.7685 0
      vertex -25 22.1707 3.82718
    endloop
  endfacet
  facet normal 0.584647 -0.8046 -0.103954
    outer loop
      vertex 22.5101 -25 -3.41738
      vertex 22.2287 -25 -5
      vertex 22.3988 -24.8764 -5
    endloop
  endfacet
  facet normal 0.739128 -0.665496 -0.103946
    outer loop
      vertex 22.9444 -25 -0.329936
      vertex 25 -22.7685 0
      vertex 22.9908 -25 0
    endloop
  endfacet
  facet normal 0.739128 -0.665496 -0.10395
    outer loop
      vertex 25 -22.7685 0
      vertex 22.9444 -25 -0.329936
      vertex 25 -22.1707 -3.82718
    endloop
  endfacet
  facet normal -0.739116 -0.665508 -0.103956
    outer loop
      vertex -22.3988 -24.8764 -5
      vertex -25 -22.1707 -3.82718
      vertex -25 -21.9875 -5
    endloop
  endfacet
  facet normal -0.739115 -0.665509 -0.103954
    outer loop
      vertex -22.5101 -25 -3.41738
      vertex -25 -22.1707 -3.82718
      vertex -22.3988 -24.8764 -5
    endloop
  endfacet
  facet normal -0.739113 -0.665509 -0.103968
    outer loop
      vertex -25 -22.1707 -3.82718
      vertex -22.5101 -25 -3.41738
      vertex -22.9444 -25 -0.329936
    endloop
  endfacet
  facet normal -0.739128 -0.665496 0.103946
    outer loop
      vertex -22.9444 -25 0.329936
      vertex -25 -22.7685 0
      vertex -22.9908 -25 0
    endloop
  endfacet
  facet normal -0.739128 -0.665496 0.10395
    outer loop
      vertex -25 -22.7685 0
      vertex -22.9444 -25 0.329936
      vertex -25 -22.1707 3.82718
    endloop
  endfacet
  facet normal -0.739116 -0.665508 0.103956
    outer loop
      vertex -25 -22.1707 3.82718
      vertex -22.3988 -24.8764 5
      vertex -25 -21.9875 5
    endloop
  endfacet
  facet normal -0.739113 -0.665509 0.103968
    outer loop
      vertex -22.5101 -25 3.41738
      vertex -25 -22.1707 3.82718
      vertex -22.9444 -25 0.329936
    endloop
  endfacet
  facet normal -0.739115 -0.665509 0.103954
    outer loop
      vertex -25 -22.1707 3.82718
      vertex -22.5101 -25 3.41738
      vertex -22.3988 -24.8764 5
    endloop
  endfacet
  facet normal -0.739113 0.665509 0.103968
    outer loop
      vertex -25 22.1707 3.82718
      vertex -22.5101 25 3.41738
      vertex -22.9444 25 0.329936
    endloop
  endfacet
  facet normal -0.739115 0.665509 0.103954
    outer loop
      vertex -22.5101 25 3.41738
      vertex -25 22.1707 3.82718
      vertex -22.3988 24.8764 5
    endloop
  endfacet
  facet normal -0.739116 0.665508 0.103956
    outer loop
      vertex -22.3988 24.8764 5
      vertex -25 22.1707 3.82718
      vertex -25 21.9875 5
    endloop
  endfacet
  facet normal 0.739128 0.665496 -0.103946
    outer loop
      vertex 25 22.7685 0
      vertex 22.9444 25 -0.329936
      vertex 22.9908 25 0
    endloop
  endfacet
  facet normal 0.739128 0.665496 -0.10395
    outer loop
      vertex 22.9444 25 -0.329936
      vertex 25 22.7685 0
      vertex 25 22.1707 -3.82718
    endloop
  endfacet
  facet normal 0.584647 0.8046 -0.103954
    outer loop
      vertex 22.3988 24.8764 -5
      vertex 22.2287 25 -5
      vertex 22.5101 25 -3.41738
    endloop
  endfacet
  facet normal -0.584647 0.8046 -0.103954
    outer loop
      vertex -22.3988 24.8764 -5
      vertex -22.5101 25 -3.41738
      vertex -22.2287 25 -5
    endloop
  endfacet
  facet normal -0.739128 -0.665496 -0.10395
    outer loop
      vertex -22.9444 -25 -0.329936
      vertex -25 -22.7685 0
      vertex -25 -22.1707 -3.82718
    endloop
  endfacet
  facet normal -0.739128 -0.665496 -0.103946
    outer loop
      vertex -25 -22.7685 0
      vertex -22.9444 -25 -0.329936
      vertex -22.9908 -25 0
    endloop
  endfacet
  facet normal 0.739116 -0.665508 -0.103956
    outer loop
      vertex 25 -22.1707 -3.82718
      vertex 22.3988 -24.8764 -5
      vertex 25 -21.9875 -5
    endloop
  endfacet
  facet normal 0.739113 -0.665509 -0.103968
    outer loop
      vertex 22.5101 -25 -3.41738
      vertex 25 -22.1707 -3.82718
      vertex 22.9444 -25 -0.329936
    endloop
  endfacet
  facet normal 0.739115 -0.665509 -0.103954
    outer loop
      vertex 25 -22.1707 -3.82718
      vertex 22.5101 -25 -3.41738
      vertex 22.3988 -24.8764 -5
    endloop
  endfacet
  facet normal 0.739128 -0.665496 0.10395
    outer loop
      vertex 22.9444 -25 0.329936
      vertex 25 -22.7685 0
      vertex 25 -22.1707 3.82718
    endloop
  endfacet
  facet normal 0.739128 -0.665496 0.103946
    outer loop
      vertex 25 -22.7685 0
      vertex 22.9444 -25 0.329936
      vertex 22.9908 -25 0
    endloop
  endfacet
  facet normal -0.739128 0.665496 -0.103946
    outer loop
      vertex -22.9444 25 -0.329936
      vertex -25 22.7685 0
      vertex -22.9908 25 0
    endloop
  endfacet
  facet normal -0.739128 0.665496 -0.10395
    outer loop
      vertex -25 22.7685 0
      vertex -22.9444 25 -0.329936
      vertex -25 22.1707 -3.82718
    endloop
  endfacet
  facet normal -0.584647 -0.8046 -0.103954
    outer loop
      vertex -22.2287 -25 -5
      vertex -22.5101 -25 -3.41738
      vertex -22.3988 -24.8764 -5
    endloop
  endfacet
  facet normal -0.584647 -0.8046 0.103954
    outer loop
      vertex -22.3988 -24.8764 5
      vertex -22.5101 -25 3.41738
      vertex -22.2287 -25 5
    endloop
  endfacet
  facet normal 0.739116 -0.665508 0.103956
    outer loop
      vertex 22.3988 -24.8764 5
      vertex 25 -22.1707 3.82718
      vertex 25 -21.9875 5
    endloop
  endfacet
  facet normal 0.739115 -0.665509 0.103954
    outer loop
      vertex 22.5101 -25 3.41738
      vertex 25 -22.1707 3.82718
      vertex 22.3988 -24.8764 5
    endloop
  endfacet
  facet normal 0.739113 -0.665509 0.103968
    outer loop
      vertex 25 -22.1707 3.82718
      vertex 22.5101 -25 3.41738
      vertex 22.9444 -25 0.329936
    endloop
  endfacet
  facet normal 0.584647 -0.8046 0.103954
    outer loop
      vertex 22.3988 -24.8764 5
      vertex 22.2287 -25 5
      vertex 22.5101 -25 3.41738
    endloop
  endfacet
  facet normal 1 -0 0
    outer loop
      vertex -20 -20 5
      vertex -20 25 4
      vertex -20 25 5
    endloop
  endfacet
  facet normal 1 0 0
    outer loop
      vertex -20 25 4
      vertex -20 -20 5
      vertex -20 -20 4
    endloop
  endfacet
  facet normal 1 0 -0
    outer loop
      vertex -20 -20 3.5
      vertex -20 -20 4
      vertex -20 -20.25 3.5
    endloop
  endfacet
  facet normal 0 1 -0
    outer loop
      vertex 25 -20 4
      vertex -20 -20 5
      vertex 25 -20 5
    endloop
  endfacet
  facet normal 0 1 0
    outer loop
      vertex -20 -20 5
      vertex 25 -20 4
      vertex -20 -20 4
    endloop
  endfacet
  facet normal 0 1 0
    outer loop
      vertex -20 -20 4
      vertex -20 -20 3.5
      vertex -20.25 -20 3.5
    endloop
  endfacet
  facet normal 1 -0 0
    outer loop
      vertex -22 -22 3.5
      vertex -22 25 0
      vertex -22 25 3.5
    endloop
  endfacet
  facet normal 1 0 0
    outer loop
      vertex -22 25 0
      vertex -22 -22 3.5
      vertex -22 -22 0
    endloop
  endfacet
  facet normal 0 0 -1
    outer loop
      vertex 25 -22 3.5
      vertex -20 -20.25 3.5
      vertex 25 -20.25 3.5
    endloop
  endfacet
  facet normal 0 0 -1
    outer loop
      vertex -20 -20.25 3.5
      vertex -20.25 -20 3.5
      vertex -20 -20 3.5
    endloop
  endfacet
  facet normal 0 0 -1
    outer loop
      vertex -22 -22 3.5
      vertex -20 -20.25 3.5
      vertex 25 -22 3.5
    endloop
  endfacet
  facet normal 0 0 -1
    outer loop
      vertex -22 -22 3.5
      vertex -20.25 -20 3.5
      vertex -20 -20.25 3.5
    endloop
  endfacet
  facet normal 0 0 -1
    outer loop
      vertex -22 25 3.5
      vertex -20.25 -20 3.5
      vertex -22 -22 3.5
    endloop
  endfacet
  facet normal 0 0 -1
    outer loop
      vertex -20.25 -20 3.5
      vertex -22 25 3.5
      vertex -20.25 25 3.5
    endloop
  endfacet
  facet normal -0 0 1
    outer loop
      vertex -22 25 0
      vertex 25 22.7685 0
      vertex 22.9908 25 0
    endloop
  endfacet
  facet normal 0 0 1
    outer loop
      vertex 25 22.7685 0
      vertex -22 25 0
      vertex -22 -22 0
    endloop
  endfacet
  facet normal 0 0 1
    outer loop
      vertex 25 22.7685 0
      vertex -22 -22 0
      vertex 25 -22 0
    endloop
  endfacet
  facet normal 0 1 -0
    outer loop
      vertex 25 -22 0
      vertex -22 -22 3.5
      vertex 25 -22 3.5
    endloop
  endfacet
  facet normal 0 1 0
    outer loop
      vertex -22 -22 3.5
      vertex 25 -22 0
      vertex -22 -22 0
    endloop
  endfacet
  facet normal -0.951053 -0.309029 0
    outer loop
      vertex 19.563 4.15823 -5
      vertex 18.2709 8.13473 -3.5
      vertex 18.2709 8.13473 -5
    endloop
  endfacet
  facet normal -0.951053 -0.309029 0
    outer loop
      vertex 18.2709 8.13473 -3.5
      vertex 19.563 4.15823 -5
      vertex 19.563 4.15823 -3.5
    endloop
  endfacet
  facet normal -0.994523 -0.104517 0
    outer loop
      vertex 20 0 -5
      vertex 19.563 4.15823 -3.5
      vertex 19.563 4.15823 -5
    endloop
  endfacet
  facet normal -0.994523 -0.104517 0
    outer loop
      vertex 19.563 4.15823 -3.5
      vertex 20 0 -5
      vertex 20 0 -3.5
    endloop
  endfacet
  facet normal -0.587785 -0.809017 0
    outer loop
      vertex 10 17.3205 -5
      vertex 13.3826 14.8629 -3.5
      vertex 10 17.3205 -3.5
    endloop
  endfacet
  facet normal -0.587785 -0.809017 -0
    outer loop
      vertex 13.3826 14.8629 -3.5
      vertex 10 17.3205 -5
      vertex 13.3826 14.8629 -5
    endloop
  endfacet
  facet normal 0.406732 0.913547 -0
    outer loop
      vertex -6.18034 -19.0211 -5
      vertex -10 -17.3205 -3.5
      vertex -6.18034 -19.0211 -3.5
    endloop
  endfacet
  facet normal 0.406732 0.913547 0
    outer loop
      vertex -10 -17.3205 -3.5
      vertex -6.18034 -19.0211 -5
      vertex -10 -17.3205 -5
    endloop
  endfacet
  facet normal -0.951053 0.309029 0
    outer loop
      vertex 18.2709 -8.13473 -5
      vertex 19.563 -4.15823 -3.5
      vertex 19.563 -4.15823 -5
    endloop
  endfacet
  facet normal -0.951053 0.309029 0
    outer loop
      vertex 19.563 -4.15823 -3.5
      vertex 18.2709 -8.13473 -5
      vertex 18.2709 -8.13473 -3.5
    endloop
  endfacet
  facet normal 0.406732 -0.913547 0
    outer loop
      vertex -10 17.3205 -5
      vertex -6.18034 19.0211 -3.5
      vertex -10 17.3205 -3.5
    endloop
  endfacet
  facet normal 0.406732 -0.913547 0
    outer loop
      vertex -6.18034 19.0211 -3.5
      vertex -10 17.3205 -5
      vertex -6.18034 19.0211 -5
    endloop
  endfacet
  facet normal -0.743149 0.669126 0
    outer loop
      vertex 13.3826 -14.8629 -5
      vertex 16.1803 -11.7557 -3.5
      vertex 16.1803 -11.7557 -5
    endloop
  endfacet
  facet normal -0.743149 0.669126 0
    outer loop
      vertex 16.1803 -11.7557 -3.5
      vertex 13.3826 -14.8629 -5
      vertex 13.3826 -14.8629 -3.5
    endloop
  endfacet
  facet normal -0.866022 0.500006 0
    outer loop
      vertex 16.1803 -11.7557 -5
      vertex 18.2709 -8.13473 -3.5
      vertex 18.2709 -8.13473 -5
    endloop
  endfacet
  facet normal -0.866022 0.500006 0
    outer loop
      vertex 18.2709 -8.13473 -3.5
      vertex 16.1803 -11.7557 -5
      vertex 16.1803 -11.7557 -3.5
    endloop
  endfacet
  facet normal 0.994523 0.104517 0
    outer loop
      vertex -19.563 -4.15823 -3.5
      vertex -20 0 -5
      vertex -20 0 -3.5
    endloop
  endfacet
  facet normal 0.994523 0.104517 0
    outer loop
      vertex -20 0 -5
      vertex -19.563 -4.15823 -3.5
      vertex -19.563 -4.15823 -5
    endloop
  endfacet
  facet normal 0.994523 -0.104517 0
    outer loop
      vertex -20 0 -3.5
      vertex -19.563 4.15823 -5
      vertex -19.563 4.15823 -3.5
    endloop
  endfacet
  facet normal 0.994523 -0.104517 0
    outer loop
      vertex -19.563 4.15823 -5
      vertex -20 0 -3.5
      vertex -20 0 -5
    endloop
  endfacet
  facet normal -0.866022 -0.500006 0
    outer loop
      vertex 18.2709 8.13473 -5
      vertex 16.1803 11.7557 -3.5
      vertex 16.1803 11.7557 -5
    endloop
  endfacet
  facet normal -0.866022 -0.500006 0
    outer loop
      vertex 16.1803 11.7557 -3.5
      vertex 18.2709 8.13473 -5
      vertex 18.2709 8.13473 -3.5
    endloop
  endfacet
  facet normal 0 -1 0
    outer loop
      vertex -2.09057 19.8904 -5
      vertex 2.09057 19.8904 -3.5
      vertex -2.09057 19.8904 -3.5
    endloop
  endfacet
  facet normal 0 -1 -0
    outer loop
      vertex 2.09057 19.8904 -3.5
      vertex -2.09057 19.8904 -5
      vertex 2.09057 19.8904 -5
    endloop
  endfacet
  facet normal -0.994523 0.104517 0
    outer loop
      vertex 19.563 -4.15823 -5
      vertex 20 0 -3.5
      vertex 20 0 -5
    endloop
  endfacet
  facet normal -0.994523 0.104517 0
    outer loop
      vertex 20 0 -3.5
      vertex 19.563 -4.15823 -5
      vertex 19.563 -4.15823 -3.5
    endloop
  endfacet
  facet normal 0.951053 0.309029 0
    outer loop
      vertex -18.2709 -8.13473 -3.5
      vertex -19.563 -4.15823 -5
      vertex -19.563 -4.15823 -3.5
    endloop
  endfacet
  facet normal 0.951053 0.309029 0
    outer loop
      vertex -19.563 -4.15823 -5
      vertex -18.2709 -8.13473 -3.5
      vertex -18.2709 -8.13473 -5
    endloop
  endfacet
  facet normal 0.743149 0.669126 0
    outer loop
      vertex -13.3826 -14.8629 -3.5
      vertex -16.1803 -11.7557 -5
      vertex -16.1803 -11.7557 -3.5
    endloop
  endfacet
  facet normal 0.743149 0.669126 0
    outer loop
      vertex -16.1803 -11.7557 -5
      vertex -13.3826 -14.8629 -3.5
      vertex -13.3826 -14.8629 -5
    endloop
  endfacet
  facet normal 0.20791 0.978148 -0
    outer loop
      vertex -2.09057 -19.8904 -5
      vertex -6.18034 -19.0211 -3.5
      vertex -2.09057 -19.8904 -3.5
    endloop
  endfacet
  facet normal 0.20791 0.978148 0
    outer loop
      vertex -6.18034 -19.0211 -3.5
      vertex -2.09057 -19.8904 -5
      vertex -6.18034 -19.0211 -5
    endloop
  endfacet
  facet normal 0 1 -0
    outer loop
      vertex 2.09057 -19.8904 -5
      vertex -2.09057 -19.8904 -3.5
      vertex 2.09057 -19.8904 -3.5
    endloop
  endfacet
  facet normal 0 1 0
    outer loop
      vertex -2.09057 -19.8904 -3.5
      vertex 2.09057 -19.8904 -5
      vertex -2.09057 -19.8904 -5
    endloop
  endfacet
  facet normal -0.20791 0.978148 0
    outer loop
      vertex 6.18034 -19.0211 -5
      vertex 2.09057 -19.8904 -3.5
      vertex 6.18034 -19.0211 -3.5
    endloop
  endfacet
  facet normal -0.20791 0.978148 0
    outer loop
      vertex 2.09057 -19.8904 -3.5
      vertex 6.18034 -19.0211 -5
      vertex 2.09057 -19.8904 -5
    endloop
  endfacet
  facet normal -0.406732 0.913547 0
    outer loop
      vertex 10 -17.3205 -5
      vertex 6.18034 -19.0211 -3.5
      vertex 10 -17.3205 -3.5
    endloop
  endfacet
  facet normal -0.406732 0.913547 0
    outer loop
      vertex 6.18034 -19.0211 -3.5
      vertex 10 -17.3205 -5
      vertex 6.18034 -19.0211 -5
    endloop
  endfacet
  facet normal -0.587785 0.809017 0
    outer loop
      vertex 13.3826 -14.8629 -5
      vertex 10 -17.3205 -3.5
      vertex 13.3826 -14.8629 -3.5
    endloop
  endfacet
  facet normal -0.587785 0.809017 0
    outer loop
      vertex 10 -17.3205 -3.5
      vertex 13.3826 -14.8629 -5
      vertex 10 -17.3205 -5
    endloop
  endfacet
  facet normal 0.743149 -0.669126 0
    outer loop
      vertex -16.1803 11.7557 -3.5
      vertex -13.3826 14.8629 -5
      vertex -13.3826 14.8629 -3.5
    endloop
  endfacet
  facet normal 0.743149 -0.669126 0
    outer loop
      vertex -13.3826 14.8629 -5
      vertex -16.1803 11.7557 -3.5
      vertex -16.1803 11.7557 -5
    endloop
  endfacet
  facet normal 0.587785 -0.809017 0
    outer loop
      vertex -13.3826 14.8629 -5
      vertex -10 17.3205 -3.5
      vertex -13.3826 14.8629 -3.5
    endloop
  endfacet
  facet normal 0.587785 -0.809017 0
    outer loop
      vertex -10 17.3205 -3.5
      vertex -13.3826 14.8629 -5
      vertex -10 17.3205 -5
    endloop
  endfacet
  facet normal 0.866022 -0.500006 0
    outer loop
      vertex -18.2709 8.13473 -3.5
      vertex -16.1803 11.7557 -5
      vertex -16.1803 11.7557 -3.5
    endloop
  endfacet
  facet normal 0.866022 -0.500006 0
    outer loop
      vertex -16.1803 11.7557 -5
      vertex -18.2709 8.13473 -3.5
      vertex -18.2709 8.13473 -5
    endloop
  endfacet
  facet normal 0.951053 -0.309029 0
    outer loop
      vertex -19.563 4.15823 -3.5
      vertex -18.2709 8.13473 -5
      vertex -18.2709 8.13473 -3.5
    endloop
  endfacet
  facet normal 0.951053 -0.309029 0
    outer loop
      vertex -18.2709 8.13473 -5
      vertex -19.563 4.15823 -3.5
      vertex -19.563 4.15823 -5
    endloop
  endfacet
  facet normal -0.743149 -0.669126 0
    outer loop
      vertex 16.1803 11.7557 -5
      vertex 13.3826 14.8629 -3.5
      vertex 13.3826 14.8629 -5
    endloop
  endfacet
  facet normal -0.743149 -0.669126 0
    outer loop
      vertex 13.3826 14.8629 -3.5
      vertex 16.1803 11.7557 -5
      vertex 16.1803 11.7557 -3.5
    endloop
  endfacet
  facet normal -0.406732 -0.913547 0
    outer loop
      vertex 6.18034 19.0211 -5
      vertex 10 17.3205 -3.5
      vertex 6.18034 19.0211 -3.5
    endloop
  endfacet
  facet normal -0.406732 -0.913547 -0
    outer loop
      vertex 10 17.3205 -3.5
      vertex 6.18034 19.0211 -5
      vertex 10 17.3205 -5
    endloop
  endfacet
  facet normal -0.20791 -0.978148 0
    outer loop
      vertex 2.09057 19.8904 -5
      vertex 6.18034 19.0211 -3.5
      vertex 2.09057 19.8904 -3.5
    endloop
  endfacet
  facet normal -0.20791 -0.978148 -0
    outer loop
      vertex 6.18034 19.0211 -3.5
      vertex 2.09057 19.8904 -5
      vertex 6.18034 19.0211 -5
    endloop
  endfacet
  facet normal 0.20791 -0.978148 0
    outer loop
      vertex -6.18034 19.0211 -5
      vertex -2.09057 19.8904 -3.5
      vertex -6.18034 19.0211 -3.5
    endloop
  endfacet
  facet normal 0.20791 -0.978148 0
    outer loop
      vertex -2.09057 19.8904 -3.5
      vertex -6.18034 19.0211 -5
      vertex -2.09057 19.8904 -5
    endloop
  endfacet
  facet normal 0.587785 0.809017 -0
    outer loop
      vertex -10 -17.3205 -5
      vertex -13.3826 -14.8629 -3.5
      vertex -10 -17.3205 -3.5
    endloop
  endfacet
  facet normal 0.587785 0.809017 0
    outer loop
      vertex -13.3826 -14.8629 -3.5
      vertex -10 -17.3205 -5
      vertex -13.3826 -14.8629 -5
    endloop
  endfacet
  facet normal 0 0 -1
    outer loop
      vertex 19.563 -4.15823 -3.5
      vertex 19.563 4.15823 -3.5
      vertex 20 0 -3.5
    endloop
  endfacet
  facet normal 0 0 -1
    outer loop
      vertex 18.2709 -8.13473 -3.5
      vertex 19.563 4.15823 -3.5
      vertex 19.563 -4.15823 -3.5
    endloop
  endfacet
  facet normal 0 0 -1
    outer loop
      vertex 18.2709 -8.13473 -3.5
      vertex 18.2709 8.13473 -3.5
      vertex 19.563 4.15823 -3.5
    endloop
  endfacet
  facet normal 0 0 -1
    outer loop
      vertex 16.1803 -11.7557 -3.5
      vertex 18.2709 8.13473 -3.5
      vertex 18.2709 -8.13473 -3.5
    endloop
  endfacet
  facet normal 0 0 -1
    outer loop
      vertex 16.1803 -11.7557 -3.5
      vertex 16.1803 11.7557 -3.5
      vertex 18.2709 8.13473 -3.5
    endloop
  endfacet
  facet normal 0 0 -1
    outer loop
      vertex 13.3826 -14.8629 -3.5
      vertex 16.1803 11.7557 -3.5
      vertex 16.1803 -11.7557 -3.5
    endloop
  endfacet
  facet normal 0 0 -1
    outer loop
      vertex 13.3826 -14.8629 -3.5
      vertex 13.3826 14.8629 -3.5
      vertex 16.1803 11.7557 -3.5
    endloop
  endfacet
  facet normal 0 0 -1
    outer loop
      vertex 10 -17.3205 -3.5
      vertex 13.3826 14.8629 -3.5
      vertex 13.3826 -14.8629 -3.5
    endloop
  endfacet
  facet normal 0 0 -1
    outer loop
      vertex 10 -17.3205 -3.5
      vertex 10 17.3205 -3.5
      vertex 13.3826 14.8629 -3.5
    endloop
  endfacet
  facet normal 0 0 -1
    outer loop
      vertex 6.18034 -19.0211 -3.5
      vertex 10 17.3205 -3.5
      vertex 10 -17.3205 -3.5
    endloop
  endfacet
  facet normal 0 0 -1
    outer loop
      vertex 6.18034 -19.0211 -3.5
      vertex 6.18034 19.0211 -3.5
      vertex 10 17.3205 -3.5
    endloop
  endfacet
  facet normal 0 0 -1
    outer loop
      vertex 2.09057 -19.8904 -3.5
      vertex 6.18034 19.0211 -3.5
      vertex 6.18034 -19.0211 -3.5
    endloop
  endfacet
  facet normal 0 0 -1
    outer loop
      vertex 2.09057 -19.8904 -3.5
      vertex 2.09057 19.8904 -3.5
      vertex 6.18034 19.0211 -3.5
    endloop
  endfacet
  facet normal 0 0 -1
    outer loop
      vertex -2.09057 -19.8904 -3.5
      vertex 2.09057 19.8904 -3.5
      vertex 2.09057 -19.8904 -3.5
    endloop
  endfacet
  facet normal 0 0 -1
    outer loop
      vertex -2.09057 -19.8904 -3.5
      vertex -2.09057 19.8904 -3.5
      vertex 2.09057 19.8904 -3.5
    endloop
  endfacet
  facet normal 0 0 -1
    outer loop
      vertex -6.18034 -19.0211 -3.5
      vertex -2.09057 19.8904 -3.5
      vertex -2.09057 -19.8904 -3.5
    endloop
  endfacet
  facet normal 0 0 -1
    outer loop
      vertex -6.18034 -19.0211 -3.5
      vertex -6.18034 19.0211 -3.5
      vertex -2.09057 19.8904 -3.5
    endloop
  endfacet
  facet normal 0 0 -1
    outer loop
      vertex -10 -17.3205 -3.5
      vertex -6.18034 19.0211 -3.5
      vertex -6.18034 -19.0211 -3.5
    endloop
  endfacet
  facet normal 0 0 -1
    outer loop
      vertex -10 -17.3205 -3.5
      vertex -10 17.3205 -3.5
      vertex -6.18034 19.0211 -3.5
    endloop
  endfacet
  facet normal 0 0 -1
    outer loop
      vertex -13.3826 -14.8629 -3.5
      vertex -10 17.3205 -3.5
      vertex -10 -17.3205 -3.5
    endloop
  endfacet
  facet normal 0 0 -1
    outer loop
      vertex -13.3826 -14.8629 -3.5
      vertex -13.3826 14.8629 -3.5
      vertex -10 17.3205 -3.5
    endloop
  endfacet
  facet normal 0 0 -1
    outer loop
      vertex -16.1803 -11.7557 -3.5
      vertex -13.3826 14.8629 -3.5
      vertex -13.3826 -14.8629 -3.5
    endloop
  endfacet
  facet normal 0 0 -1
    outer loop
      vertex -16.1803 -11.7557 -3.5
      vertex -16.1803 11.7557 -3.5
      vertex -13.3826 14.8629 -3.5
    endloop
  endfacet
  facet normal 0 0 -1
    outer loop
      vertex -18.2709 -8.13473 -3.5
      vertex -16.1803 11.7557 -3.5
      vertex -16.1803 -11.7557 -3.5
    endloop
  endfacet
  facet normal 0 0 -1
    outer loop
      vertex -18.2709 -8.13473 -3.5
      vertex -18.2709 8.13473 -3.5
      vertex -16.1803 11.7557 -3.5
    endloop
  endfacet
  facet normal 0 0 -1
    outer loop
      vertex -19.563 -4.15823 -3.5
      vertex -18.2709 8.13473 -3.5
      vertex -18.2709 -8.13473 -3.5
    endloop
  endfacet
  facet normal 0 0 -1
    outer loop
      vertex -19.563 -4.15823 -3.5
      vertex -19.563 4.15823 -3.5
      vertex -18.2709 8.13473 -3.5
    endloop
  endfacet
  facet normal 0 -0 -1
    outer loop
      vertex -19.563 4.15823 -3.5
      vertex -19.563 -4.15823 -3.5
      vertex -20 0 -3.5
    endloop
  endfacet
  facet normal 0.866022 0.500006 0
    outer loop
      vertex -16.1803 -11.7557 -3.5
      vertex -18.2709 -8.13473 -5
      vertex -18.2709 -8.13473 -3.5
    endloop
  endfacet
  facet normal 0.866022 0.500006 0
    outer loop
      vertex -18.2709 -8.13473 -5
      vertex -16.1803 -11.7557 -3.5
      vertex -16.1803 -11.7557 -5
    endloop
  endfacet
  facet normal 0.894427 0 -0.447214
    outer loop
      vertex -20 -20 4
      vertex -20.25 25 3.5
      vertex -20 25 4
    endloop
  endfacet
  facet normal 0.894427 0 -0.447214
    outer loop
      vertex -20.25 25 3.5
      vertex -20 -20 4
      vertex -20.25 -20 3.5
    endloop
  endfacet
  facet normal 0 0.894427 -0.447214
    outer loop
      vertex 25 -20.25 3.5
      vertex -20 -20 4
      vertex 25 -20 4
    endloop
  endfacet
  facet normal 0 0.894427 -0.447214
    outer loop
      vertex -20 -20 4
      vertex 25 -20.25 3.5
      vertex -20 -20.25 3.5
    endloop
  endfacet
endsolid OpenSCAD_Model
