  0
SECTION
  2
BLOCKS
  0
ENDSEC
  0
SECTION
  2
ENTITIES
  0
LINE
  8
0
 10
39.758
 20
9.51666
 11
140.242
 21
9.51666
  0
LINE
  8
0
 10
140.242
 20
9.51666
 11
140.242
 21
0
  0
LINE
  8
0
 10
140.242
 20
0
 11
159.758
 21
0
  0
LINE
  8
0
 10
159.758
 20
0
 11
159.758
 21
9.51666
  0
LINE
  8
0
 10
159.758
 20
9.51666
 11
165
 21
9.51666
  0
LINE
  8
0
 10
165
 20
9.51666
 11
165.262
 21
9.51895
  0
LINE
  8
0
 10
165.262
 20
9.51895
 11
165.523
 21
9.5258
  0
LINE
  8
0
 10
165.523
 20
9.5258
 11
165.785
 21
9.53722
  0
LINE
  8
0
 10
165.785
 20
9.53722
 11
166.046
 21
9.55321
  0
LINE
  8
0
 10
166.046
 20
9.55321
 11
166.307
 21
9.57375
  0
LINE
  8
0
 10
166.307
 20
9.57375
 11
166.568
 21
9.59883
  0
LINE
  8
0
 10
166.568
 20
9.59883
 11
166.828
 21
9.62846
  0
LINE
  8
0
 10
166.828
 20
9.62846
 11
167.088
 21
9.66264
  0
LINE
  8
0
 10
167.088
 20
9.66264
 11
167.346
 21
9.70134
  0
LINE
  8
0
 10
167.346
 20
9.70134
 11
167.605
 21
9.74455
  0
LINE
  8
0
 10
167.605
 20
9.74455
 11
167.862
 21
9.79225
  0
LINE
  8
0
 10
167.862
 20
9.79225
 11
168.119
 21
9.84445
  0
LINE
  8
0
 10
168.119
 20
9.84445
 11
168.374
 21
9.90111
  0
LINE
  8
0
 10
168.374
 20
9.90111
 11
168.629
 21
9.96223
  0
LINE
  8
0
 10
168.629
 20
9.96223
 11
168.882
 21
10.0278
  0
LINE
  8
0
 10
168.882
 20
10.0278
 11
169.135
 21
10.0977
  0
LINE
  8
0
 10
169.135
 20
10.0977
 11
169.386
 21
10.1721
  0
LINE
  8
0
 10
169.386
 20
10.1721
 11
169.635
 21
10.2508
  0
LINE
  8
0
 10
169.635
 20
10.2508
 11
169.883
 21
10.3339
  0
LINE
  8
0
 10
169.883
 20
10.3339
 11
170.13
 21
10.4213
  0
LINE
  8
0
 10
170.13
 20
10.4213
 11
170.376
 21
10.513
  0
LINE
  8
0
 10
170.376
 20
10.513
 11
170.619
 21
10.6089
  0
LINE
  8
0
 10
170.619
 20
10.6089
 11
170.861
 21
10.7091
  0
LINE
  8
0
 10
170.861
 20
10.7091
 11
171.101
 21
10.8135
  0
LINE
  8
0
 10
171.101
 20
10.8135
 11
171.339
 21
10.922
  0
LINE
  8
0
 10
171.339
 20
10.922
 11
171.576
 21
11.0348
  0
LINE
  8
0
 10
171.576
 20
11.0348
 11
171.81
 21
11.1516
  0
LINE
  8
0
 10
171.81
 20
11.1516
 11
172.042
 21
11.2724
  0
LINE
  8
0
 10
172.042
 20
11.2724
 11
172.272
 21
11.3974
  0
LINE
  8
0
 10
172.272
 20
11.3974
 11
172.5
 21
11.5263
  0
LINE
  8
0
 10
172.5
 20
11.5263
 11
172.726
 21
11.6591
  0
LINE
  8
0
 10
172.726
 20
11.6591
 11
172.949
 21
11.7959
  0
LINE
  8
0
 10
172.949
 20
11.7959
 11
173.17
 21
11.9366
  0
LINE
  8
0
 10
173.17
 20
11.9366
 11
173.388
 21
12.0811
  0
LINE
  8
0
 10
173.388
 20
12.0811
 11
173.604
 21
12.2294
  0
LINE
  8
0
 10
173.604
 20
12.2294
 11
173.817
 21
12.3814
  0
LINE
  8
0
 10
173.817
 20
12.3814
 11
174.027
 21
12.5371
  0
LINE
  8
0
 10
174.027
 20
12.5371
 11
174.235
 21
12.6965
  0
LINE
  8
0
 10
174.235
 20
12.6965
 11
174.44
 21
12.8595
  0
LINE
  8
0
 10
174.44
 20
12.8595
 11
174.642
 21
13.026
  0
LINE
  8
0
 10
174.642
 20
13.026
 11
174.841
 21
13.196
  0
LINE
  8
0
 10
174.841
 20
13.196
 11
175.037
 21
13.3695
  0
LINE
  8
0
 10
175.037
 20
13.3695
 11
175.23
 21
13.5464
  0
LINE
  8
0
 10
175.23
 20
13.5464
 11
175.42
 21
13.7266
  0
LINE
  8
0
 10
175.42
 20
13.7266
 11
175.607
 21
13.9101
  0
LINE
  8
0
 10
175.607
 20
13.9101
 11
175.79
 21
14.0968
  0
LINE
  8
0
 10
175.79
 20
14.0968
 11
175.97
 21
14.2867
  0
LINE
  8
0
 10
175.97
 20
14.2867
 11
176.147
 21
14.4797
  0
LINE
  8
0
 10
176.147
 20
14.4797
 11
176.321
 21
14.6758
  0
LINE
  8
0
 10
176.321
 20
14.6758
 11
176.491
 21
14.8748
  0
LINE
  8
0
 10
176.491
 20
14.8748
 11
176.657
 21
15.0769
  0
LINE
  8
0
 10
176.657
 20
15.0769
 11
176.82
 21
15.2817
  0
LINE
  8
0
 10
176.82
 20
15.2817
 11
176.98
 21
15.4894
  0
LINE
  8
0
 10
176.98
 20
15.4894
 11
177.135
 21
15.6999
  0
LINE
  8
0
 10
177.135
 20
15.6999
 11
177.287
 21
15.913
  0
LINE
  8
0
 10
177.287
 20
15.913
 11
177.436
 21
16.1288
  0
LINE
  8
0
 10
177.436
 20
16.1288
 11
177.58
 21
16.3471
  0
LINE
  8
0
 10
177.58
 20
16.3471
 11
177.721
 21
16.5679
  0
LINE
  8
0
 10
177.721
 20
16.5679
 11
177.858
 21
16.7911
  0
LINE
  8
0
 10
177.858
 20
16.7911
 11
177.99
 21
17.0167
  0
LINE
  8
0
 10
177.99
 20
17.0167
 11
178.119
 21
17.2445
  0
LINE
  8
0
 10
178.119
 20
17.2445
 11
178.244
 21
17.4746
  0
LINE
  8
0
 10
178.244
 20
17.4746
 11
178.365
 21
17.7068
  0
LINE
  8
0
 10
178.365
 20
17.7068
 11
178.482
 21
17.9411
  0
LINE
  8
0
 10
178.482
 20
17.9411
 11
178.595
 21
18.1774
  0
LINE
  8
0
 10
178.595
 20
18.1774
 11
178.703
 21
18.4156
  0
LINE
  8
0
 10
178.703
 20
18.4156
 11
178.808
 21
18.6557
  0
LINE
  8
0
 10
178.808
 20
18.6557
 11
178.908
 21
18.8976
  0
LINE
  8
0
 10
178.908
 20
18.8976
 11
179.004
 21
19.1411
  0
LINE
  8
0
 10
179.004
 20
19.1411
 11
179.095
 21
19.3864
  0
LINE
  8
0
 10
179.095
 20
19.3864
 11
179.183
 21
19.6332
  0
LINE
  8
0
 10
179.183
 20
19.6332
 11
179.266
 21
19.8814
  0
LINE
  8
0
 10
179.266
 20
19.8814
 11
179.345
 21
20.1311
  0
LINE
  8
0
 10
179.345
 20
20.1311
 11
179.419
 21
20.3821
  0
LINE
  8
0
 10
179.419
 20
20.3821
 11
179.489
 21
20.6344
  0
LINE
  8
0
 10
179.489
 20
20.6344
 11
179.554
 21
20.8879
  0
LINE
  8
0
 10
179.554
 20
20.8879
 11
179.616
 21
21.1424
  0
LINE
  8
0
 10
179.616
 20
21.1424
 11
179.672
 21
21.398
  0
LINE
  8
0
 10
179.672
 20
21.398
 11
179.724
 21
21.6546
  0
LINE
  8
0
 10
179.724
 20
21.6546
 11
179.772
 21
21.912
  0
LINE
  8
0
 10
179.772
 20
21.912
 11
179.815
 21
22.1702
  0
LINE
  8
0
 10
179.815
 20
22.1702
 11
179.854
 21
22.4291
  0
LINE
  8
0
 10
179.854
 20
22.4291
 11
179.888
 21
22.6887
  0
LINE
  8
0
 10
179.888
 20
22.6887
 11
179.918
 21
22.9488
  0
LINE
  8
0
 10
179.918
 20
22.9488
 11
179.943
 21
23.2094
  0
LINE
  8
0
 10
179.943
 20
23.2094
 11
179.963
 21
23.4704
  0
LINE
  8
0
 10
179.963
 20
23.4704
 11
179.979
 21
23.7317
  0
LINE
  8
0
 10
179.979
 20
23.7317
 11
179.991
 21
23.9932
  0
LINE
  8
0
 10
179.991
 20
23.9932
 11
179.998
 21
24.2549
  0
LINE
  8
0
 10
179.998
 20
24.2549
 11
180
 21
24.5167
  0
LINE
  8
0
 10
180
 20
24.5167
 11
180
 21
174.517
  0
LINE
  8
0
 10
180
 20
174.517
 11
179.998
 21
174.779
  0
LINE
  8
0
 10
179.998
 20
174.779
 11
179.991
 21
175.04
  0
LINE
  8
0
 10
179.991
 20
175.04
 11
179.979
 21
175.302
  0
LINE
  8
0
 10
179.979
 20
175.302
 11
179.963
 21
175.563
  0
LINE
  8
0
 10
179.963
 20
175.563
 11
179.943
 21
175.824
  0
LINE
  8
0
 10
179.943
 20
175.824
 11
179.918
 21
176.085
  0
LINE
  8
0
 10
179.918
 20
176.085
 11
179.888
 21
176.345
  0
LINE
  8
0
 10
179.888
 20
176.345
 11
179.854
 21
176.605
  0
LINE
  8
0
 10
179.854
 20
176.605
 11
179.815
 21
176.864
  0
LINE
  8
0
 10
179.815
 20
176.864
 11
179.772
 21
177.122
  0
LINE
  8
0
 10
179.772
 20
177.122
 11
179.724
 21
177.379
  0
LINE
  8
0
 10
179.724
 20
177.379
 11
179.672
 21
177.636
  0
LINE
  8
0
 10
179.672
 20
177.636
 11
179.616
 21
177.891
  0
LINE
  8
0
 10
179.616
 20
177.891
 11
179.554
 21
178.146
  0
LINE
  8
0
 10
179.554
 20
178.146
 11
179.489
 21
178.399
  0
LINE
  8
0
 10
179.489
 20
178.399
 11
179.419
 21
178.652
  0
LINE
  8
0
 10
179.419
 20
178.652
 11
179.345
 21
178.903
  0
LINE
  8
0
 10
179.345
 20
178.903
 11
179.266
 21
179.152
  0
LINE
  8
0
 10
179.266
 20
179.152
 11
179.183
 21
179.401
  0
LINE
  8
0
 10
179.183
 20
179.401
 11
179.095
 21
179.647
  0
LINE
  8
0
 10
179.095
 20
179.647
 11
179.004
 21
179.893
  0
LINE
  8
0
 10
179.004
 20
179.893
 11
178.908
 21
180.136
  0
LINE
  8
0
 10
178.908
 20
180.136
 11
178.808
 21
180.378
  0
LINE
  8
0
 10
178.808
 20
180.378
 11
178.703
 21
180.618
  0
LINE
  8
0
 10
178.703
 20
180.618
 11
178.595
 21
180.856
  0
LINE
  8
0
 10
178.595
 20
180.856
 11
178.482
 21
181.093
  0
LINE
  8
0
 10
178.482
 20
181.093
 11
178.365
 21
181.327
  0
LINE
  8
0
 10
178.365
 20
181.327
 11
178.244
 21
181.559
  0
LINE
  8
0
 10
178.244
 20
181.559
 11
178.119
 21
181.789
  0
LINE
  8
0
 10
178.119
 20
181.789
 11
177.99
 21
182.017
  0
LINE
  8
0
 10
177.99
 20
182.017
 11
177.858
 21
182.243
  0
LINE
  8
0
 10
177.858
 20
182.243
 11
177.721
 21
182.466
  0
LINE
  8
0
 10
177.721
 20
182.466
 11
177.58
 21
182.687
  0
LINE
  8
0
 10
177.58
 20
182.687
 11
177.436
 21
182.905
  0
LINE
  8
0
 10
177.436
 20
182.905
 11
177.287
 21
183.121
  0
LINE
  8
0
 10
177.287
 20
183.121
 11
177.135
 21
183.334
  0
LINE
  8
0
 10
177.135
 20
183.334
 11
176.98
 21
183.544
  0
LINE
  8
0
 10
176.98
 20
183.544
 11
176.82
 21
183.752
  0
LINE
  8
0
 10
176.82
 20
183.752
 11
176.657
 21
183.957
  0
LINE
  8
0
 10
176.657
 20
183.957
 11
176.491
 21
184.159
  0
LINE
  8
0
 10
176.491
 20
184.159
 11
176.321
 21
184.358
  0
LINE
  8
0
 10
176.321
 20
184.358
 11
176.147
 21
184.554
  0
LINE
  8
0
 10
176.147
 20
184.554
 11
175.97
 21
184.747
  0
LINE
  8
0
 10
175.97
 20
184.747
 11
175.79
 21
184.937
  0
LINE
  8
0
 10
175.79
 20
184.937
 11
175.607
 21
185.124
  0
LINE
  8
0
 10
175.607
 20
185.124
 11
175.42
 21
185.307
  0
LINE
  8
0
 10
175.42
 20
185.307
 11
175.23
 21
185.487
  0
LINE
  8
0
 10
175.23
 20
185.487
 11
175.037
 21
185.664
  0
LINE
  8
0
 10
175.037
 20
185.664
 11
174.841
 21
185.838
  0
LINE
  8
0
 10
174.841
 20
185.838
 11
174.642
 21
186.008
  0
LINE
  8
0
 10
174.642
 20
186.008
 11
174.44
 21
186.174
  0
LINE
  8
0
 10
174.44
 20
186.174
 11
174.235
 21
186.337
  0
LINE
  8
0
 10
174.235
 20
186.337
 11
174.027
 21
186.497
  0
LINE
  8
0
 10
174.027
 20
186.497
 11
173.817
 21
186.652
  0
LINE
  8
0
 10
173.817
 20
186.652
 11
173.604
 21
186.804
  0
LINE
  8
0
 10
173.604
 20
186.804
 11
173.388
 21
186.953
  0
LINE
  8
0
 10
173.388
 20
186.953
 11
173.17
 21
187.097
  0
LINE
  8
0
 10
173.17
 20
187.097
 11
172.949
 21
187.238
  0
LINE
  8
0
 10
172.949
 20
187.238
 11
172.726
 21
187.375
  0
LINE
  8
0
 10
172.726
 20
187.375
 11
172.5
 21
187.507
  0
LINE
  8
0
 10
172.5
 20
187.507
 11
172.272
 21
187.636
  0
LINE
  8
0
 10
172.272
 20
187.636
 11
172.042
 21
187.761
  0
LINE
  8
0
 10
172.042
 20
187.761
 11
171.81
 21
187.882
  0
LINE
  8
0
 10
171.81
 20
187.882
 11
171.576
 21
187.999
  0
LINE
  8
0
 10
171.576
 20
187.999
 11
171.339
 21
188.112
  0
LINE
  8
0
 10
171.339
 20
188.112
 11
171.101
 21
188.22
  0
LINE
  8
0
 10
171.101
 20
188.22
 11
170.861
 21
188.325
  0
LINE
  8
0
 10
170.861
 20
188.325
 11
170.619
 21
188.425
  0
LINE
  8
0
 10
170.619
 20
188.425
 11
170.376
 21
188.521
  0
LINE
  8
0
 10
170.376
 20
188.521
 11
170.13
 21
188.612
  0
LINE
  8
0
 10
170.13
 20
188.612
 11
169.883
 21
188.7
  0
LINE
  8
0
 10
169.883
 20
188.7
 11
169.635
 21
188.783
  0
LINE
  8
0
 10
169.635
 20
188.783
 11
169.386
 21
188.862
  0
LINE
  8
0
 10
169.386
 20
188.862
 11
169.135
 21
188.936
  0
LINE
  8
0
 10
169.135
 20
188.936
 11
168.882
 21
189.006
  0
LINE
  8
0
 10
168.882
 20
189.006
 11
168.629
 21
189.071
  0
LINE
  8
0
 10
168.629
 20
189.071
 11
168.374
 21
189.133
  0
LINE
  8
0
 10
168.374
 20
189.133
 11
168.119
 21
189.189
  0
LINE
  8
0
 10
168.119
 20
189.189
 11
167.862
 21
189.241
  0
LINE
  8
0
 10
167.862
 20
189.241
 11
167.605
 21
189.289
  0
LINE
  8
0
 10
167.605
 20
189.289
 11
167.346
 21
189.332
  0
LINE
  8
0
 10
167.346
 20
189.332
 11
167.088
 21
189.371
  0
LINE
  8
0
 10
167.088
 20
189.371
 11
166.828
 21
189.405
  0
LINE
  8
0
 10
166.828
 20
189.405
 11
166.568
 21
189.435
  0
LINE
  8
0
 10
166.568
 20
189.435
 11
166.307
 21
189.46
  0
LINE
  8
0
 10
166.307
 20
189.46
 11
166.046
 21
189.48
  0
LINE
  8
0
 10
166.046
 20
189.48
 11
165.785
 21
189.496
  0
LINE
  8
0
 10
165.785
 20
189.496
 11
165.523
 21
189.508
  0
LINE
  8
0
 10
165.523
 20
189.508
 11
165.262
 21
189.515
  0
LINE
  8
0
 10
165.262
 20
189.515
 11
165
 21
189.517
  0
LINE
  8
0
 10
165
 20
189.517
 11
15
 21
189.517
  0
LINE
  8
0
 10
15
 20
189.517
 11
14.738
 21
189.515
  0
LINE
  8
0
 10
14.738
 20
189.515
 11
14.477
 21
189.508
  0
LINE
  8
0
 10
14.477
 20
189.508
 11
14.215
 21
189.496
  0
LINE
  8
0
 10
14.215
 20
189.496
 11
13.954
 21
189.48
  0
LINE
  8
0
 10
13.954
 20
189.48
 11
13.693
 21
189.46
  0
LINE
  8
0
 10
13.693
 20
189.46
 11
13.432
 21
189.435
  0
LINE
  8
0
 10
13.432
 20
189.435
 11
13.172
 21
189.405
  0
LINE
  8
0
 10
13.172
 20
189.405
 11
12.912
 21
189.371
  0
LINE
  8
0
 10
12.912
 20
189.371
 11
12.653
 21
189.332
  0
LINE
  8
0
 10
12.653
 20
189.332
 11
12.395
 21
189.289
  0
LINE
  8
0
 10
12.395
 20
189.289
 11
12.138
 21
189.241
  0
LINE
  8
0
 10
12.138
 20
189.241
 11
11.881
 21
189.189
  0
LINE
  8
0
 10
11.881
 20
189.189
 11
11.626
 21
189.133
  0
LINE
  8
0
 10
11.626
 20
189.133
 11
11.371
 21
189.071
  0
LINE
  8
0
 10
11.371
 20
189.071
 11
11.118
 21
189.006
  0
LINE
  8
0
 10
11.118
 20
189.006
 11
10.865
 21
188.936
  0
LINE
  8
0
 10
10.865
 20
188.936
 11
10.614
 21
188.862
  0
LINE
  8
0
 10
10.614
 20
188.862
 11
10.365
 21
188.783
  0
LINE
  8
0
 10
10.365
 20
188.783
 11
10.116
 21
188.7
  0
LINE
  8
0
 10
10.116
 20
188.7
 11
9.87
 21
188.612
  0
LINE
  8
0
 10
9.87
 20
188.612
 11
9.62399
 21
188.521
  0
LINE
  8
0
 10
9.62399
 20
188.521
 11
9.381
 21
188.425
  0
LINE
  8
0
 10
9.381
 20
188.425
 11
9.13901
 21
188.325
  0
LINE
  8
0
 10
9.13901
 20
188.325
 11
8.899
 21
188.22
  0
LINE
  8
0
 10
8.899
 20
188.22
 11
8.661
 21
188.112
  0
LINE
  8
0
 10
8.661
 20
188.112
 11
8.424
 21
187.999
  0
LINE
  8
0
 10
8.424
 20
187.999
 11
8.19
 21
187.882
  0
LINE
  8
0
 10
8.19
 20
187.882
 11
7.95799
 21
187.761
  0
LINE
  8
0
 10
7.95799
 20
187.761
 11
7.728
 21
187.636
  0
LINE
  8
0
 10
7.728
 20
187.636
 11
7.5
 21
187.507
  0
LINE
  8
0
 10
7.5
 20
187.507
 11
7.274
 21
187.375
  0
LINE
  8
0
 10
7.274
 20
187.375
 11
7.05099
 21
187.238
  0
LINE
  8
0
 10
7.05099
 20
187.238
 11
6.83
 21
187.097
  0
LINE
  8
0
 10
6.83
 20
187.097
 11
6.612
 21
186.953
  0
LINE
  8
0
 10
6.612
 20
186.953
 11
6.396
 21
186.804
  0
LINE
  8
0
 10
6.396
 20
186.804
 11
6.183
 21
186.652
  0
LINE
  8
0
 10
6.183
 20
186.652
 11
5.97301
 21
186.497
  0
LINE
  8
0
 10
5.97301
 20
186.497
 11
5.765
 21
186.337
  0
LINE
  8
0
 10
5.765
 20
186.337
 11
5.56
 21
186.174
  0
LINE
  8
0
 10
5.56
 20
186.174
 11
5.358
 21
186.008
  0
LINE
  8
0
 10
5.358
 20
186.008
 11
5.159
 21
185.838
  0
LINE
  8
0
 10
5.159
 20
185.838
 11
4.963
 21
185.664
  0
LINE
  8
0
 10
4.963
 20
185.664
 11
4.77
 21
185.487
  0
LINE
  8
0
 10
4.77
 20
185.487
 11
4.58
 21
185.307
  0
LINE
  8
0
 10
4.58
 20
185.307
 11
4.39301
 21
185.124
  0
LINE
  8
0
 10
4.39301
 20
185.124
 11
4.21001
 21
184.937
  0
LINE
  8
0
 10
4.21001
 20
184.937
 11
4.03
 21
184.747
  0
LINE
  8
0
 10
4.03
 20
184.747
 11
3.853
 21
184.554
  0
LINE
  8
0
 10
3.853
 20
184.554
 11
3.679
 21
184.358
  0
LINE
  8
0
 10
3.679
 20
184.358
 11
3.509
 21
184.159
  0
LINE
  8
0
 10
3.509
 20
184.159
 11
3.343
 21
183.957
  0
LINE
  8
0
 10
3.343
 20
183.957
 11
3.17999
 21
183.752
  0
LINE
  8
0
 10
3.17999
 20
183.752
 11
3.02
 21
183.544
  0
LINE
  8
0
 10
3.02
 20
183.544
 11
2.86501
 21
183.334
  0
LINE
  8
0
 10
2.86501
 20
183.334
 11
2.713
 21
183.121
  0
LINE
  8
0
 10
2.713
 20
183.121
 11
2.564
 21
182.905
  0
LINE
  8
0
 10
2.564
 20
182.905
 11
2.42
 21
182.687
  0
LINE
  8
0
 10
2.42
 20
182.687
 11
2.27901
 21
182.466
  0
LINE
  8
0
 10
2.27901
 20
182.466
 11
2.142
 21
182.243
  0
LINE
  8
0
 10
2.142
 20
182.243
 11
2.00999
 21
182.017
  0
LINE
  8
0
 10
2.00999
 20
182.017
 11
1.881
 21
181.789
  0
LINE
  8
0
 10
1.881
 20
181.789
 11
1.756
 21
181.559
  0
LINE
  8
0
 10
1.756
 20
181.559
 11
1.63499
 21
181.327
  0
LINE
  8
0
 10
1.63499
 20
181.327
 11
1.51801
 21
181.093
  0
LINE
  8
0
 10
1.51801
 20
181.093
 11
1.405
 21
180.856
  0
LINE
  8
0
 10
1.405
 20
180.856
 11
1.297
 21
180.618
  0
LINE
  8
0
 10
1.297
 20
180.618
 11
1.192
 21
180.378
  0
LINE
  8
0
 10
1.192
 20
180.378
 11
1.092
 21
180.136
  0
LINE
  8
0
 10
1.092
 20
180.136
 11
0.996002
 21
179.893
  0
LINE
  8
0
 10
0.996002
 20
179.893
 11
0.904999
 21
179.647
  0
LINE
  8
0
 10
0.904999
 20
179.647
 11
0.817001
 21
179.401
  0
LINE
  8
0
 10
0.817001
 20
179.401
 11
0.733994
 21
179.152
  0
LINE
  8
0
 10
0.733994
 20
179.152
 11
0.654999
 21
178.903
  0
LINE
  8
0
 10
0.654999
 20
178.903
 11
0.580994
 21
178.652
  0
LINE
  8
0
 10
0.580994
 20
178.652
 11
0.511002
 21
178.399
  0
LINE
  8
0
 10
0.511002
 20
178.399
 11
0.445999
 21
178.146
  0
LINE
  8
0
 10
0.445999
 20
178.146
 11
0.384003
 21
177.891
  0
LINE
  8
0
 10
0.384003
 20
177.891
 11
0.328003
 21
177.636
  0
LINE
  8
0
 10
0.328003
 20
177.636
 11
0.276001
 21
177.379
  0
LINE
  8
0
 10
0.276001
 20
177.379
 11
0.227997
 21
177.122
  0
LINE
  8
0
 10
0.227997
 20
177.122
 11
0.184998
 21
176.864
  0
LINE
  8
0
 10
0.184998
 20
176.864
 11
0.145996
 21
176.605
  0
LINE
  8
0
 10
0.145996
 20
176.605
 11
0.112
 21
176.345
  0
LINE
  8
0
 10
0.112
 20
176.345
 11
0.0820007
 21
176.085
  0
LINE
  8
0
 10
0.0820007
 20
176.085
 11
0.0570068
 21
175.824
  0
LINE
  8
0
 10
0.0570068
 20
175.824
 11
0.0370026
 21
175.563
  0
LINE
  8
0
 10
0.0370026
 20
175.563
 11
0.0209961
 21
175.302
  0
LINE
  8
0
 10
0.0209961
 20
175.302
 11
0.00900269
 21
175.04
  0
LINE
  8
0
 10
0.00900269
 20
175.04
 11
0.0019989
 21
174.779
  0
LINE
  8
0
 10
0.0019989
 20
174.779
 11
0
 21
174.517
  0
LINE
  8
0
 10
0
 20
174.517
 11
0
 21
24.5167
  0
LINE
  8
0
 10
0
 20
24.5167
 11
0.0019989
 21
24.2549
  0
LINE
  8
0
 10
0.0019989
 20
24.2549
 11
0.00900269
 21
23.9932
  0
LINE
  8
0
 10
0.00900269
 20
23.9932
 11
0.0209961
 21
23.7317
  0
LINE
  8
0
 10
0.0209961
 20
23.7317
 11
0.0370026
 21
23.4704
  0
LINE
  8
0
 10
0.0370026
 20
23.4704
 11
0.0570068
 21
23.2094
  0
LINE
  8
0
 10
0.0570068
 20
23.2094
 11
0.0820007
 21
22.9488
  0
LINE
  8
0
 10
0.0820007
 20
22.9488
 11
0.112
 21
22.6887
  0
LINE
  8
0
 10
0.112
 20
22.6887
 11
0.145996
 21
22.4291
  0
LINE
  8
0
 10
0.145996
 20
22.4291
 11
0.184998
 21
22.1702
  0
LINE
  8
0
 10
0.184998
 20
22.1702
 11
0.227997
 21
21.912
  0
LINE
  8
0
 10
0.227997
 20
21.912
 11
0.276001
 21
21.6546
  0
LINE
  8
0
 10
0.276001
 20
21.6546
 11
0.328003
 21
21.398
  0
LINE
  8
0
 10
0.328003
 20
21.398
 11
0.384003
 21
21.1424
  0
LINE
  8
0
 10
0.384003
 20
21.1424
 11
0.445999
 21
20.8879
  0
LINE
  8
0
 10
0.445999
 20
20.8879
 11
0.511002
 21
20.6344
  0
LINE
  8
0
 10
0.511002
 20
20.6344
 11
0.580994
 21
20.3821
  0
LINE
  8
0
 10
0.580994
 20
20.3821
 11
0.654999
 21
20.1311
  0
LINE
  8
0
 10
0.654999
 20
20.1311
 11
0.733994
 21
19.8814
  0
LINE
  8
0
 10
0.733994
 20
19.8814
 11
0.817001
 21
19.6332
  0
LINE
  8
0
 10
0.817001
 20
19.6332
 11
0.904999
 21
19.3864
  0
LINE
  8
0
 10
0.904999
 20
19.3864
 11
0.996002
 21
19.1411
  0
LINE
  8
0
 10
0.996002
 20
19.1411
 11
1.092
 21
18.8976
  0
LINE
  8
0
 10
1.092
 20
18.8976
 11
1.192
 21
18.6557
  0
LINE
  8
0
 10
1.192
 20
18.6557
 11
1.297
 21
18.4156
  0
LINE
  8
0
 10
1.297
 20
18.4156
 11
1.405
 21
18.1774
  0
LINE
  8
0
 10
1.405
 20
18.1774
 11
1.51801
 21
17.9411
  0
LINE
  8
0
 10
1.51801
 20
17.9411
 11
1.63499
 21
17.7068
  0
LINE
  8
0
 10
1.63499
 20
17.7068
 11
1.756
 21
17.4746
  0
LINE
  8
0
 10
1.756
 20
17.4746
 11
1.881
 21
17.2445
  0
LINE
  8
0
 10
1.881
 20
17.2445
 11
2.00999
 21
17.0167
  0
LINE
  8
0
 10
2.00999
 20
17.0167
 11
2.142
 21
16.7911
  0
LINE
  8
0
 10
2.142
 20
16.7911
 11
2.27901
 21
16.5679
  0
LINE
  8
0
 10
2.27901
 20
16.5679
 11
2.42
 21
16.3471
  0
LINE
  8
0
 10
2.42
 20
16.3471
 11
2.564
 21
16.1288
  0
LINE
  8
0
 10
2.564
 20
16.1288
 11
2.713
 21
15.913
  0
LINE
  8
0
 10
2.713
 20
15.913
 11
2.86501
 21
15.6999
  0
LINE
  8
0
 10
2.86501
 20
15.6999
 11
3.02
 21
15.4894
  0
LINE
  8
0
 10
3.02
 20
15.4894
 11
3.17999
 21
15.2817
  0
LINE
  8
0
 10
3.17999
 20
15.2817
 11
3.343
 21
15.0769
  0
LINE
  8
0
 10
3.343
 20
15.0769
 11
3.509
 21
14.8748
  0
LINE
  8
0
 10
3.509
 20
14.8748
 11
3.679
 21
14.6758
  0
LINE
  8
0
 10
3.679
 20
14.6758
 11
3.853
 21
14.4797
  0
LINE
  8
0
 10
3.853
 20
14.4797
 11
4.03
 21
14.2867
  0
LINE
  8
0
 10
4.03
 20
14.2867
 11
4.21001
 21
14.0968
  0
LINE
  8
0
 10
4.21001
 20
14.0968
 11
4.39301
 21
13.9101
  0
LINE
  8
0
 10
4.39301
 20
13.9101
 11
4.58
 21
13.7266
  0
LINE
  8
0
 10
4.58
 20
13.7266
 11
4.77
 21
13.5464
  0
LINE
  8
0
 10
4.77
 20
13.5464
 11
4.963
 21
13.3695
  0
LINE
  8
0
 10
4.963
 20
13.3695
 11
5.159
 21
13.196
  0
LINE
  8
0
 10
5.159
 20
13.196
 11
5.358
 21
13.026
  0
LINE
  8
0
 10
5.358
 20
13.026
 11
5.56
 21
12.8595
  0
LINE
  8
0
 10
5.56
 20
12.8595
 11
5.765
 21
12.6965
  0
LINE
  8
0
 10
5.765
 20
12.6965
 11
5.97301
 21
12.5371
  0
LINE
  8
0
 10
5.97301
 20
12.5371
 11
6.183
 21
12.3814
  0
LINE
  8
0
 10
6.183
 20
12.3814
 11
6.396
 21
12.2294
  0
LINE
  8
0
 10
6.396
 20
12.2294
 11
6.612
 21
12.0811
  0
LINE
  8
0
 10
6.612
 20
12.0811
 11
6.83
 21
11.9366
  0
LINE
  8
0
 10
6.83
 20
11.9366
 11
7.05099
 21
11.7959
  0
LINE
  8
0
 10
7.05099
 20
11.7959
 11
7.274
 21
11.6591
  0
LINE
  8
0
 10
7.274
 20
11.6591
 11
7.5
 21
11.5263
  0
LINE
  8
0
 10
7.5
 20
11.5263
 11
7.728
 21
11.3974
  0
LINE
  8
0
 10
7.728
 20
11.3974
 11
7.95799
 21
11.2724
  0
LINE
  8
0
 10
7.95799
 20
11.2724
 11
8.19
 21
11.1516
  0
LINE
  8
0
 10
8.19
 20
11.1516
 11
8.424
 21
11.0348
  0
LINE
  8
0
 10
8.424
 20
11.0348
 11
8.661
 21
10.922
  0
LINE
  8
0
 10
8.661
 20
10.922
 11
8.899
 21
10.8135
  0
LINE
  8
0
 10
8.899
 20
10.8135
 11
9.13901
 21
10.7091
  0
LINE
  8
0
 10
9.13901
 20
10.7091
 11
9.381
 21
10.6089
  0
LINE
  8
0
 10
9.381
 20
10.6089
 11
9.62399
 21
10.513
  0
LINE
  8
0
 10
9.62399
 20
10.513
 11
9.87
 21
10.4213
  0
LINE
  8
0
 10
9.87
 20
10.4213
 11
10.116
 21
10.3339
  0
LINE
  8
0
 10
10.116
 20
10.3339
 11
10.365
 21
10.2508
  0
LINE
  8
0
 10
10.365
 20
10.2508
 11
10.614
 21
10.1721
  0
LINE
  8
0
 10
10.614
 20
10.1721
 11
10.865
 21
10.0977
  0
LINE
  8
0
 10
10.865
 20
10.0977
 11
11.118
 21
10.0278
  0
LINE
  8
0
 10
11.118
 20
10.0278
 11
11.371
 21
9.96223
  0
LINE
  8
0
 10
11.371
 20
9.96223
 11
11.626
 21
9.90111
  0
LINE
  8
0
 10
11.626
 20
9.90111
 11
11.881
 21
9.84445
  0
LINE
  8
0
 10
11.881
 20
9.84445
 11
12.138
 21
9.79225
  0
LINE
  8
0
 10
12.138
 20
9.79225
 11
12.395
 21
9.74455
  0
LINE
  8
0
 10
12.395
 20
9.74455
 11
12.653
 21
9.70134
  0
LINE
  8
0
 10
12.653
 20
9.70134
 11
12.912
 21
9.66264
  0
LINE
  8
0
 10
12.912
 20
9.66264
 11
13.172
 21
9.62846
  0
LINE
  8
0
 10
13.172
 20
9.62846
 11
13.432
 21
9.59883
  0
LINE
  8
0
 10
13.432
 20
9.59883
 11
13.693
 21
9.57375
  0
LINE
  8
0
 10
13.693
 20
9.57375
 11
13.954
 21
9.55321
  0
LINE
  8
0
 10
13.954
 20
9.55321
 11
14.215
 21
9.53722
  0
LINE
  8
0
 10
14.215
 20
9.53722
 11
14.477
 21
9.5258
  0
LINE
  8
0
 10
14.477
 20
9.5258
 11
14.738
 21
9.51895
  0
LINE
  8
0
 10
14.738
 20
9.51895
 11
15
 21
9.51666
  0
LINE
  8
0
 10
15
 20
9.51666
 11
20.242
 21
9.51666
  0
LINE
  8
0
 10
20.242
 20
9.51666
 11
20.242
 21
0
  0
LINE
  8
0
 10
20.242
 20
0
 11
39.758
 21
0
  0
LINE
  8
0
 10
39.758
 20
0
 11
39.758
 21
9.51666
  0
LINE
  8
0
 10
162.657
 20
169.034
 11
162.317
 21
169.084
  0
LINE
  8
0
 10
162.317
 20
169.084
 11
161.984
 21
169.168
  0
LINE
  8
0
 10
161.984
 20
169.168
 11
161.661
 21
169.283
  0
LINE
  8
0
 10
161.661
 20
169.283
 11
161.35
 21
169.43
  0
LINE
  8
0
 10
161.35
 20
169.43
 11
161.055
 21
169.607
  0
LINE
  8
0
 10
161.055
 20
169.607
 11
160.78
 21
169.811
  0
LINE
  8
0
 10
160.78
 20
169.811
 11
160.525
 21
170.042
  0
LINE
  8
0
 10
160.525
 20
170.042
 11
160.294
 21
170.297
  0
LINE
  8
0
 10
160.294
 20
170.297
 11
160.09
 21
170.573
  0
LINE
  8
0
 10
160.09
 20
170.573
 11
159.913
 21
170.867
  0
LINE
  8
0
 10
159.913
 20
170.867
 11
159.766
 21
171.178
  0
LINE
  8
0
 10
159.766
 20
171.178
 11
159.651
 21
171.501
  0
LINE
  8
0
 10
159.651
 20
171.501
 11
159.567
 21
171.834
  0
LINE
  8
0
 10
159.567
 20
171.834
 11
159.517
 21
172.174
  0
LINE
  8
0
 10
159.517
 20
172.174
 11
159.5
 21
172.517
  0
LINE
  8
0
 10
159.5
 20
172.517
 11
159.517
 21
172.86
  0
LINE
  8
0
 10
159.517
 20
172.86
 11
159.567
 21
173.2
  0
LINE
  8
0
 10
159.567
 20
173.2
 11
159.651
 21
173.533
  0
LINE
  8
0
 10
159.651
 20
173.533
 11
159.766
 21
173.856
  0
LINE
  8
0
 10
159.766
 20
173.856
 11
159.913
 21
174.167
  0
LINE
  8
0
 10
159.913
 20
174.167
 11
160.09
 21
174.461
  0
LINE
  8
0
 10
160.09
 20
174.461
 11
160.294
 21
174.737
  0
LINE
  8
0
 10
160.294
 20
174.737
 11
160.525
 21
174.992
  0
LINE
  8
0
 10
160.525
 20
174.992
 11
160.78
 21
175.223
  0
LINE
  8
0
 10
160.78
 20
175.223
 11
161.055
 21
175.427
  0
LINE
  8
0
 10
161.055
 20
175.427
 11
161.35
 21
175.604
  0
LINE
  8
0
 10
161.35
 20
175.604
 11
161.661
 21
175.751
  0
LINE
  8
0
 10
161.661
 20
175.751
 11
161.984
 21
175.866
  0
LINE
  8
0
 10
161.984
 20
175.866
 11
162.317
 21
175.95
  0
LINE
  8
0
 10
162.317
 20
175.95
 11
162.657
 21
176
  0
LINE
  8
0
 10
162.657
 20
176
 11
163
 21
176.017
  0
LINE
  8
0
 10
163
 20
176.017
 11
163.343
 21
176
  0
LINE
  8
0
 10
163.343
 20
176
 11
163.683
 21
175.95
  0
LINE
  8
0
 10
163.683
 20
175.95
 11
164.016
 21
175.866
  0
LINE
  8
0
 10
164.016
 20
175.866
 11
164.339
 21
175.751
  0
LINE
  8
0
 10
164.339
 20
175.751
 11
164.65
 21
175.604
  0
LINE
  8
0
 10
164.65
 20
175.604
 11
164.945
 21
175.427
  0
LINE
  8
0
 10
164.945
 20
175.427
 11
165.22
 21
175.223
  0
LINE
  8
0
 10
165.22
 20
175.223
 11
165.475
 21
174.992
  0
LINE
  8
0
 10
165.475
 20
174.992
 11
165.705
 21
174.737
  0
LINE
  8
0
 10
165.705
 20
174.737
 11
165.91
 21
174.461
  0
LINE
  8
0
 10
165.91
 20
174.461
 11
166.087
 21
174.167
  0
LINE
  8
0
 10
166.087
 20
174.167
 11
166.234
 21
173.856
  0
LINE
  8
0
 10
166.234
 20
173.856
 11
166.349
 21
173.533
  0
LINE
  8
0
 10
166.349
 20
173.533
 11
166.433
 21
173.2
  0
LINE
  8
0
 10
166.433
 20
173.2
 11
166.483
 21
172.86
  0
LINE
  8
0
 10
166.483
 20
172.86
 11
166.5
 21
172.517
  0
LINE
  8
0
 10
166.5
 20
172.517
 11
166.483
 21
172.174
  0
LINE
  8
0
 10
166.483
 20
172.174
 11
166.433
 21
171.834
  0
LINE
  8
0
 10
166.433
 20
171.834
 11
166.349
 21
171.501
  0
LINE
  8
0
 10
166.349
 20
171.501
 11
166.234
 21
171.178
  0
LINE
  8
0
 10
166.234
 20
171.178
 11
166.087
 21
170.867
  0
LINE
  8
0
 10
166.087
 20
170.867
 11
165.91
 21
170.573
  0
LINE
  8
0
 10
165.91
 20
170.573
 11
165.705
 21
170.297
  0
LINE
  8
0
 10
165.705
 20
170.297
 11
165.475
 21
170.042
  0
LINE
  8
0
 10
165.475
 20
170.042
 11
165.22
 21
169.811
  0
LINE
  8
0
 10
165.22
 20
169.811
 11
164.945
 21
169.607
  0
LINE
  8
0
 10
164.945
 20
169.607
 11
164.65
 21
169.43
  0
LINE
  8
0
 10
164.65
 20
169.43
 11
164.339
 21
169.283
  0
LINE
  8
0
 10
164.339
 20
169.283
 11
164.016
 21
169.168
  0
LINE
  8
0
 10
164.016
 20
169.168
 11
163.683
 21
169.084
  0
LINE
  8
0
 10
163.683
 20
169.084
 11
163.343
 21
169.034
  0
LINE
  8
0
 10
163.343
 20
169.034
 11
163
 21
169.017
  0
LINE
  8
0
 10
163
 20
169.017
 11
162.657
 21
169.034
  0
LINE
  8
0
 10
16.657
 20
169.034
 11
16.317
 21
169.084
  0
LINE
  8
0
 10
16.317
 20
169.084
 11
15.984
 21
169.168
  0
LINE
  8
0
 10
15.984
 20
169.168
 11
15.661
 21
169.283
  0
LINE
  8
0
 10
15.661
 20
169.283
 11
15.35
 21
169.43
  0
LINE
  8
0
 10
15.35
 20
169.43
 11
15.056
 21
169.607
  0
LINE
  8
0
 10
15.056
 20
169.607
 11
14.78
 21
169.811
  0
LINE
  8
0
 10
14.78
 20
169.811
 11
14.525
 21
170.042
  0
LINE
  8
0
 10
14.525
 20
170.042
 11
14.294
 21
170.297
  0
LINE
  8
0
 10
14.294
 20
170.297
 11
14.09
 21
170.573
  0
LINE
  8
0
 10
14.09
 20
170.573
 11
13.913
 21
170.867
  0
LINE
  8
0
 10
13.913
 20
170.867
 11
13.766
 21
171.178
  0
LINE
  8
0
 10
13.766
 20
171.178
 11
13.651
 21
171.501
  0
LINE
  8
0
 10
13.651
 20
171.501
 11
13.567
 21
171.834
  0
LINE
  8
0
 10
13.567
 20
171.834
 11
13.517
 21
172.174
  0
LINE
  8
0
 10
13.517
 20
172.174
 11
13.5
 21
172.517
  0
LINE
  8
0
 10
13.5
 20
172.517
 11
13.517
 21
172.86
  0
LINE
  8
0
 10
13.517
 20
172.86
 11
13.567
 21
173.2
  0
LINE
  8
0
 10
13.567
 20
173.2
 11
13.651
 21
173.533
  0
LINE
  8
0
 10
13.651
 20
173.533
 11
13.766
 21
173.856
  0
LINE
  8
0
 10
13.766
 20
173.856
 11
13.913
 21
174.167
  0
LINE
  8
0
 10
13.913
 20
174.167
 11
14.09
 21
174.461
  0
LINE
  8
0
 10
14.09
 20
174.461
 11
14.294
 21
174.737
  0
LINE
  8
0
 10
14.294
 20
174.737
 11
14.525
 21
174.992
  0
LINE
  8
0
 10
14.525
 20
174.992
 11
14.78
 21
175.223
  0
LINE
  8
0
 10
14.78
 20
175.223
 11
15.056
 21
175.427
  0
LINE
  8
0
 10
15.056
 20
175.427
 11
15.35
 21
175.604
  0
LINE
  8
0
 10
15.35
 20
175.604
 11
15.661
 21
175.751
  0
LINE
  8
0
 10
15.661
 20
175.751
 11
15.984
 21
175.866
  0
LINE
  8
0
 10
15.984
 20
175.866
 11
16.317
 21
175.95
  0
LINE
  8
0
 10
16.317
 20
175.95
 11
16.657
 21
176
  0
LINE
  8
0
 10
16.657
 20
176
 11
17
 21
176.017
  0
LINE
  8
0
 10
17
 20
176.017
 11
17.343
 21
176
  0
LINE
  8
0
 10
17.343
 20
176
 11
17.683
 21
175.95
  0
LINE
  8
0
 10
17.683
 20
175.95
 11
18.016
 21
175.866
  0
LINE
  8
0
 10
18.016
 20
175.866
 11
18.339
 21
175.751
  0
LINE
  8
0
 10
18.339
 20
175.751
 11
18.65
 21
175.604
  0
LINE
  8
0
 10
18.65
 20
175.604
 11
18.944
 21
175.427
  0
LINE
  8
0
 10
18.944
 20
175.427
 11
19.22
 21
175.223
  0
LINE
  8
0
 10
19.22
 20
175.223
 11
19.475
 21
174.992
  0
LINE
  8
0
 10
19.475
 20
174.992
 11
19.706
 21
174.737
  0
LINE
  8
0
 10
19.706
 20
174.737
 11
19.91
 21
174.461
  0
LINE
  8
0
 10
19.91
 20
174.461
 11
20.087
 21
174.167
  0
LINE
  8
0
 10
20.087
 20
174.167
 11
20.234
 21
173.856
  0
LINE
  8
0
 10
20.234
 20
173.856
 11
20.349
 21
173.533
  0
LINE
  8
0
 10
20.349
 20
173.533
 11
20.433
 21
173.2
  0
LINE
  8
0
 10
20.433
 20
173.2
 11
20.483
 21
172.86
  0
LINE
  8
0
 10
20.483
 20
172.86
 11
20.5
 21
172.517
  0
LINE
  8
0
 10
20.5
 20
172.517
 11
20.483
 21
172.174
  0
LINE
  8
0
 10
20.483
 20
172.174
 11
20.433
 21
171.834
  0
LINE
  8
0
 10
20.433
 20
171.834
 11
20.349
 21
171.501
  0
LINE
  8
0
 10
20.349
 20
171.501
 11
20.234
 21
171.178
  0
LINE
  8
0
 10
20.234
 20
171.178
 11
20.087
 21
170.867
  0
LINE
  8
0
 10
20.087
 20
170.867
 11
19.91
 21
170.573
  0
LINE
  8
0
 10
19.91
 20
170.573
 11
19.706
 21
170.297
  0
LINE
  8
0
 10
19.706
 20
170.297
 11
19.475
 21
170.042
  0
LINE
  8
0
 10
19.475
 20
170.042
 11
19.22
 21
169.811
  0
LINE
  8
0
 10
19.22
 20
169.811
 11
18.944
 21
169.607
  0
LINE
  8
0
 10
18.944
 20
169.607
 11
18.65
 21
169.43
  0
LINE
  8
0
 10
18.65
 20
169.43
 11
18.339
 21
169.283
  0
LINE
  8
0
 10
18.339
 20
169.283
 11
18.016
 21
169.168
  0
LINE
  8
0
 10
18.016
 20
169.168
 11
17.683
 21
169.084
  0
LINE
  8
0
 10
17.683
 20
169.084
 11
17.343
 21
169.034
  0
LINE
  8
0
 10
17.343
 20
169.034
 11
17
 21
169.017
  0
LINE
  8
0
 10
17
 20
169.017
 11
16.657
 21
169.034
  0
LINE
  8
0
 10
85.195
 20
154.267
 11
85.195
 21
166.267
  0
LINE
  8
0
 10
85.195
 20
166.267
 11
94.805
 21
166.267
  0
LINE
  8
0
 10
94.805
 20
166.267
 11
94.805
 21
154.267
  0
LINE
  8
0
 10
94.805
 20
154.267
 11
85.195
 21
154.267
  0
LINE
  8
0
 10
118.525
 20
154.267
 11
118.525
 21
166.267
  0
LINE
  8
0
 10
118.525
 20
166.267
 11
128.135
 21
166.267
  0
LINE
  8
0
 10
128.135
 20
166.267
 11
128.135
 21
154.267
  0
LINE
  8
0
 10
128.135
 20
154.267
 11
118.525
 21
154.267
  0
LINE
  8
0
 10
107.415
 20
154.267
 11
107.415
 21
166.267
  0
LINE
  8
0
 10
107.415
 20
166.267
 11
117.025
 21
166.267
  0
LINE
  8
0
 10
117.025
 20
166.267
 11
117.025
 21
154.267
  0
LINE
  8
0
 10
117.025
 20
154.267
 11
107.415
 21
154.267
  0
LINE
  8
0
 10
96.305
 20
154.267
 11
96.305
 21
166.267
  0
LINE
  8
0
 10
96.305
 20
166.267
 11
105.915
 21
166.267
  0
LINE
  8
0
 10
105.915
 20
166.267
 11
105.915
 21
154.267
  0
LINE
  8
0
 10
105.915
 20
154.267
 11
96.305
 21
154.267
  0
LINE
  8
0
 10
129.635
 20
154.267
 11
129.635
 21
166.267
  0
LINE
  8
0
 10
129.635
 20
166.267
 11
139.245
 21
166.267
  0
LINE
  8
0
 10
139.245
 20
166.267
 11
139.245
 21
154.267
  0
LINE
  8
0
 10
139.245
 20
154.267
 11
129.635
 21
154.267
  0
LINE
  8
0
 10
51.865
 20
154.267
 11
51.865
 21
166.267
  0
LINE
  8
0
 10
51.865
 20
166.267
 11
61.475
 21
166.267
  0
LINE
  8
0
 10
61.475
 20
166.267
 11
61.475
 21
154.267
  0
LINE
  8
0
 10
61.475
 20
154.267
 11
51.865
 21
154.267
  0
LINE
  8
0
 10
40.755
 20
154.267
 11
40.755
 21
166.267
  0
LINE
  8
0
 10
40.755
 20
166.267
 11
50.365
 21
166.267
  0
LINE
  8
0
 10
50.365
 20
166.267
 11
50.365
 21
154.267
  0
LINE
  8
0
 10
50.365
 20
154.267
 11
40.755
 21
154.267
  0
LINE
  8
0
 10
29.645
 20
154.267
 11
29.645
 21
166.267
  0
LINE
  8
0
 10
29.645
 20
166.267
 11
39.255
 21
166.267
  0
LINE
  8
0
 10
39.255
 20
166.267
 11
39.255
 21
154.267
  0
LINE
  8
0
 10
39.255
 20
154.267
 11
29.645
 21
154.267
  0
LINE
  8
0
 10
62.975
 20
154.267
 11
62.975
 21
166.267
  0
LINE
  8
0
 10
62.975
 20
166.267
 11
72.585
 21
166.267
  0
LINE
  8
0
 10
72.585
 20
166.267
 11
72.585
 21
154.267
  0
LINE
  8
0
 10
72.585
 20
154.267
 11
62.975
 21
154.267
  0
LINE
  8
0
 10
74.085
 20
154.267
 11
74.085
 21
166.267
  0
LINE
  8
0
 10
74.085
 20
166.267
 11
83.695
 21
166.267
  0
LINE
  8
0
 10
83.695
 20
166.267
 11
83.695
 21
154.267
  0
LINE
  8
0
 10
83.695
 20
154.267
 11
74.085
 21
154.267
  0
LINE
  8
0
 10
140.745
 20
154.267
 11
140.745
 21
166.267
  0
LINE
  8
0
 10
140.745
 20
166.267
 11
150.355
 21
166.267
  0
LINE
  8
0
 10
150.355
 20
166.267
 11
150.355
 21
154.267
  0
LINE
  8
0
 10
150.355
 20
154.267
 11
140.745
 21
154.267
  0
LINE
  8
0
 10
107.415
 20
140.767
 11
107.415
 21
152.767
  0
LINE
  8
0
 10
107.415
 20
152.767
 11
117.025
 21
152.767
  0
LINE
  8
0
 10
117.025
 20
152.767
 11
117.025
 21
140.767
  0
LINE
  8
0
 10
117.025
 20
140.767
 11
107.415
 21
140.767
  0
LINE
  8
0
 10
74.085
 20
140.767
 11
74.085
 21
152.767
  0
LINE
  8
0
 10
74.085
 20
152.767
 11
83.695
 21
152.767
  0
LINE
  8
0
 10
83.695
 20
152.767
 11
83.695
 21
140.767
  0
LINE
  8
0
 10
83.695
 20
140.767
 11
74.085
 21
140.767
  0
LINE
  8
0
 10
62.975
 20
140.767
 11
62.975
 21
152.767
  0
LINE
  8
0
 10
62.975
 20
152.767
 11
72.585
 21
152.767
  0
LINE
  8
0
 10
72.585
 20
152.767
 11
72.585
 21
140.767
  0
LINE
  8
0
 10
72.585
 20
140.767
 11
62.975
 21
140.767
  0
LINE
  8
0
 10
51.865
 20
140.767
 11
51.865
 21
152.767
  0
LINE
  8
0
 10
51.865
 20
152.767
 11
61.475
 21
152.767
  0
LINE
  8
0
 10
61.475
 20
152.767
 11
61.475
 21
140.767
  0
LINE
  8
0
 10
61.475
 20
140.767
 11
51.865
 21
140.767
  0
LINE
  8
0
 10
29.645
 20
140.767
 11
29.645
 21
152.767
  0
LINE
  8
0
 10
29.645
 20
152.767
 11
39.255
 21
152.767
  0
LINE
  8
0
 10
39.255
 20
152.767
 11
39.255
 21
140.767
  0
LINE
  8
0
 10
39.255
 20
140.767
 11
29.645
 21
140.767
  0
LINE
  8
0
 10
85.195
 20
140.767
 11
85.195
 21
152.767
  0
LINE
  8
0
 10
85.195
 20
152.767
 11
94.805
 21
152.767
  0
LINE
  8
0
 10
94.805
 20
152.767
 11
94.805
 21
140.767
  0
LINE
  8
0
 10
94.805
 20
140.767
 11
85.195
 21
140.767
  0
LINE
  8
0
 10
40.755
 20
140.767
 11
40.755
 21
152.767
  0
LINE
  8
0
 10
40.755
 20
152.767
 11
50.365
 21
152.767
  0
LINE
  8
0
 10
50.365
 20
152.767
 11
50.365
 21
140.767
  0
LINE
  8
0
 10
50.365
 20
140.767
 11
40.755
 21
140.767
  0
LINE
  8
0
 10
96.305
 20
140.767
 11
96.305
 21
152.767
  0
LINE
  8
0
 10
96.305
 20
152.767
 11
105.915
 21
152.767
  0
LINE
  8
0
 10
105.915
 20
152.767
 11
105.915
 21
140.767
  0
LINE
  8
0
 10
105.915
 20
140.767
 11
96.305
 21
140.767
  0
LINE
  8
0
 10
129.635
 20
140.767
 11
129.635
 21
152.767
  0
LINE
  8
0
 10
129.635
 20
152.767
 11
139.245
 21
152.767
  0
LINE
  8
0
 10
139.245
 20
152.767
 11
139.245
 21
140.767
  0
LINE
  8
0
 10
139.245
 20
140.767
 11
129.635
 21
140.767
  0
LINE
  8
0
 10
118.525
 20
140.767
 11
118.525
 21
152.767
  0
LINE
  8
0
 10
118.525
 20
152.767
 11
128.135
 21
152.767
  0
LINE
  8
0
 10
128.135
 20
152.767
 11
128.135
 21
140.767
  0
LINE
  8
0
 10
128.135
 20
140.767
 11
118.525
 21
140.767
  0
LINE
  8
0
 10
140.745
 20
140.767
 11
140.745
 21
152.767
  0
LINE
  8
0
 10
140.745
 20
152.767
 11
150.355
 21
152.767
  0
LINE
  8
0
 10
150.355
 20
152.767
 11
150.355
 21
140.767
  0
LINE
  8
0
 10
150.355
 20
140.767
 11
140.745
 21
140.767
  0
LINE
  8
0
 10
140.745
 20
127.267
 11
140.745
 21
139.267
  0
LINE
  8
0
 10
140.745
 20
139.267
 11
150.355
 21
139.267
  0
LINE
  8
0
 10
150.355
 20
139.267
 11
150.355
 21
127.267
  0
LINE
  8
0
 10
150.355
 20
127.267
 11
140.745
 21
127.267
  0
LINE
  8
0
 10
85.195
 20
127.267
 11
85.195
 21
139.267
  0
LINE
  8
0
 10
85.195
 20
139.267
 11
94.805
 21
139.267
  0
LINE
  8
0
 10
94.805
 20
139.267
 11
94.805
 21
127.267
  0
LINE
  8
0
 10
94.805
 20
127.267
 11
85.195
 21
127.267
  0
LINE
  8
0
 10
96.305
 20
127.267
 11
96.305
 21
139.267
  0
LINE
  8
0
 10
96.305
 20
139.267
 11
105.915
 21
139.267
  0
LINE
  8
0
 10
105.915
 20
139.267
 11
105.915
 21
127.267
  0
LINE
  8
0
 10
105.915
 20
127.267
 11
96.305
 21
127.267
  0
LINE
  8
0
 10
107.415
 20
127.267
 11
107.415
 21
139.267
  0
LINE
  8
0
 10
107.415
 20
139.267
 11
117.025
 21
139.267
  0
LINE
  8
0
 10
117.025
 20
139.267
 11
117.025
 21
127.267
  0
LINE
  8
0
 10
117.025
 20
127.267
 11
107.415
 21
127.267
  0
LINE
  8
0
 10
118.525
 20
127.267
 11
118.525
 21
139.267
  0
LINE
  8
0
 10
118.525
 20
139.267
 11
128.135
 21
139.267
  0
LINE
  8
0
 10
128.135
 20
139.267
 11
128.135
 21
127.267
  0
LINE
  8
0
 10
128.135
 20
127.267
 11
118.525
 21
127.267
  0
LINE
  8
0
 10
40.755
 20
127.267
 11
40.755
 21
139.267
  0
LINE
  8
0
 10
40.755
 20
139.267
 11
50.365
 21
139.267
  0
LINE
  8
0
 10
50.365
 20
139.267
 11
50.365
 21
127.267
  0
LINE
  8
0
 10
50.365
 20
127.267
 11
40.755
 21
127.267
  0
LINE
  8
0
 10
29.645
 20
127.267
 11
29.645
 21
139.267
  0
LINE
  8
0
 10
29.645
 20
139.267
 11
39.255
 21
139.267
  0
LINE
  8
0
 10
39.255
 20
139.267
 11
39.255
 21
127.267
  0
LINE
  8
0
 10
39.255
 20
127.267
 11
29.645
 21
127.267
  0
LINE
  8
0
 10
51.865
 20
127.267
 11
51.865
 21
139.267
  0
LINE
  8
0
 10
51.865
 20
139.267
 11
61.475
 21
139.267
  0
LINE
  8
0
 10
61.475
 20
139.267
 11
61.475
 21
127.267
  0
LINE
  8
0
 10
61.475
 20
127.267
 11
51.865
 21
127.267
  0
LINE
  8
0
 10
74.085
 20
127.267
 11
74.085
 21
139.267
  0
LINE
  8
0
 10
74.085
 20
139.267
 11
83.695
 21
139.267
  0
LINE
  8
0
 10
83.695
 20
139.267
 11
83.695
 21
127.267
  0
LINE
  8
0
 10
83.695
 20
127.267
 11
74.085
 21
127.267
  0
LINE
  8
0
 10
129.635
 20
127.267
 11
129.635
 21
139.267
  0
LINE
  8
0
 10
129.635
 20
139.267
 11
139.245
 21
139.267
  0
LINE
  8
0
 10
139.245
 20
139.267
 11
139.245
 21
127.267
  0
LINE
  8
0
 10
139.245
 20
127.267
 11
129.635
 21
127.267
  0
LINE
  8
0
 10
72.585
 20
127.267
 11
62.975
 21
127.267
  0
LINE
  8
0
 10
62.975
 20
127.267
 11
62.975
 21
139.267
  0
LINE
  8
0
 10
62.975
 20
139.267
 11
72.585
 21
139.267
  0
LINE
  8
0
 10
72.585
 20
139.267
 11
72.585
 21
127.267
  0
LINE
  8
0
 10
85.195
 20
113.767
 11
85.195
 21
125.767
  0
LINE
  8
0
 10
85.195
 20
125.767
 11
94.805
 21
125.767
  0
LINE
  8
0
 10
94.805
 20
125.767
 11
94.805
 21
113.767
  0
LINE
  8
0
 10
94.805
 20
113.767
 11
85.195
 21
113.767
  0
LINE
  8
0
 10
118.525
 20
113.767
 11
118.525
 21
125.767
  0
LINE
  8
0
 10
118.525
 20
125.767
 11
128.135
 21
125.767
  0
LINE
  8
0
 10
128.135
 20
125.767
 11
128.135
 21
113.767
  0
LINE
  8
0
 10
128.135
 20
113.767
 11
118.525
 21
113.767
  0
LINE
  8
0
 10
62.975
 20
113.767
 11
62.975
 21
125.767
  0
LINE
  8
0
 10
62.975
 20
125.767
 11
72.585
 21
125.767
  0
LINE
  8
0
 10
72.585
 20
125.767
 11
72.585
 21
113.767
  0
LINE
  8
0
 10
72.585
 20
113.767
 11
62.975
 21
113.767
  0
LINE
  8
0
 10
29.645
 20
113.767
 11
29.645
 21
125.767
  0
LINE
  8
0
 10
29.645
 20
125.767
 11
39.255
 21
125.767
  0
LINE
  8
0
 10
39.255
 20
125.767
 11
39.255
 21
113.767
  0
LINE
  8
0
 10
39.255
 20
113.767
 11
29.645
 21
113.767
  0
LINE
  8
0
 10
107.415
 20
113.767
 11
107.415
 21
125.767
  0
LINE
  8
0
 10
107.415
 20
125.767
 11
117.025
 21
125.767
  0
LINE
  8
0
 10
117.025
 20
125.767
 11
117.025
 21
113.767
  0
LINE
  8
0
 10
117.025
 20
113.767
 11
107.415
 21
113.767
  0
LINE
  8
0
 10
51.865
 20
113.767
 11
51.865
 21
125.767
  0
LINE
  8
0
 10
51.865
 20
125.767
 11
61.475
 21
125.767
  0
LINE
  8
0
 10
61.475
 20
125.767
 11
61.475
 21
113.767
  0
LINE
  8
0
 10
61.475
 20
113.767
 11
51.865
 21
113.767
  0
LINE
  8
0
 10
40.755
 20
113.767
 11
40.755
 21
125.767
  0
LINE
  8
0
 10
40.755
 20
125.767
 11
50.365
 21
125.767
  0
LINE
  8
0
 10
50.365
 20
125.767
 11
50.365
 21
113.767
  0
LINE
  8
0
 10
50.365
 20
113.767
 11
40.755
 21
113.767
  0
LINE
  8
0
 10
140.745
 20
113.767
 11
140.745
 21
125.767
  0
LINE
  8
0
 10
140.745
 20
125.767
 11
150.355
 21
125.767
  0
LINE
  8
0
 10
150.355
 20
125.767
 11
150.355
 21
113.767
  0
LINE
  8
0
 10
150.355
 20
113.767
 11
140.745
 21
113.767
  0
LINE
  8
0
 10
129.635
 20
113.767
 11
129.635
 21
125.767
  0
LINE
  8
0
 10
129.635
 20
125.767
 11
139.245
 21
125.767
  0
LINE
  8
0
 10
139.245
 20
125.767
 11
139.245
 21
113.767
  0
LINE
  8
0
 10
139.245
 20
113.767
 11
129.635
 21
113.767
  0
LINE
  8
0
 10
96.305
 20
113.767
 11
96.305
 21
125.767
  0
LINE
  8
0
 10
96.305
 20
125.767
 11
105.915
 21
125.767
  0
LINE
  8
0
 10
105.915
 20
125.767
 11
105.915
 21
113.767
  0
LINE
  8
0
 10
105.915
 20
113.767
 11
96.305
 21
113.767
  0
LINE
  8
0
 10
83.695
 20
113.767
 11
74.085
 21
113.767
  0
LINE
  8
0
 10
74.085
 20
113.767
 11
74.085
 21
125.767
  0
LINE
  8
0
 10
74.085
 20
125.767
 11
83.695
 21
125.767
  0
LINE
  8
0
 10
83.695
 20
125.767
 11
83.695
 21
113.767
  0
LINE
  8
0
 10
107.415
 20
100.267
 11
107.415
 21
112.267
  0
LINE
  8
0
 10
107.415
 20
112.267
 11
117.025
 21
112.267
  0
LINE
  8
0
 10
117.025
 20
112.267
 11
117.025
 21
100.267
  0
LINE
  8
0
 10
117.025
 20
100.267
 11
107.415
 21
100.267
  0
LINE
  8
0
 10
118.525
 20
100.267
 11
118.525
 21
112.267
  0
LINE
  8
0
 10
118.525
 20
112.267
 11
128.135
 21
112.267
  0
LINE
  8
0
 10
128.135
 20
112.267
 11
128.135
 21
100.267
  0
LINE
  8
0
 10
128.135
 20
100.267
 11
118.525
 21
100.267
  0
LINE
  8
0
 10
74.085
 20
100.267
 11
74.085
 21
112.267
  0
LINE
  8
0
 10
74.085
 20
112.267
 11
83.695
 21
112.267
  0
LINE
  8
0
 10
83.695
 20
112.267
 11
83.695
 21
100.267
  0
LINE
  8
0
 10
83.695
 20
100.267
 11
74.085
 21
100.267
  0
LINE
  8
0
 10
96.305
 20
100.267
 11
96.305
 21
112.267
  0
LINE
  8
0
 10
96.305
 20
112.267
 11
105.915
 21
112.267
  0
LINE
  8
0
 10
105.915
 20
112.267
 11
105.915
 21
100.267
  0
LINE
  8
0
 10
105.915
 20
100.267
 11
96.305
 21
100.267
  0
LINE
  8
0
 10
40.755
 20
112.267
 11
50.365
 21
112.267
  0
LINE
  8
0
 10
50.365
 20
112.267
 11
50.365
 21
100.267
  0
LINE
  8
0
 10
50.365
 20
100.267
 11
40.755
 21
100.267
  0
LINE
  8
0
 10
40.755
 20
100.267
 11
40.755
 21
112.267
  0
LINE
  8
0
 10
62.975
 20
100.267
 11
62.975
 21
112.267
  0
LINE
  8
0
 10
62.975
 20
112.267
 11
72.585
 21
112.267
  0
LINE
  8
0
 10
72.585
 20
112.267
 11
72.585
 21
100.267
  0
LINE
  8
0
 10
72.585
 20
100.267
 11
62.975
 21
100.267
  0
LINE
  8
0
 10
29.645
 20
100.267
 11
29.645
 21
112.267
  0
LINE
  8
0
 10
29.645
 20
112.267
 11
39.255
 21
112.267
  0
LINE
  8
0
 10
39.255
 20
112.267
 11
39.255
 21
100.267
  0
LINE
  8
0
 10
39.255
 20
100.267
 11
29.645
 21
100.267
  0
LINE
  8
0
 10
129.635
 20
100.267
 11
129.635
 21
112.267
  0
LINE
  8
0
 10
129.635
 20
112.267
 11
139.245
 21
112.267
  0
LINE
  8
0
 10
139.245
 20
112.267
 11
139.245
 21
100.267
  0
LINE
  8
0
 10
139.245
 20
100.267
 11
129.635
 21
100.267
  0
LINE
  8
0
 10
85.195
 20
100.267
 11
85.195
 21
112.267
  0
LINE
  8
0
 10
85.195
 20
112.267
 11
94.805
 21
112.267
  0
LINE
  8
0
 10
94.805
 20
112.267
 11
94.805
 21
100.267
  0
LINE
  8
0
 10
94.805
 20
100.267
 11
85.195
 21
100.267
  0
LINE
  8
0
 10
140.745
 20
100.267
 11
140.745
 21
112.267
  0
LINE
  8
0
 10
140.745
 20
112.267
 11
150.355
 21
112.267
  0
LINE
  8
0
 10
150.355
 20
112.267
 11
150.355
 21
100.267
  0
LINE
  8
0
 10
150.355
 20
100.267
 11
140.745
 21
100.267
  0
LINE
  8
0
 10
29.645
 20
86.7667
 11
29.645
 21
98.7667
  0
LINE
  8
0
 10
29.645
 20
98.7667
 11
39.255
 21
98.7667
  0
LINE
  8
0
 10
39.255
 20
98.7667
 11
39.255
 21
86.7667
  0
LINE
  8
0
 10
39.255
 20
86.7667
 11
29.645
 21
86.7667
  0
LINE
  8
0
 10
129.635
 20
86.7667
 11
129.635
 21
98.7667
  0
LINE
  8
0
 10
129.635
 20
98.7667
 11
139.245
 21
98.7667
  0
LINE
  8
0
 10
139.245
 20
98.7667
 11
139.245
 21
86.7667
  0
LINE
  8
0
 10
139.245
 20
86.7667
 11
129.635
 21
86.7667
  0
LINE
  8
0
 10
118.525
 20
86.7667
 11
118.525
 21
98.7667
  0
LINE
  8
0
 10
118.525
 20
98.7667
 11
128.135
 21
98.7667
  0
LINE
  8
0
 10
128.135
 20
98.7667
 11
128.135
 21
86.7667
  0
LINE
  8
0
 10
128.135
 20
86.7667
 11
118.525
 21
86.7667
  0
LINE
  8
0
 10
96.305
 20
86.7667
 11
96.305
 21
98.7667
  0
LINE
  8
0
 10
96.305
 20
98.7667
 11
105.915
 21
98.7667
  0
LINE
  8
0
 10
105.915
 20
98.7667
 11
105.915
 21
86.7667
  0
LINE
  8
0
 10
105.915
 20
86.7667
 11
96.305
 21
86.7667
  0
LINE
  8
0
 10
51.865
 20
98.7667
 11
61.475
 21
98.7667
  0
LINE
  8
0
 10
61.475
 20
98.7667
 11
61.475
 21
86.7667
  0
LINE
  8
0
 10
61.475
 20
86.7667
 11
51.865
 21
86.7667
  0
LINE
  8
0
 10
51.865
 20
86.7667
 11
51.865
 21
98.7667
  0
LINE
  8
0
 10
40.755
 20
86.7667
 11
40.755
 21
98.7667
  0
LINE
  8
0
 10
40.755
 20
98.7667
 11
50.365
 21
98.7667
  0
LINE
  8
0
 10
50.365
 20
98.7667
 11
50.365
 21
86.7667
  0
LINE
  8
0
 10
50.365
 20
86.7667
 11
40.755
 21
86.7667
  0
LINE
  8
0
 10
107.415
 20
86.7667
 11
107.415
 21
98.7667
  0
LINE
  8
0
 10
107.415
 20
98.7667
 11
117.025
 21
98.7667
  0
LINE
  8
0
 10
117.025
 20
98.7667
 11
117.025
 21
86.7667
  0
LINE
  8
0
 10
117.025
 20
86.7667
 11
107.415
 21
86.7667
  0
LINE
  8
0
 10
85.195
 20
86.7667
 11
85.195
 21
98.7667
  0
LINE
  8
0
 10
85.195
 20
98.7667
 11
94.805
 21
98.7667
  0
LINE
  8
0
 10
94.805
 20
98.7667
 11
94.805
 21
86.7667
  0
LINE
  8
0
 10
94.805
 20
86.7667
 11
85.195
 21
86.7667
  0
LINE
  8
0
 10
140.745
 20
86.7667
 11
140.745
 21
98.7667
  0
LINE
  8
0
 10
140.745
 20
98.7667
 11
150.355
 21
98.7667
  0
LINE
  8
0
 10
150.355
 20
98.7667
 11
150.355
 21
86.7667
  0
LINE
  8
0
 10
150.355
 20
86.7667
 11
140.745
 21
86.7667
  0
LINE
  8
0
 10
62.975
 20
73.2667
 11
62.975
 21
85.2667
  0
LINE
  8
0
 10
62.975
 20
85.2667
 11
72.585
 21
85.2667
  0
LINE
  8
0
 10
72.585
 20
85.2667
 11
72.585
 21
73.2667
  0
LINE
  8
0
 10
72.585
 20
73.2667
 11
62.975
 21
73.2667
  0
LINE
  8
0
 10
129.635
 20
73.2667
 11
129.635
 21
85.2667
  0
LINE
  8
0
 10
129.635
 20
85.2667
 11
139.245
 21
85.2667
  0
LINE
  8
0
 10
139.245
 20
85.2667
 11
139.245
 21
73.2667
  0
LINE
  8
0
 10
139.245
 20
73.2667
 11
129.635
 21
73.2667
  0
LINE
  8
0
 10
96.305
 20
73.2667
 11
96.305
 21
85.2667
  0
LINE
  8
0
 10
96.305
 20
85.2667
 11
105.915
 21
85.2667
  0
LINE
  8
0
 10
105.915
 20
85.2667
 11
105.915
 21
73.2667
  0
LINE
  8
0
 10
105.915
 20
73.2667
 11
96.305
 21
73.2667
  0
LINE
  8
0
 10
85.195
 20
73.2667
 11
85.195
 21
85.2667
  0
LINE
  8
0
 10
85.195
 20
85.2667
 11
94.805
 21
85.2667
  0
LINE
  8
0
 10
94.805
 20
85.2667
 11
94.805
 21
73.2667
  0
LINE
  8
0
 10
94.805
 20
73.2667
 11
85.195
 21
73.2667
  0
LINE
  8
0
 10
29.645
 20
73.2667
 11
29.645
 21
85.2667
  0
LINE
  8
0
 10
29.645
 20
85.2667
 11
39.255
 21
85.2667
  0
LINE
  8
0
 10
39.255
 20
85.2667
 11
39.255
 21
73.2667
  0
LINE
  8
0
 10
39.255
 20
73.2667
 11
29.645
 21
73.2667
  0
LINE
  8
0
 10
118.525
 20
73.2667
 11
118.525
 21
85.2667
  0
LINE
  8
0
 10
118.525
 20
85.2667
 11
128.135
 21
85.2667
  0
LINE
  8
0
 10
128.135
 20
85.2667
 11
128.135
 21
73.2667
  0
LINE
  8
0
 10
128.135
 20
73.2667
 11
118.525
 21
73.2667
  0
LINE
  8
0
 10
51.865
 20
73.2667
 11
51.865
 21
85.2667
  0
LINE
  8
0
 10
51.865
 20
85.2667
 11
61.475
 21
85.2667
  0
LINE
  8
0
 10
61.475
 20
85.2667
 11
61.475
 21
73.2667
  0
LINE
  8
0
 10
61.475
 20
73.2667
 11
51.865
 21
73.2667
  0
LINE
  8
0
 10
40.755
 20
73.2667
 11
40.755
 21
85.2667
  0
LINE
  8
0
 10
40.755
 20
85.2667
 11
50.365
 21
85.2667
  0
LINE
  8
0
 10
50.365
 20
85.2667
 11
50.365
 21
73.2667
  0
LINE
  8
0
 10
50.365
 20
73.2667
 11
40.755
 21
73.2667
  0
LINE
  8
0
 10
107.415
 20
73.2667
 11
107.415
 21
85.2667
  0
LINE
  8
0
 10
107.415
 20
85.2667
 11
117.025
 21
85.2667
  0
LINE
  8
0
 10
117.025
 20
85.2667
 11
117.025
 21
73.2667
  0
LINE
  8
0
 10
117.025
 20
73.2667
 11
107.415
 21
73.2667
  0
LINE
  8
0
 10
74.085
 20
73.2667
 11
74.085
 21
85.2667
  0
LINE
  8
0
 10
74.085
 20
85.2667
 11
83.695
 21
85.2667
  0
LINE
  8
0
 10
83.695
 20
85.2667
 11
83.695
 21
73.2667
  0
LINE
  8
0
 10
83.695
 20
73.2667
 11
74.085
 21
73.2667
  0
LINE
  8
0
 10
140.745
 20
73.2667
 11
140.745
 21
85.2667
  0
LINE
  8
0
 10
140.745
 20
85.2667
 11
150.355
 21
85.2667
  0
LINE
  8
0
 10
150.355
 20
85.2667
 11
150.355
 21
73.2667
  0
LINE
  8
0
 10
150.355
 20
73.2667
 11
140.745
 21
73.2667
  0
LINE
  8
0
 10
107.415
 20
59.7667
 11
107.415
 21
71.7667
  0
LINE
  8
0
 10
107.415
 20
71.7667
 11
117.025
 21
71.7667
  0
LINE
  8
0
 10
117.025
 20
71.7667
 11
117.025
 21
59.7667
  0
LINE
  8
0
 10
117.025
 20
59.7667
 11
107.415
 21
59.7667
  0
LINE
  8
0
 10
40.755
 20
71.7667
 11
50.365
 21
71.7667
  0
LINE
  8
0
 10
50.365
 20
71.7667
 11
50.365
 21
59.7667
  0
LINE
  8
0
 10
50.365
 20
59.7667
 11
40.755
 21
59.7667
  0
LINE
  8
0
 10
40.755
 20
59.7667
 11
40.755
 21
71.7667
  0
LINE
  8
0
 10
62.975
 20
59.7667
 11
62.975
 21
71.7667
  0
LINE
  8
0
 10
62.975
 20
71.7667
 11
72.585
 21
71.7667
  0
LINE
  8
0
 10
72.585
 20
71.7667
 11
72.585
 21
59.7667
  0
LINE
  8
0
 10
72.585
 20
59.7667
 11
62.975
 21
59.7667
  0
LINE
  8
0
 10
74.085
 20
59.7667
 11
74.085
 21
71.7667
  0
LINE
  8
0
 10
74.085
 20
71.7667
 11
83.695
 21
71.7667
  0
LINE
  8
0
 10
83.695
 20
71.7667
 11
83.695
 21
59.7667
  0
LINE
  8
0
 10
83.695
 20
59.7667
 11
74.085
 21
59.7667
  0
LINE
  8
0
 10
29.645
 20
59.7667
 11
29.645
 21
71.7667
  0
LINE
  8
0
 10
29.645
 20
71.7667
 11
39.255
 21
71.7667
  0
LINE
  8
0
 10
39.255
 20
71.7667
 11
39.255
 21
59.7667
  0
LINE
  8
0
 10
39.255
 20
59.7667
 11
29.645
 21
59.7667
  0
LINE
  8
0
 10
85.195
 20
59.7667
 11
85.195
 21
71.7667
  0
LINE
  8
0
 10
85.195
 20
71.7667
 11
94.805
 21
71.7667
  0
LINE
  8
0
 10
94.805
 20
71.7667
 11
94.805
 21
59.7667
  0
LINE
  8
0
 10
94.805
 20
59.7667
 11
85.195
 21
59.7667
  0
LINE
  8
0
 10
96.305
 20
59.7667
 11
96.305
 21
71.7667
  0
LINE
  8
0
 10
96.305
 20
71.7667
 11
105.915
 21
71.7667
  0
LINE
  8
0
 10
105.915
 20
71.7667
 11
105.915
 21
59.7667
  0
LINE
  8
0
 10
105.915
 20
59.7667
 11
96.305
 21
59.7667
  0
LINE
  8
0
 10
129.635
 20
71.7667
 11
139.245
 21
71.7667
  0
LINE
  8
0
 10
139.245
 20
71.7667
 11
139.245
 21
59.7667
  0
LINE
  8
0
 10
139.245
 20
59.7667
 11
129.635
 21
59.7667
  0
LINE
  8
0
 10
129.635
 20
59.7667
 11
129.635
 21
71.7667
  0
LINE
  8
0
 10
118.525
 20
59.7667
 11
118.525
 21
71.7667
  0
LINE
  8
0
 10
118.525
 20
71.7667
 11
128.135
 21
71.7667
  0
LINE
  8
0
 10
128.135
 20
71.7667
 11
128.135
 21
59.7667
  0
LINE
  8
0
 10
128.135
 20
59.7667
 11
118.525
 21
59.7667
  0
LINE
  8
0
 10
118.525
 20
46.2667
 11
118.525
 21
58.2667
  0
LINE
  8
0
 10
118.525
 20
58.2667
 11
128.135
 21
58.2667
  0
LINE
  8
0
 10
128.135
 20
58.2667
 11
128.135
 21
46.2667
  0
LINE
  8
0
 10
128.135
 20
46.2667
 11
118.525
 21
46.2667
  0
LINE
  8
0
 10
40.755
 20
46.2667
 11
40.755
 21
58.2667
  0
LINE
  8
0
 10
40.755
 20
58.2667
 11
50.365
 21
58.2667
  0
LINE
  8
0
 10
50.365
 20
58.2667
 11
50.365
 21
46.2667
  0
LINE
  8
0
 10
50.365
 20
46.2667
 11
40.755
 21
46.2667
  0
LINE
  8
0
 10
96.305
 20
58.2667
 11
105.915
 21
58.2667
  0
LINE
  8
0
 10
105.915
 20
58.2667
 11
105.915
 21
46.2667
  0
LINE
  8
0
 10
105.915
 20
46.2667
 11
96.305
 21
46.2667
  0
LINE
  8
0
 10
96.305
 20
46.2667
 11
96.305
 21
58.2667
  0
LINE
  8
0
 10
74.085
 20
46.2667
 11
74.085
 21
58.2667
  0
LINE
  8
0
 10
74.085
 20
58.2667
 11
83.695
 21
58.2667
  0
LINE
  8
0
 10
83.695
 20
58.2667
 11
83.695
 21
46.2667
  0
LINE
  8
0
 10
83.695
 20
46.2667
 11
74.085
 21
46.2667
  0
LINE
  8
0
 10
129.635
 20
46.2667
 11
129.635
 21
58.2667
  0
LINE
  8
0
 10
129.635
 20
58.2667
 11
139.245
 21
58.2667
  0
LINE
  8
0
 10
139.245
 20
58.2667
 11
139.245
 21
46.2667
  0
LINE
  8
0
 10
139.245
 20
46.2667
 11
129.635
 21
46.2667
  0
LINE
  8
0
 10
51.865
 20
58.2667
 11
61.475
 21
58.2667
  0
LINE
  8
0
 10
61.475
 20
58.2667
 11
61.475
 21
46.2667
  0
LINE
  8
0
 10
61.475
 20
46.2667
 11
51.865
 21
46.2667
  0
LINE
  8
0
 10
51.865
 20
46.2667
 11
51.865
 21
58.2667
  0
LINE
  8
0
 10
140.745
 20
46.2667
 11
140.745
 21
58.2667
  0
LINE
  8
0
 10
140.745
 20
58.2667
 11
150.355
 21
58.2667
  0
LINE
  8
0
 10
150.355
 20
58.2667
 11
150.355
 21
46.2667
  0
LINE
  8
0
 10
150.355
 20
46.2667
 11
140.745
 21
46.2667
  0
LINE
  8
0
 10
29.645
 20
46.2667
 11
29.645
 21
58.2667
  0
LINE
  8
0
 10
29.645
 20
58.2667
 11
39.255
 21
58.2667
  0
LINE
  8
0
 10
39.255
 20
58.2667
 11
39.255
 21
46.2667
  0
LINE
  8
0
 10
39.255
 20
46.2667
 11
29.645
 21
46.2667
  0
LINE
  8
0
 10
85.195
 20
46.2667
 11
85.195
 21
58.2667
  0
LINE
  8
0
 10
85.195
 20
58.2667
 11
94.805
 21
58.2667
  0
LINE
  8
0
 10
94.805
 20
58.2667
 11
94.805
 21
46.2667
  0
LINE
  8
0
 10
94.805
 20
46.2667
 11
85.195
 21
46.2667
  0
LINE
  8
0
 10
107.415
 20
32.7667
 11
107.415
 21
44.7667
  0
LINE
  8
0
 10
107.415
 20
44.7667
 11
117.025
 21
44.7667
  0
LINE
  8
0
 10
117.025
 20
44.7667
 11
117.025
 21
32.7667
  0
LINE
  8
0
 10
117.025
 20
32.7667
 11
107.415
 21
32.7667
  0
LINE
  8
0
 10
96.305
 20
32.7667
 11
96.305
 21
44.7667
  0
LINE
  8
0
 10
96.305
 20
44.7667
 11
105.915
 21
44.7667
  0
LINE
  8
0
 10
105.915
 20
44.7667
 11
105.915
 21
32.7667
  0
LINE
  8
0
 10
105.915
 20
32.7667
 11
96.305
 21
32.7667
  0
LINE
  8
0
 10
85.195
 20
32.7667
 11
85.195
 21
44.7667
  0
LINE
  8
0
 10
85.195
 20
44.7667
 11
94.805
 21
44.7667
  0
LINE
  8
0
 10
94.805
 20
44.7667
 11
94.805
 21
32.7667
  0
LINE
  8
0
 10
94.805
 20
32.7667
 11
85.195
 21
32.7667
  0
LINE
  8
0
 10
74.085
 20
32.7667
 11
74.085
 21
44.7667
  0
LINE
  8
0
 10
74.085
 20
44.7667
 11
83.695
 21
44.7667
  0
LINE
  8
0
 10
83.695
 20
44.7667
 11
83.695
 21
32.7667
  0
LINE
  8
0
 10
83.695
 20
32.7667
 11
74.085
 21
32.7667
  0
LINE
  8
0
 10
51.865
 20
32.7667
 11
51.865
 21
44.7667
  0
LINE
  8
0
 10
51.865
 20
44.7667
 11
61.475
 21
44.7667
  0
LINE
  8
0
 10
61.475
 20
44.7667
 11
61.475
 21
32.7667
  0
LINE
  8
0
 10
61.475
 20
32.7667
 11
51.865
 21
32.7667
  0
LINE
  8
0
 10
29.645
 20
32.7667
 11
29.645
 21
44.7667
  0
LINE
  8
0
 10
29.645
 20
44.7667
 11
39.255
 21
44.7667
  0
LINE
  8
0
 10
39.255
 20
44.7667
 11
39.255
 21
32.7667
  0
LINE
  8
0
 10
39.255
 20
32.7667
 11
29.645
 21
32.7667
  0
LINE
  8
0
 10
62.975
 20
32.7667
 11
62.975
 21
44.7667
  0
LINE
  8
0
 10
62.975
 20
44.7667
 11
72.585
 21
44.7667
  0
LINE
  8
0
 10
72.585
 20
44.7667
 11
72.585
 21
32.7667
  0
LINE
  8
0
 10
72.585
 20
32.7667
 11
62.975
 21
32.7667
  0
LINE
  8
0
 10
118.525
 20
32.7667
 11
118.525
 21
44.7667
  0
LINE
  8
0
 10
118.525
 20
44.7667
 11
128.135
 21
44.7667
  0
LINE
  8
0
 10
128.135
 20
44.7667
 11
128.135
 21
32.7667
  0
LINE
  8
0
 10
128.135
 20
32.7667
 11
118.525
 21
32.7667
  0
LINE
  8
0
 10
140.745
 20
32.7667
 11
140.745
 21
44.7667
  0
LINE
  8
0
 10
140.745
 20
44.7667
 11
150.355
 21
44.7667
  0
LINE
  8
0
 10
150.355
 20
44.7667
 11
150.355
 21
32.7667
  0
LINE
  8
0
 10
150.355
 20
32.7667
 11
140.745
 21
32.7667
  0
LINE
  8
0
 10
129.635
 20
32.7667
 11
129.635
 21
44.7667
  0
LINE
  8
0
 10
129.635
 20
44.7667
 11
139.245
 21
44.7667
  0
LINE
  8
0
 10
139.245
 20
44.7667
 11
139.245
 21
32.7667
  0
LINE
  8
0
 10
139.245
 20
32.7667
 11
129.635
 21
32.7667
  0
LINE
  8
0
 10
50.365
 20
32.7667
 11
40.755
 21
32.7667
  0
LINE
  8
0
 10
40.755
 20
32.7667
 11
40.755
 21
44.7667
  0
LINE
  8
0
 10
40.755
 20
44.7667
 11
50.365
 21
44.7667
  0
LINE
  8
0
 10
50.365
 20
44.7667
 11
50.365
 21
32.7667
  0
LINE
  8
0
 10
162.657
 20
23.0336
 11
162.317
 21
23.084
  0
LINE
  8
0
 10
162.317
 20
23.084
 11
161.984
 21
23.1674
  0
LINE
  8
0
 10
161.984
 20
23.1674
 11
161.661
 21
23.2831
  0
LINE
  8
0
 10
161.661
 20
23.2831
 11
161.35
 21
23.43
  0
LINE
  8
0
 10
161.35
 20
23.43
 11
161.055
 21
23.6066
  0
LINE
  8
0
 10
161.055
 20
23.6066
 11
160.78
 21
23.8112
  0
LINE
  8
0
 10
160.78
 20
23.8112
 11
160.525
 21
24.0418
  0
LINE
  8
0
 10
160.525
 20
24.0418
 11
160.294
 21
24.2963
  0
LINE
  8
0
 10
160.294
 20
24.2963
 11
160.09
 21
24.5722
  0
LINE
  8
0
 10
160.09
 20
24.5722
 11
159.913
 21
24.8668
  0
LINE
  8
0
 10
159.913
 20
24.8668
 11
159.766
 21
25.1773
  0
LINE
  8
0
 10
159.766
 20
25.1773
 11
159.651
 21
25.5007
  0
LINE
  8
0
 10
159.651
 20
25.5007
 11
159.567
 21
25.8339
  0
LINE
  8
0
 10
159.567
 20
25.8339
 11
159.517
 21
26.1736
  0
LINE
  8
0
 10
159.517
 20
26.1736
 11
159.5
 21
26.5167
  0
LINE
  8
0
 10
159.5
 20
26.5167
 11
159.517
 21
26.8598
  0
LINE
  8
0
 10
159.517
 20
26.8598
 11
159.567
 21
27.1995
  0
LINE
  8
0
 10
159.567
 20
27.1995
 11
159.651
 21
27.5327
  0
LINE
  8
0
 10
159.651
 20
27.5327
 11
159.766
 21
27.8561
  0
LINE
  8
0
 10
159.766
 20
27.8561
 11
159.913
 21
28.1666
  0
LINE
  8
0
 10
159.913
 20
28.1666
 11
160.09
 21
28.4612
  0
LINE
  8
0
 10
160.09
 20
28.4612
 11
160.294
 21
28.7371
  0
LINE
  8
0
 10
160.294
 20
28.7371
 11
160.525
 21
28.9916
  0
LINE
  8
0
 10
160.525
 20
28.9916
 11
160.78
 21
29.2222
  0
LINE
  8
0
 10
160.78
 20
29.2222
 11
161.055
 21
29.4268
  0
LINE
  8
0
 10
161.055
 20
29.4268
 11
161.35
 21
29.6034
  0
LINE
  8
0
 10
161.35
 20
29.6034
 11
161.661
 21
29.7503
  0
LINE
  8
0
 10
161.661
 20
29.7503
 11
161.984
 21
29.866
  0
LINE
  8
0
 10
161.984
 20
29.866
 11
162.317
 21
29.9494
  0
LINE
  8
0
 10
162.317
 20
29.9494
 11
162.657
 21
29.9998
  0
LINE
  8
0
 10
162.657
 20
29.9998
 11
163
 21
30.0167
  0
LINE
  8
0
 10
163
 20
30.0167
 11
163.343
 21
29.9998
  0
LINE
  8
0
 10
163.343
 20
29.9998
 11
163.683
 21
29.9494
  0
LINE
  8
0
 10
163.683
 20
29.9494
 11
164.016
 21
29.866
  0
LINE
  8
0
 10
164.016
 20
29.866
 11
164.339
 21
29.7503
  0
LINE
  8
0
 10
164.339
 20
29.7503
 11
164.65
 21
29.6034
  0
LINE
  8
0
 10
164.65
 20
29.6034
 11
164.945
 21
29.4268
  0
LINE
  8
0
 10
164.945
 20
29.4268
 11
165.22
 21
29.2222
  0
LINE
  8
0
 10
165.22
 20
29.2222
 11
165.475
 21
28.9916
  0
LINE
  8
0
 10
165.475
 20
28.9916
 11
165.705
 21
28.7371
  0
LINE
  8
0
 10
165.705
 20
28.7371
 11
165.91
 21
28.4612
  0
LINE
  8
0
 10
165.91
 20
28.4612
 11
166.087
 21
28.1666
  0
LINE
  8
0
 10
166.087
 20
28.1666
 11
166.234
 21
27.8561
  0
LINE
  8
0
 10
166.234
 20
27.8561
 11
166.349
 21
27.5327
  0
LINE
  8
0
 10
166.349
 20
27.5327
 11
166.433
 21
27.1995
  0
LINE
  8
0
 10
166.433
 20
27.1995
 11
166.483
 21
26.8598
  0
LINE
  8
0
 10
166.483
 20
26.8598
 11
166.5
 21
26.5167
  0
LINE
  8
0
 10
166.5
 20
26.5167
 11
166.483
 21
26.1736
  0
LINE
  8
0
 10
166.483
 20
26.1736
 11
166.433
 21
25.8339
  0
LINE
  8
0
 10
166.433
 20
25.8339
 11
166.349
 21
25.5007
  0
LINE
  8
0
 10
166.349
 20
25.5007
 11
166.234
 21
25.1773
  0
LINE
  8
0
 10
166.234
 20
25.1773
 11
166.087
 21
24.8668
  0
LINE
  8
0
 10
166.087
 20
24.8668
 11
165.91
 21
24.5722
  0
LINE
  8
0
 10
165.91
 20
24.5722
 11
165.705
 21
24.2963
  0
LINE
  8
0
 10
165.705
 20
24.2963
 11
165.475
 21
24.0418
  0
LINE
  8
0
 10
165.475
 20
24.0418
 11
165.22
 21
23.8112
  0
LINE
  8
0
 10
165.22
 20
23.8112
 11
164.945
 21
23.6066
  0
LINE
  8
0
 10
164.945
 20
23.6066
 11
164.65
 21
23.43
  0
LINE
  8
0
 10
164.65
 20
23.43
 11
164.339
 21
23.2831
  0
LINE
  8
0
 10
164.339
 20
23.2831
 11
164.016
 21
23.1674
  0
LINE
  8
0
 10
164.016
 20
23.1674
 11
163.683
 21
23.084
  0
LINE
  8
0
 10
163.683
 20
23.084
 11
163.343
 21
23.0336
  0
LINE
  8
0
 10
163.343
 20
23.0336
 11
163
 21
23.0167
  0
LINE
  8
0
 10
163
 20
23.0167
 11
162.657
 21
23.0336
  0
LINE
  8
0
 10
16.657
 20
23.0336
 11
16.317
 21
23.084
  0
LINE
  8
0
 10
16.317
 20
23.084
 11
15.984
 21
23.1674
  0
LINE
  8
0
 10
15.984
 20
23.1674
 11
15.661
 21
23.2831
  0
LINE
  8
0
 10
15.661
 20
23.2831
 11
15.35
 21
23.43
  0
LINE
  8
0
 10
15.35
 20
23.43
 11
15.056
 21
23.6066
  0
LINE
  8
0
 10
15.056
 20
23.6066
 11
14.78
 21
23.8112
  0
LINE
  8
0
 10
14.78
 20
23.8112
 11
14.525
 21
24.0418
  0
LINE
  8
0
 10
14.525
 20
24.0418
 11
14.294
 21
24.2963
  0
LINE
  8
0
 10
14.294
 20
24.2963
 11
14.09
 21
24.5722
  0
LINE
  8
0
 10
14.09
 20
24.5722
 11
13.913
 21
24.8668
  0
LINE
  8
0
 10
13.913
 20
24.8668
 11
13.766
 21
25.1773
  0
LINE
  8
0
 10
13.766
 20
25.1773
 11
13.651
 21
25.5007
  0
LINE
  8
0
 10
13.651
 20
25.5007
 11
13.567
 21
25.8339
  0
LINE
  8
0
 10
13.567
 20
25.8339
 11
13.517
 21
26.1736
  0
LINE
  8
0
 10
13.517
 20
26.1736
 11
13.5
 21
26.5167
  0
LINE
  8
0
 10
13.5
 20
26.5167
 11
13.517
 21
26.8598
  0
LINE
  8
0
 10
13.517
 20
26.8598
 11
13.567
 21
27.1995
  0
LINE
  8
0
 10
13.567
 20
27.1995
 11
13.651
 21
27.5327
  0
LINE
  8
0
 10
13.651
 20
27.5327
 11
13.766
 21
27.8561
  0
LINE
  8
0
 10
13.766
 20
27.8561
 11
13.913
 21
28.1666
  0
LINE
  8
0
 10
13.913
 20
28.1666
 11
14.09
 21
28.4612
  0
LINE
  8
0
 10
14.09
 20
28.4612
 11
14.294
 21
28.7371
  0
LINE
  8
0
 10
14.294
 20
28.7371
 11
14.525
 21
28.9916
  0
LINE
  8
0
 10
14.525
 20
28.9916
 11
14.78
 21
29.2222
  0
LINE
  8
0
 10
14.78
 20
29.2222
 11
15.056
 21
29.4268
  0
LINE
  8
0
 10
15.056
 20
29.4268
 11
15.35
 21
29.6034
  0
LINE
  8
0
 10
15.35
 20
29.6034
 11
15.661
 21
29.7503
  0
LINE
  8
0
 10
15.661
 20
29.7503
 11
15.984
 21
29.866
  0
LINE
  8
0
 10
15.984
 20
29.866
 11
16.317
 21
29.9494
  0
LINE
  8
0
 10
16.317
 20
29.9494
 11
16.657
 21
29.9998
  0
LINE
  8
0
 10
16.657
 20
29.9998
 11
17
 21
30.0167
  0
LINE
  8
0
 10
17
 20
30.0167
 11
17.343
 21
29.9998
  0
LINE
  8
0
 10
17.343
 20
29.9998
 11
17.683
 21
29.9494
  0
LINE
  8
0
 10
17.683
 20
29.9494
 11
18.016
 21
29.866
  0
LINE
  8
0
 10
18.016
 20
29.866
 11
18.339
 21
29.7503
  0
LINE
  8
0
 10
18.339
 20
29.7503
 11
18.65
 21
29.6034
  0
LINE
  8
0
 10
18.65
 20
29.6034
 11
18.944
 21
29.4268
  0
LINE
  8
0
 10
18.944
 20
29.4268
 11
19.22
 21
29.2222
  0
LINE
  8
0
 10
19.22
 20
29.2222
 11
19.475
 21
28.9916
  0
LINE
  8
0
 10
19.475
 20
28.9916
 11
19.706
 21
28.7371
  0
LINE
  8
0
 10
19.706
 20
28.7371
 11
19.91
 21
28.4612
  0
LINE
  8
0
 10
19.91
 20
28.4612
 11
20.087
 21
28.1666
  0
LINE
  8
0
 10
20.087
 20
28.1666
 11
20.234
 21
27.8561
  0
LINE
  8
0
 10
20.234
 20
27.8561
 11
20.349
 21
27.5327
  0
LINE
  8
0
 10
20.349
 20
27.5327
 11
20.433
 21
27.1995
  0
LINE
  8
0
 10
20.433
 20
27.1995
 11
20.483
 21
26.8598
  0
LINE
  8
0
 10
20.483
 20
26.8598
 11
20.5
 21
26.5167
  0
LINE
  8
0
 10
20.5
 20
26.5167
 11
20.483
 21
26.1736
  0
LINE
  8
0
 10
20.483
 20
26.1736
 11
20.433
 21
25.8339
  0
LINE
  8
0
 10
20.433
 20
25.8339
 11
20.349
 21
25.5007
  0
LINE
  8
0
 10
20.349
 20
25.5007
 11
20.234
 21
25.1773
  0
LINE
  8
0
 10
20.234
 20
25.1773
 11
20.087
 21
24.8668
  0
LINE
  8
0
 10
20.087
 20
24.8668
 11
19.91
 21
24.5722
  0
LINE
  8
0
 10
19.91
 20
24.5722
 11
19.706
 21
24.2963
  0
LINE
  8
0
 10
19.706
 20
24.2963
 11
19.475
 21
24.0418
  0
LINE
  8
0
 10
19.475
 20
24.0418
 11
19.22
 21
23.8112
  0
LINE
  8
0
 10
19.22
 20
23.8112
 11
18.944
 21
23.6066
  0
LINE
  8
0
 10
18.944
 20
23.6066
 11
18.65
 21
23.43
  0
LINE
  8
0
 10
18.65
 20
23.43
 11
18.339
 21
23.2831
  0
LINE
  8
0
 10
18.339
 20
23.2831
 11
18.016
 21
23.1674
  0
LINE
  8
0
 10
18.016
 20
23.1674
 11
17.683
 21
23.084
  0
LINE
  8
0
 10
17.683
 20
23.084
 11
17.343
 21
23.0336
  0
LINE
  8
0
 10
17.343
 20
23.0336
 11
17
 21
23.0167
  0
LINE
  8
0
 10
17
 20
23.0167
 11
16.657
 21
23.0336
  0
LINE
  8
0
 10
61.475
 20
112.267
 11
61.475
 21
100.267
  0
LINE
  8
0
 10
61.475
 20
100.267
 11
51.865
 21
100.267
  0
LINE
  8
0
 10
51.865
 20
100.267
 11
51.865
 21
112.267
  0
LINE
  8
0
 10
51.865
 20
112.267
 11
61.475
 21
112.267
  0
LINE
  8
0
 10
83.695
 20
98.7667
 11
83.695
 21
86.7667
  0
LINE
  8
0
 10
83.695
 20
86.7667
 11
74.085
 21
86.7667
  0
LINE
  8
0
 10
74.085
 20
86.7667
 11
74.085
 21
98.7667
  0
LINE
  8
0
 10
74.085
 20
98.7667
 11
83.695
 21
98.7667
  0
LINE
  8
0
 10
62.975
 20
98.7667
 11
72.585
 21
98.7667
  0
LINE
  8
0
 10
72.585
 20
98.7667
 11
72.585
 21
86.7667
  0
LINE
  8
0
 10
72.585
 20
86.7667
 11
62.975
 21
86.7667
  0
LINE
  8
0
 10
62.975
 20
86.7667
 11
62.975
 21
98.7667
  0
LINE
  8
0
 10
150.355
 20
71.7667
 11
150.355
 21
59.7667
  0
LINE
  8
0
 10
150.355
 20
59.7667
 11
140.745
 21
59.7667
  0
LINE
  8
0
 10
140.745
 20
59.7667
 11
140.745
 21
71.7667
  0
LINE
  8
0
 10
140.745
 20
71.7667
 11
150.355
 21
71.7667
  0
LINE
  8
0
 10
61.475
 20
71.7667
 11
61.475
 21
59.7667
  0
LINE
  8
0
 10
61.475
 20
59.7667
 11
51.865
 21
59.7667
  0
LINE
  8
0
 10
51.865
 20
59.7667
 11
51.865
 21
71.7667
  0
LINE
  8
0
 10
51.865
 20
71.7667
 11
61.475
 21
71.7667
  0
LINE
  8
0
 10
117.025
 20
58.2667
 11
117.025
 21
46.2667
  0
LINE
  8
0
 10
117.025
 20
46.2667
 11
107.415
 21
46.2667
  0
LINE
  8
0
 10
107.415
 20
46.2667
 11
107.415
 21
58.2667
  0
LINE
  8
0
 10
107.415
 20
58.2667
 11
117.025
 21
58.2667
  0
LINE
  8
0
 10
72.585
 20
58.2667
 11
72.585
 21
46.2667
  0
LINE
  8
0
 10
72.585
 20
46.2667
 11
62.975
 21
46.2667
  0
LINE
  8
0
 10
62.975
 20
46.2667
 11
62.975
 21
58.2667
  0
LINE
  8
0
 10
62.975
 20
58.2667
 11
72.585
 21
58.2667
  0
ENDSEC
  0
SECTION
  2
OBJECTS
  0
DICTIONARY
  0
ENDSEC
  0
EOF
