solid Wandhalterung
facet normal -0.6212246881390232 -0.7836324947617813 5.902841922721011e-18
  outer loop
    vertex 82.37260395901325 10.680179776625737 105.7885111923095
    vertex 81.78737379095034 11.144121013206268 -20.211488807690497
    vertex 82.37260395901329 10.680179776625737 -20.211488807690504
  endloop
endfacet
facet normal -0.6212246881390232 -0.7836324947617813 5.902841922721011e-18
  outer loop
    vertex 81.78737379095034 11.144121013206268 -20.211488807690497
    vertex 82.37260395901325 10.680179776625737 105.7885111923095
    vertex 81.78737379095031 11.144121013206279 105.7885111923095
  endloop
endfacet
facet normal 1.3877787807814454e-16 1.0 1.9428902930940232e-16
  outer loop
    vertex 36.45682397780561 14.24810387688086 105.78851119230954
    vertex 87.97601446658697 14.248103876880966 -22.211488807690497
    vertex 36.45682397780561 14.248103876880881 -22.211488807690507
  endloop
endfacet
facet normal 1.3877787807814454e-16 1.0 1.9428902930940232e-16
  outer loop
    vertex 87.97601446658697 14.248103876880966 -22.211488807690497
    vertex 36.45682397780561 14.24810387688086 105.78851119230954
    vertex 87.97601446658693 14.248103876880938 105.78851119230954
  endloop
endfacet
facet normal 1.3877787807814454e-16 1.0 1.9428902930940232e-16
  outer loop
    vertex 87.97601446658693 14.248103876880938 105.78851119230954
    vertex 36.45682397780561 14.24810387688086 105.78851119230954
    vertex 41.03710496896503 14.248103876880881 105.78851119230954
  endloop
endfacet
facet normal 1.3877787807814454e-16 1.0 1.9428902930940232e-16
  outer loop
    vertex 87.97601446658693 14.248103876880938 105.78851119230954
    vertex 41.03710496896503 14.248103876880881 105.78851119230954
    vertex 83.50622937316771 14.248103876880915 105.78851119230954
  endloop
endfacet
facet normal -0.7919839592957616 -0.6105418971849594 -2.302634757065299e-16
  outer loop
    vertex 83.35305408782412 9.557064940851648 105.78851119230957
    vertex 82.89709094248828 10.148532125660951 -20.211488807690497
    vertex 83.35305408782418 9.557064940851621 -20.211488807690504
  endloop
endfacet
facet normal -0.7919839592957616 -0.6105418971849594 -2.302634757065299e-16
  outer loop
    vertex 82.89709094248828 10.148532125660951 -20.211488807690497
    vertex 83.35305408782412 9.557064940851648 105.78851119230957
    vertex 82.89709094248826 10.148532125660914 105.7885111923095
  endloop
endfacet
facet normal -0.7118846529027639 -0.702296405345714 -3.97876242518613e-16
  outer loop
    vertex 82.37260395901325 10.680179776625737 105.7885111923095
    vertex 82.89709094248828 10.148532125660951 -20.211488807690497
    vertex 82.89709094248826 10.148532125660914 105.7885111923095
  endloop
endfacet
facet normal -0.7118846529027639 -0.702296405345714 -3.97876242518613e-16
  outer loop
    vertex 82.89709094248828 10.148532125660951 -20.211488807690497
    vertex 82.37260395901325 10.680179776625737 105.7885111923095
    vertex 82.37260395901329 10.680179776625737 -20.211488807690504
  endloop
endfacet
facet normal -0.5213489864210502 -0.8533435617368563 -1.983519419539495e-16
  outer loop
    vertex 81.78737379095034 11.144121013206268 -20.211488807690497
    vertex 81.15008220415551 11.533473365210753 105.78851119230941
    vertex 81.15008220415552 11.533473365210767 -20.2114888076905
  endloop
endfacet
facet normal -0.5213489864210502 -0.8533435617368563 -1.983519419539495e-16
  outer loop
    vertex 81.15008220415551 11.533473365210753 105.78851119230941
    vertex 81.78737379095034 11.144121013206268 -20.211488807690497
    vertex 81.78737379095031 11.144121013206279 105.7885111923095
  endloop
endfacet
facet normal -0.915921864509092 -0.40135662211328793 -1.1773367895140972e-16
  outer loop
    vertex 84.03346927740293 8.23052637781937 29.788511192309507
    vertex 83.73372927812683 8.914552512879224 -20.211488807690507
    vertex 84.03346927740293 8.23052637781935 -20.211488807690504
  endloop
endfacet
facet normal -0.915921864509092 -0.40135662211328793 -1.1773367895140972e-16
  outer loop
    vertex 83.73372927812683 8.914552512879224 -20.211488807690507
    vertex 84.03346927740293 8.23052637781937 29.788511192309507
    vertex 83.73372927812683 8.91455251287923 29.788511192309496
  endloop
endfacet
facet normal 0.29874295457727784 -0.9543336141467713 -4.800245376961359e-16
  outer loop
    vertex 44.631158788941555 12.067695797922216 -20.21148880769051
    vertex 43.92012139463368 11.845113873905651 105.78851119230954
    vertex 43.92012139463369 11.845113873905646 -20.211488807690515
  endloop
endfacet
facet normal 0.29874295457727784 -0.9543336141467713 -4.800245376961359e-16
  outer loop
    vertex 43.92012139463368 11.845113873905651 105.78851119230954
    vertex 44.631158788941555 12.067695797922216 -20.21148880769051
    vertex 44.631158788941555 12.067695797922216 105.78851119230957
  endloop
endfacet
facet normal 0.4120704663759724 -0.9111519800454196 -2.1777434772708248e-16
  outer loop
    vertex 43.92012139463369 11.845113873905646 -20.211488807690515
    vertex 43.2412569806529 11.538095964927127 105.78851119230964
    vertex 43.24125698065288 11.538095964927171 -20.211488807690515
  endloop
endfacet
facet normal 0.4120704663759724 -0.9111519800454196 -2.1777434772708248e-16
  outer loop
    vertex 43.2412569806529 11.538095964927127 105.78851119230964
    vertex 43.92012139463369 11.845113873905646 -20.211488807690515
    vertex 43.92012139463368 11.845113873905651 105.78851119230954
  endloop
endfacet
facet normal 0.5193373370476921 -0.8545693244835155 -2.584489583846278e-16
  outer loop
    vertex 43.2412569806529 11.538095964927127 105.78851119230964
    vertex 42.60455013440032 11.151157622373555 -20.21148880769051
    vertex 43.24125698065288 11.538095964927171 -20.211488807690515
  endloop
endfacet
facet normal 0.5193373370476921 -0.8545693244835155 -2.584489583846278e-16
  outer loop
    vertex 42.60455013440032 11.151157622373555 -20.21148880769051
    vertex 43.2412569806529 11.538095964927127 105.78851119230964
    vertex 42.60455013440032 11.151157622373555 105.78851119230953
  endloop
endfacet
facet normal 0.7895807921462366 -0.613646618725893 -3.129803550495409e-16
  outer loop
    vertex 41.03710496896505 9.573089018271306 -20.21148880769051
    vertex 41.494309542226134 10.161375400224962 105.78851119230954
    vertex 41.037104968965025 9.573089018271299 105.7885111923095
  endloop
endfacet
facet normal 0.7895807921462366 -0.613646618725893 -3.129803550495409e-16
  outer loop
    vertex 41.494309542226134 10.161375400224962 105.78851119230954
    vertex 41.03710496896505 9.573089018271306 -20.21148880769051
    vertex 41.49430954222615 10.161375400224982 -20.21148880769051
  endloop
endfacet
facet normal -0.2999916455974089 -0.9539418287148116 -3.626219692490376e-16
  outer loop
    vertex 80.47018328462883 11.842460872785999 -20.211488807690504
    vertex 79.75776318914671 12.066499771560682 105.7885111923096
    vertex 79.75776318914671 12.06649977156063 -20.211488807690504
  endloop
endfacet
facet normal -0.2999916455974089 -0.9539418287148116 -3.626219692490376e-16
  outer loop
    vertex 79.75776318914671 12.066499771560682 105.7885111923096
    vertex 80.47018328462883 11.842460872785999 -20.211488807690504
    vertex 80.47018328462882 11.842460872785997 105.7885111923096
  endloop
endfacet
facet normal -0.060899073581749244 -0.9981439289185126 -4.042771207266185e-16
  outer loop
    vertex 79.02339051925719 12.202266491821572 -20.211488807690497
    vertex 78.2779595383104 12.247746962967621 105.78851119230954
    vertex 78.27795953831045 12.247746962967636 -20.211488807690504
  endloop
endfacet
facet normal -0.060899073581749244 -0.9981439289185126 -4.042771207266185e-16
  outer loop
    vertex 78.2779595383104 12.247746962967621 105.78851119230954
    vertex 79.02339051925719 12.202266491821572 -20.211488807690497
    vertex 79.02339051925718 12.20226649182158 105.78851119230954
  endloop
endfacet
facet normal 0.9139145587468185 -0.40590661402668493 -1.5020293169472851e-16
  outer loop
    vertex 40.35205068403312 8.252860384098865 -20.211488807690515
    vertex 40.654476142899384 8.933783089574687 29.788511192309485
    vertex 40.35205068403311 8.25286038409884 29.788511192309496
  endloop
endfacet
facet normal 0.9139145587468185 -0.40590661402668493 -1.5020293169472851e-16
  outer loop
    vertex 40.654476142899384 8.933783089574687 29.788511192309485
    vertex 40.35205068403312 8.252860384098865 -20.211488807690515
    vertex 40.654476142899405 8.933783089574687 -20.211488807690515
  endloop
endfacet
facet normal 0.9563297276427526 -0.2922900135597158 -3.9872650616031427e-17
  outer loop
    vertex 40.35205068403312 8.252860384098865 -20.211488807690515
    vertex 40.134276599014136 7.54033576214033 29.788511192309517
    vertex 40.134276599014115 7.540335762140325 -20.21148880769051
  endloop
endfacet
facet normal 0.9563297276427526 -0.2922900135597158 -3.9872650616031427e-17
  outer loop
    vertex 40.134276599014136 7.54033576214033 29.788511192309517
    vertex 40.35205068403312 8.252860384098865 -20.211488807690515
    vertex 40.35205068403311 8.25286038409884 29.788511192309496
  endloop
endfacet
facet normal 8.326672684688672e-17 -1.0 -1.9428902930940227e-16
  outer loop
    vertex 78.27795953831045 12.247746962967636 -20.211488807690504
    vertex 46.10760201431746 12.247746962967566 105.78851119230957
    vertex 46.10760201431748 12.247746962967588 -20.211488807690515
  endloop
endfacet
facet normal 8.326672684688672e-17 -1.0 -1.9428902930940227e-16
  outer loop
    vertex 46.10760201431746 12.247746962967566 105.78851119230957
    vertex 78.27795953831045 12.247746962967636 -20.211488807690504
    vertex 78.2779595383104 12.247746962967621 105.78851119230954
  endloop
endfacet
facet normal 0.9903118014290976 -0.13886157117883838 -3.83359787598293e-17
  outer loop
    vertex 38.3976334890241 -4.651896123119067 -20.211488807690504
    vertex 40.00435686083786 6.806688877981959 29.788511192309485
    vertex 38.397633489024074 -4.651896123119081 29.788511192309517
  endloop
endfacet
facet normal 0.9903118014290976 -0.13886157117883838 -3.83359787598293e-17
  outer loop
    vertex 40.00435686083786 6.806688877981959 29.788511192309485
    vertex 38.3976334890241 -4.651896123119067 -20.211488807690504
    vertex 40.00435686083787 6.806688877981971 -20.211488807690504
  endloop
endfacet
facet normal 0.984679410775411 -0.17437447632893271 4.650280062499569e-17
  outer loop
    vertex 40.00435686083787 6.806688877981971 -20.211488807690504
    vertex 40.134276599014136 7.54033576214033 29.788511192309517
    vertex 40.00435686083786 6.806688877981959 29.788511192309485
  endloop
endfacet
facet normal 0.984679410775411 -0.17437447632893271 4.650280062499569e-17
  outer loop
    vertex 40.134276599014136 7.54033576214033 29.788511192309517
    vertex 40.00435686083787 6.806688877981971 -20.211488807690504
    vertex 40.134276599014115 7.540335762140325 -20.21148880769051
  endloop
endfacet
facet normal -0.9579218706995596 -0.2870290745472596 -1.2478144016297858e-16
  outer loop
    vertex 84.03346927740293 8.23052637781937 29.788511192309507
    vertex 84.24782750611232 7.515133918818278 -20.211488807690504
    vertex 84.24782750611232 7.515133918818278 29.788511192309507
  endloop
endfacet
facet normal -0.9579218706995596 -0.2870290745472596 -1.2478144016297858e-16
  outer loop
    vertex 84.24782750611232 7.515133918818278 -20.211488807690504
    vertex 84.03346927740293 8.23052637781937 29.788511192309507
    vertex 84.03346927740293 8.23052637781935 -20.211488807690504
  endloop
endfacet
facet normal 0.6189659092231721 -0.7854178526233867 -1.8593294798611713e-16
  outer loop
    vertex 42.60455013440032 11.151157622373555 -20.21148880769051
    vertex 42.01936539911099 10.689989849662373 105.7885111923095
    vertex 42.01936539911098 10.689989849662394 -20.211488807690515
  endloop
endfacet
facet normal 0.6189659092231721 -0.7854178526233867 -1.8593294798611713e-16
  outer loop
    vertex 42.01936539911099 10.689989849662373 105.7885111923095
    vertex 42.60455013440032 11.151157622373555 -20.21148880769051
    vertex 42.60455013440032 11.151157622373555 105.78851119230953
  endloop
endfacet
facet normal -0.18179379585953093 -0.9833366746882695 -3.3634270387843106e-16
  outer loop
    vertex 79.75776318914671 12.066499771560682 105.7885111923096
    vertex 79.02339051925719 12.202266491821572 -20.211488807690497
    vertex 79.75776318914671 12.06649977156063 -20.211488807690504
  endloop
endfacet
facet normal -0.18179379585953093 -0.9833366746882695 -3.3634270387843106e-16
  outer loop
    vertex 79.02339051925719 12.202266491821572 -20.211488807690497
    vertex 79.75776318914671 12.066499771560682 105.7885111923096
    vertex 79.02339051925718 12.20226649182158 105.78851119230954
  endloop
endfacet
facet normal 0.06063781504586108 -0.9981598345888619 -4.138035820901677e-16
  outer loop
    vertex 46.10760201431746 12.247746962967566 105.78851119230957
    vertex 45.36391138310835 12.20256805135053 -20.211488807690504
    vertex 46.10760201431748 12.247746962967588 -20.211488807690515
  endloop
endfacet
facet normal 0.06063781504586108 -0.9981598345888619 -4.138035820901677e-16
  outer loop
    vertex 45.36391138310835 12.20256805135053 -20.211488807690504
    vertex 46.10760201431746 12.247746962967566 105.78851119230957
    vertex 45.36391138310834 12.202568051350523 105.78851119230957
  endloop
endfacet
facet normal -0.4137391826753427 -0.9103954573256281 -2.4721442485606194e-16
  outer loop
    vertex 81.15008220415552 11.533473365210767 -20.2114888076905
    vertex 80.47018328462882 11.842460872785997 105.7885111923096
    vertex 80.47018328462883 11.842460872785999 -20.211488807690504
  endloop
endfacet
facet normal -0.4137391826753427 -0.9103954573256281 -2.4721442485606194e-16
  outer loop
    vertex 80.47018328462882 11.842460872785997 105.7885111923096
    vertex 81.15008220415552 11.533473365210767 -20.2114888076905
    vertex 81.15008220415551 11.533473365210753 105.78851119230941
  endloop
endfacet
facet normal 0.18102159758794256 -0.9834791208799042 -5.96934819565318e-17
  outer loop
    vertex 45.36391138310835 12.20256805135053 -20.211488807690504
    vertex 44.631158788941555 12.067695797922216 105.78851119230957
    vertex 44.631158788941555 12.067695797922216 -20.21148880769051
  endloop
endfacet
facet normal 0.18102159758794256 -0.9834791208799042 -5.96934819565318e-17
  outer loop
    vertex 44.631158788941555 12.067695797922216 105.78851119230957
    vertex 45.36391138310835 12.20256805135053 -20.211488807690504
    vertex 45.36391138310834 12.202568051350523 105.78851119230957
  endloop
endfacet
facet normal 0.7094908679351063 -0.7047146289929632 -2.988488581008435e-16
  outer loop
    vertex 41.49430954222615 10.161375400224982 -20.21148880769051
    vertex 42.01936539911099 10.689989849662373 105.7885111923095
    vertex 41.494309542226134 10.161375400224962 105.78851119230954
  endloop
endfacet
facet normal 0.7094908679351063 -0.7047146289929632 -2.988488581008435e-16
  outer loop
    vertex 42.01936539911099 10.689989849662373 105.7885111923095
    vertex 41.49430954222615 10.161375400224982 -20.21148880769051
    vertex 42.01936539911098 10.689989849662394 -20.211488807690515
  endloop
endfacet
facet normal -0.9857113083926285 -0.16844351132321086 -7.845107592540702e-17
  outer loop
    vertex 84.24782750611232 7.515133918818278 29.788511192309507
    vertex 84.37362400523632 6.778987831809004 -20.2114888076905
    vertex 84.37362400523632 6.778987831808984 29.788511192309496
  endloop
endfacet
facet normal -0.9857113083926285 -0.16844351132321086 -7.845107592540702e-17
  outer loop
    vertex 84.37362400523632 6.778987831809004 -20.2114888076905
    vertex 84.24782750611232 7.515133918818278 29.788511192309507
    vertex 84.24782750611232 7.515133918818278 -20.211488807690504
  endloop
endfacet
facet normal -3.58279431922933e-17 -1.9428902930940207e-16 1.0
  outer loop
    vertex 41.037104968965025 9.573089018271299 105.7885111923095
    vertex 41.03710496896503 14.248103876880881 105.78851119230954
    vertex 40.9589684606337 9.44253656215462 105.7885111923095
  endloop
endfacet
facet normal -3.58279431922933e-17 -1.9428902930940207e-16 1.0
  outer loop
    vertex 41.03710496896503 14.248103876880881 105.78851119230954
    vertex 41.037104968965025 9.573089018271299 105.7885111923095
    vertex 41.494309542226134 10.161375400224962 105.78851119230954
  endloop
endfacet
facet normal -3.58279431922933e-17 -1.9428902930940207e-16 1.0
  outer loop
    vertex 41.03710496896503 14.248103876880881 105.78851119230954
    vertex 41.494309542226134 10.161375400224962 105.78851119230954
    vertex 42.01936539911099 10.689989849662373 105.7885111923095
  endloop
endfacet
facet normal -3.58279431922933e-17 -1.9428902930940207e-16 1.0
  outer loop
    vertex 41.03710496896503 14.248103876880881 105.78851119230954
    vertex 42.01936539911099 10.689989849662373 105.7885111923095
    vertex 42.60455013440032 11.151157622373555 105.78851119230953
  endloop
endfacet
facet normal -3.58279431922933e-17 -1.9428902930940207e-16 1.0
  outer loop
    vertex 41.03710496896503 14.248103876880881 105.78851119230954
    vertex 42.60455013440032 11.151157622373555 105.78851119230953
    vertex 43.2412569806529 11.538095964927127 105.78851119230964
  endloop
endfacet
facet normal -3.58279431922933e-17 -1.9428902930940207e-16 1.0
  outer loop
    vertex 41.03710496896503 14.248103876880881 105.78851119230954
    vertex 43.2412569806529 11.538095964927127 105.78851119230964
    vertex 43.92012139463368 11.845113873905651 105.78851119230954
  endloop
endfacet
facet normal -3.58279431922933e-17 -1.9428902930940207e-16 1.0
  outer loop
    vertex 41.03710496896503 14.248103876880881 105.78851119230954
    vertex 43.92012139463368 11.845113873905651 105.78851119230954
    vertex 44.631158788941555 12.067695797922216 105.78851119230957
  endloop
endfacet
facet normal -3.58279431922933e-17 -1.9428902930940207e-16 1.0
  outer loop
    vertex 41.03710496896503 14.248103876880881 105.78851119230954
    vertex 44.631158788941555 12.067695797922216 105.78851119230957
    vertex 45.36391138310834 12.202568051350523 105.78851119230957
  endloop
endfacet
facet normal -3.58279431922933e-17 -1.9428902930940207e-16 1.0
  outer loop
    vertex 41.03710496896503 14.248103876880881 105.78851119230954
    vertex 45.36391138310834 12.202568051350523 105.78851119230957
    vertex 46.10760201431746 12.247746962967566 105.78851119230957
  endloop
endfacet
facet normal -3.58279431922933e-17 -1.9428902930940207e-16 1.0
  outer loop
    vertex 41.03710496896503 14.248103876880881 105.78851119230954
    vertex 46.10760201431746 12.247746962967566 105.78851119230957
    vertex 83.50622937316771 14.248103876880915 105.78851119230954
  endloop
endfacet
facet normal -3.58279431922933e-17 -1.9428902930940207e-16 1.0
  outer loop
    vertex 83.50622937316771 14.248103876880915 105.78851119230954
    vertex 46.10760201431746 12.247746962967566 105.78851119230957
    vertex 78.2779595383104 12.247746962967621 105.78851119230954
  endloop
endfacet
facet normal -3.58279431922933e-17 -1.9428902930940207e-16 1.0
  outer loop
    vertex 83.50622937316771 14.248103876880915 105.78851119230954
    vertex 78.2779595383104 12.247746962967621 105.78851119230954
    vertex 79.02339051925718 12.20226649182158 105.78851119230954
  endloop
endfacet
facet normal -3.58279431922933e-17 -1.9428902930940207e-16 1.0
  outer loop
    vertex 83.50622937316771 14.248103876880915 105.78851119230954
    vertex 79.02339051925718 12.20226649182158 105.78851119230954
    vertex 79.75776318914671 12.066499771560682 105.7885111923096
  endloop
endfacet
facet normal -3.58279431922933e-17 -1.9428902930940207e-16 1.0
  outer loop
    vertex 83.50622937316771 14.248103876880915 105.78851119230954
    vertex 79.75776318914671 12.066499771560682 105.7885111923096
    vertex 80.47018328462882 11.842460872785997 105.7885111923096
  endloop
endfacet
facet normal -3.58279431922933e-17 -1.9428902930940207e-16 1.0
  outer loop
    vertex 83.50622937316771 14.248103876880915 105.78851119230954
    vertex 80.47018328462882 11.842460872785997 105.7885111923096
    vertex 81.15008220415551 11.533473365210753 105.78851119230941
  endloop
endfacet
facet normal -3.58279431922933e-17 -1.9428902930940207e-16 1.0
  outer loop
    vertex 83.50622937316771 14.248103876880915 105.78851119230954
    vertex 81.15008220415551 11.533473365210753 105.78851119230941
    vertex 81.78737379095031 11.144121013206279 105.7885111923095
  endloop
endfacet
facet normal -3.58279431922933e-17 -1.9428902930940207e-16 1.0
  outer loop
    vertex 83.50622937316771 14.248103876880915 105.78851119230954
    vertex 81.78737379095031 11.144121013206279 105.7885111923095
    vertex 82.37260395901325 10.680179776625737 105.7885111923095
  endloop
endfacet
facet normal -3.58279431922933e-17 -1.9428902930940207e-16 1.0
  outer loop
    vertex 83.50622937316771 14.248103876880915 105.78851119230954
    vertex 82.37260395901325 10.680179776625737 105.7885111923095
    vertex 82.89709094248826 10.148532125660914 105.7885111923095
  endloop
endfacet
facet normal -3.58279431922933e-17 -1.9428902930940207e-16 1.0
  outer loop
    vertex 83.50622937316771 14.248103876880915 105.78851119230954
    vertex 82.89709094248826 10.148532125660914 105.7885111923095
    vertex 83.35305408782412 9.557064940851648 105.78851119230957
  endloop
endfacet
facet normal -3.58279431922933e-17 -1.9428902930940207e-16 1.0
  outer loop
    vertex 83.50622937316771 14.248103876880915 105.78851119230954
    vertex 83.35305408782412 9.557064940851648 105.78851119230957
    vertex 83.49227847208833 9.322078791385522 105.78851119230944
  endloop
endfacet
facet normal -0.9916778440542776 -0.1287441401068808 -7.615586275626336e-17
  outer loop
    vertex 84.37362400523632 6.778987831808984 29.788511192309496
    vertex 85.85763348902404 -4.651896123119082 -20.211488807690504
    vertex 85.85763348902404 -4.651896123119093 29.788511192309517
  endloop
endfacet
facet normal -0.9916778440542776 -0.1287441401068808 -7.615586275626336e-17
  outer loop
    vertex 85.85763348902404 -4.651896123119082 -20.211488807690504
    vertex 84.37362400523632 6.778987831808984 29.788511192309496
    vertex 84.37362400523632 6.778987831809004 -20.2114888076905
  endloop
endfacet
facet normal -3.58279431922933e-17 -1.9428902930940207e-16 1.0
  outer loop
    vertex 36.589313827140685 12.42691292340896 105.78851119230953
    vertex 36.45682397780561 14.24810387688086 105.78851119230954
    vertex 36.45281780985474 12.83353691019711 105.78851119230954
  endloop
endfacet
facet normal -3.58279431922933e-17 -1.9428902930940207e-16 1.0
  outer loop
    vertex 36.45682397780561 14.24810387688086 105.78851119230954
    vertex 36.589313827140685 12.42691292340896 105.78851119230953
    vertex 41.03710496896503 14.248103876880881 105.78851119230954
  endloop
endfacet
facet normal -3.58279431922933e-17 -1.9428902930940207e-16 1.0
  outer loop
    vertex 41.03710496896503 14.248103876880881 105.78851119230954
    vertex 36.589313827140685 12.42691292340896 105.78851119230953
    vertex 36.86184936404323 11.867594863273128 105.7885111923095
  endloop
endfacet
facet normal -3.58279431922933e-17 -1.9428902930940207e-16 1.0
  outer loop
    vertex 41.03710496896503 14.248103876880881 105.78851119230954
    vertex 36.86184936404323 11.867594863273128 105.7885111923095
    vertex 37.20435555280654 11.34817035294696 105.78851119230946
  endloop
endfacet
facet normal -3.58279431922933e-17 -1.9428902930940207e-16 1.0
  outer loop
    vertex 41.03710496896503 14.248103876880881 105.78851119230954
    vertex 37.20435555280654 11.34817035294696 105.78851119230946
    vertex 37.61109253375234 10.877344122156902 105.78851119230954
  endloop
endfacet
facet normal -3.58279431922933e-17 -1.9428902930940207e-16 1.0
  outer loop
    vertex 41.03710496896503 14.248103876880881 105.78851119230954
    vertex 37.61109253375234 10.877344122156902 105.78851119230954
    vertex 38.075244041150704 10.463006470659176 105.78851119230954
  endloop
endfacet
facet normal -3.58279431922933e-17 -1.9428902930940207e-16 1.0
  outer loop
    vertex 41.03710496896503 14.248103876880881 105.78851119230954
    vertex 38.075244041150704 10.463006470659176 105.78851119230954
    vertex 38.58903163300733 10.112101039348984 105.78851119230944
  endloop
endfacet
facet normal -3.58279431922933e-17 -1.9428902930940207e-16 1.0
  outer loop
    vertex 41.03710496896503 14.248103876880881 105.78851119230954
    vertex 38.58903163300733 10.112101039348984 105.78851119230944
    vertex 39.143845045395366 9.83050844586825 105.78851119230946
  endloop
endfacet
facet normal -3.58279431922933e-17 -1.9428902930940207e-16 1.0
  outer loop
    vertex 41.03710496896503 14.248103876880881 105.78851119230954
    vertex 39.143845045395366 9.83050844586825 105.78851119230946
    vertex 39.73038648680225 9.622947734795133 105.78851119230949
  endloop
endfacet
facet normal -3.58279431922933e-17 -1.9428902930940207e-16 1.0
  outer loop
    vertex 41.03710496896503 14.248103876880881 105.78851119230954
    vertex 39.73038648680225 9.622947734795133 105.78851119230949
    vertex 40.33882645434679 9.492897293952886 105.78851119230953
  endloop
endfacet
facet normal -3.58279431922933e-17 -1.9428902930940207e-16 1.0
  outer loop
    vertex 41.03710496896503 14.248103876880881 105.78851119230954
    vertex 40.33882645434679 9.492897293952886 105.78851119230953
    vertex 40.9589684606337 9.44253656215462 105.7885111923095
  endloop
endfacet
facet normal -3.58279431922933e-17 -1.9428902930940207e-16 1.0
  outer loop
    vertex 84.13652615941365 9.362549278698795 105.7885111923095
    vertex 83.50622937316771 14.248103876880915 105.78851119230954
    vertex 83.49227847208833 9.322078791385522 105.78851119230944
  endloop
endfacet
facet normal -3.58279431922933e-17 -1.9428902930940207e-16 1.0
  outer loop
    vertex 83.50622937316771 14.248103876880915 105.78851119230954
    vertex 84.13652615941365 9.362549278698795 105.7885111923095
    vertex 87.97601446658693 14.248103876880938 105.78851119230954
  endloop
endfacet
facet normal -3.58279431922933e-17 -1.9428902930940207e-16 1.0
  outer loop
    vertex 87.97601446658693 14.248103876880938 105.78851119230954
    vertex 84.13652615941365 9.362549278698795 105.7885111923095
    vertex 84.7699504266118 9.486914228310638 105.7885111923095
  endloop
endfacet
facet normal -3.58279431922933e-17 -1.9428902930940207e-16 1.0
  outer loop
    vertex 87.97601446658693 14.248103876880938 105.78851119230954
    vertex 84.7699504266118 9.486914228310638 105.7885111923095
    vertex 85.38167414863243 9.693038052466132 105.78851119230954
  endloop
endfacet
facet normal -3.58279431922933e-17 -1.9428902930940207e-16 1.0
  outer loop
    vertex 87.97601446658693 14.248103876880938 105.78851119230954
    vertex 85.38167414863243 9.693038052466132 105.78851119230954
    vertex 85.96119284093847 9.9773812047232 105.78851119230957
  endloop
endfacet
facet normal -3.58279431922933e-17 -1.9428902930940207e-16 1.0
  outer loop
    vertex 87.97601446658693 14.248103876880938 105.78851119230954
    vertex 85.96119284093847 9.9773812047232 105.78851119230957
    vertex 86.49855504190784 10.335060960841123 105.78851119230949
  endloop
endfacet
facet normal -3.58279431922933e-17 -1.9428902930940207e-16 1.0
  outer loop
    vertex 87.97601446658693 14.248103876880938 105.78851119230954
    vertex 86.49855504190784 10.335060960841123 105.78851119230949
    vertex 86.98453319876212 10.759935264639422 105.78851119230954
  endloop
endfacet
facet normal -3.58279431922933e-17 -1.9428902930940207e-16 1.0
  outer loop
    vertex 87.97601446658693 14.248103876880938 105.78851119230954
    vertex 86.98453319876212 10.759935264639422 105.78851119230954
    vertex 87.4107821225689 11.244708199033306 105.7885111923095
  endloop
endfacet
facet normal -3.58279431922933e-17 -1.9428902930940207e-16 1.0
  outer loop
    vertex 87.97601446658693 14.248103876880938 105.78851119230954
    vertex 87.4107821225689 11.244708199033306 105.7885111923095
    vertex 87.76998229134833 11.781055271101687 105.7885111923096
  endloop
endfacet
facet normal -3.58279431922933e-17 -1.9428902930940207e-16 1.0
  outer loop
    vertex 87.97601446658693 14.248103876880938 105.78851119230954
    vertex 87.76998229134833 11.781055271101687 105.7885111923096
    vertex 87.97017487991035 12.18616176327422 105.78851119230949
  endloop
endfacet
facet normal 1.3877787807814454e-16 1.0 1.9428902930940232e-16
  outer loop
    vertex 38.397633489024074 -4.651896123119081 29.788511192309517
    vertex 85.85763348902404 -4.651896123119082 -20.211488807690504
    vertex 38.3976334890241 -4.651896123119067 -20.211488807690504
  endloop
endfacet
facet normal 1.3877787807814454e-16 1.0 1.9428902930940232e-16
  outer loop
    vertex 85.85763348902404 -4.651896123119082 -20.211488807690504
    vertex 38.397633489024074 -4.651896123119081 29.788511192309517
    vertex 85.85763348902404 -4.651896123119093 29.788511192309517
  endloop
endfacet
facet normal -0.5639902531650918 -0.8257814446539566 -5.574679578460908e-17
  outer loop
    vertex 38.58903163300739 10.112101039348984 29.788511192309517
    vertex 38.075244041150704 10.463006470659176 105.78851119230954
    vertex 38.07524404115073 10.463006470659195 29.788511192309507
  endloop
endfacet
facet normal -0.5639902531650918 -0.8257814446539566 -5.574679578460908e-17
  outer loop
    vertex 38.075244041150704 10.463006470659176 105.78851119230954
    vertex 38.58903163300739 10.112101039348984 29.788511192309517
    vertex 38.58903163300733 10.112101039348984 105.78851119230944
  endloop
endfacet
facet normal -0.08094192720361199 -0.9967188191363526 -4.879850585982459e-16
  outer loop
    vertex 40.9589684606337 9.44253656215462 105.7885111923095
    vertex 40.338826454346794 9.49289729395292 29.788511192309507
    vertex 40.95896846063373 9.44253656215467 29.788511192309485
  endloop
endfacet
facet normal -0.08094192720361199 -0.9967188191363526 -4.879850585982459e-16
  outer loop
    vertex 40.338826454346794 9.49289729395292 29.788511192309507
    vertex 40.9589684606337 9.44253656215462 105.7885111923095
    vertex 40.33882645434679 9.492897293952886 105.78851119230953
  endloop
endfacet
facet normal -0.6659412369066762 -0.7460042017222198 -1.9655531263427262e-16
  outer loop
    vertex 38.07524404115073 10.463006470659195 29.788511192309507
    vertex 37.61109253375234 10.877344122156902 105.78851119230954
    vertex 37.611092533752334 10.877344122156913 29.788511192309496
  endloop
endfacet
facet normal -0.6659412369066762 -0.7460042017222198 -1.9655531263427262e-16
  outer loop
    vertex 37.61109253375234 10.877344122156902 105.78851119230954
    vertex 38.07524404115073 10.463006470659195 29.788511192309507
    vertex 38.075244041150704 10.463006470659176 105.78851119230954
  endloop
endfacet
facet normal -0.7567321033149702 -0.6537251133408456 -1.610626664194328e-16
  outer loop
    vertex 37.20435555280654 11.34817035294696 105.78851119230946
    vertex 37.611092533752334 10.877344122156913 29.788511192309496
    vertex 37.61109253375234 10.877344122156902 105.78851119230954
  endloop
endfacet
facet normal -0.7567321033149702 -0.6537251133408456 -1.610626664194328e-16
  outer loop
    vertex 37.611092533752334 10.877344122156913 29.788511192309496
    vertex 37.20435555280654 11.34817035294696 105.78851119230946
    vertex 37.20435555280655 11.348170352946978 29.788511192309517
  endloop
endfacet
facet normal -0.20902264402402215 -0.9779108007815472 -1.8360840384320836e-16
  outer loop
    vertex 40.33882645434679 9.492897293952886 105.78851119230953
    vertex 39.73038648680227 9.622947734795133 29.788511192309507
    vertex 40.338826454346794 9.49289729395292 29.788511192309507
  endloop
endfacet
facet normal -0.20902264402402215 -0.9779108007815472 -1.8360840384320836e-16
  outer loop
    vertex 39.73038648680227 9.622947734795133 29.788511192309507
    vertex 40.33882645434679 9.492897293952886 105.78851119230953
    vertex 39.73038648680225 9.622947734795133 105.78851119230949
  endloop
endfacet
facet normal -0.8348413416833964 -0.5504906304527505 -1.646205140146255e-16
  outer loop
    vertex 36.86184936404323 11.867594863273128 105.7885111923095
    vertex 37.20435555280655 11.348170352946978 29.788511192309517
    vertex 37.20435555280654 11.34817035294696 105.78851119230946
  endloop
endfacet
facet normal -0.8348413416833964 -0.5504906304527505 -1.646205140146255e-16
  outer loop
    vertex 37.20435555280655 11.348170352946978 29.788511192309517
    vertex 36.86184936404323 11.867594863273128 105.7885111923095
    vertex 36.86184936404329 11.867594863273151 29.78851119230953
  endloop
endfacet
facet normal -0.9480134477239519 -0.3182302671565766 -1.4783572593261144e-16
  outer loop
    vertex 36.45281780985474 12.83353691019711 105.78851119230954
    vertex 36.5893138271407 12.426912923408988 29.788511192309496
    vertex 36.589313827140685 12.42691292340896 105.78851119230953
  endloop
endfacet
facet normal -0.9480134477239519 -0.3182302671565766 -1.4783572593261144e-16
  outer loop
    vertex 36.5893138271407 12.426912923408988 29.788511192309496
    vertex 36.45281780985474 12.83353691019711 105.78851119230954
    vertex 36.45281780985474 12.833536910197063 29.788511192309507
  endloop
endfacet
facet normal 0.8308791126608703 -0.5564529631010017 -2.0324410667948785e-16
  outer loop
    vertex 87.41078212256893 11.244708199033335 29.78851119230953
    vertex 87.76998229134833 11.781055271101687 105.7885111923096
    vertex 87.4107821225689 11.244708199033306 105.7885111923095
  endloop
endfacet
facet normal 0.8308791126608703 -0.5564529631010017 -2.0324410667948785e-16
  outer loop
    vertex 87.76998229134833 11.781055271101687 105.7885111923096
    vertex 87.41078212256893 11.244708199033335 29.78851119230953
    vertex 87.76998229134833 11.781055271101703 29.78851119230953
  endloop
endfacet
facet normal 0.19265927672749456 -0.9812657148249087 -2.531355166449396e-16
  outer loop
    vertex 84.7699504266118 9.486914228310638 105.7885111923095
    vertex 84.13652615941366 9.362549278698808 29.788511192309517
    vertex 84.76995042661179 9.486914228310654 29.788511192309517
  endloop
endfacet
facet normal 0.19265927672749456 -0.9812657148249087 -2.531355166449396e-16
  outer loop
    vertex 84.13652615941366 9.362549278698808 29.788511192309517
    vertex 84.7699504266118 9.486914228310638 105.7885111923095
    vertex 84.13652615941365 9.362549278698795 105.7885111923095
  endloop
endfacet
facet normal -0.4525876886362903 -0.8917199022646407 -2.727334070717515e-16
  outer loop
    vertex 39.143845045395366 9.83050844586825 105.78851119230946
    vertex 38.58903163300739 10.112101039348984 29.788511192309517
    vertex 39.14384504539538 9.830508445868235 29.788511192309485
  endloop
endfacet
facet normal -0.4525876886362903 -0.8917199022646407 -2.727334070717515e-16
  outer loop
    vertex 38.58903163300739 10.112101039348984 29.788511192309517
    vertex 39.143845045395366 9.83050844586825 105.78851119230946
    vertex 38.58903163300733 10.112101039348984 105.78851119230944
  endloop
endfacet
facet normal 0.8965070956960418 -0.4430293752863891 -1.0946689321511572e-16
  outer loop
    vertex 87.76998229134833 11.781055271101703 29.78851119230953
    vertex 87.97017487991035 12.18616176327422 105.78851119230949
    vertex 87.76998229134833 11.781055271101687 105.7885111923096
  endloop
endfacet
facet normal 0.8965070956960418 -0.4430293752863891 -1.0946689321511572e-16
  outer loop
    vertex 87.97017487991035 12.18616176327422 105.78851119230949
    vertex 87.76998229134833 11.781055271101703 29.78851119230953
    vertex 87.97017487991036 12.186161763274223 29.78851119230953
  endloop
endfacet
facet normal 0.750983321336801 -0.6603211726682308 -2.956760012043448e-16
  outer loop
    vertex 86.98453319876214 10.759935264639447 29.788511192309507
    vertex 87.4107821225689 11.244708199033306 105.7885111923095
    vertex 86.98453319876212 10.759935264639422 105.78851119230954
  endloop
endfacet
facet normal 0.750983321336801 -0.6603211726682308 -2.956760012043448e-16
  outer loop
    vertex 87.4107821225689 11.244708199033306 105.7885111923095
    vertex 86.98453319876214 10.759935264639447 29.788511192309507
    vertex 87.41078212256893 11.244708199033335 29.78851119230953
  endloop
endfacet
facet normal 0.8580577369948106 -0.5135532299414975 -2.2862987447715034e-16
  outer loop
    vertex 41.03710496896505 9.573089018271306 -20.21148880769051
    vertex 40.654476142899384 8.933783089574687 29.788511192309485
    vertex 40.654476142899405 8.933783089574687 -20.211488807690515
  endloop
endfacet
facet normal 0.8580577369948106 -0.5135532299414975 -2.2862987447715034e-16
  outer loop
    vertex 40.654476142899384 8.933783089574687 29.788511192309485
    vertex 41.03710496896505 9.573089018271306 -20.21148880769051
    vertex 40.95896846063373 9.44253656215467 29.788511192309485
  endloop
endfacet
facet normal 0.8580577369948106 -0.5135532299414975 -2.2862987447715034e-16
  outer loop
    vertex 40.95896846063373 9.44253656215467 29.788511192309485
    vertex 41.03710496896505 9.573089018271306 -20.21148880769051
    vertex 41.037104968965025 9.573089018271299 105.7885111923095
  endloop
endfacet
facet normal 0.8580577369948106 -0.5135532299414975 -2.2862987447715034e-16
  outer loop
    vertex 41.037104968965025 9.573089018271299 105.7885111923095
    vertex 40.9589684606337 9.44253656215462 105.7885111923095
    vertex 40.95896846063373 9.44253656215467 29.788511192309485
  endloop
endfacet
facet normal 0.4404886282449785 -0.8977581903758146 -3.3905400731465844e-16
  outer loop
    vertex 85.96119284093851 9.977381204723185 29.788511192309542
    vertex 85.38167414863243 9.693038052466132 105.78851119230954
    vertex 85.38167414863246 9.693038052466093 29.788511192309517
  endloop
endfacet
facet normal 0.4404886282449785 -0.8977581903758146 -3.3905400731465844e-16
  outer loop
    vertex 85.38167414863243 9.693038052466132 105.78851119230954
    vertex 85.96119284093851 9.977381204723185 29.788511192309542
    vertex 85.96119284093847 9.9773812047232 105.78851119230957
  endloop
endfacet
facet normal -0.3336004733472653 -0.9427145507429493 -2.5062246501896305e-16
  outer loop
    vertex 39.73038648680227 9.622947734795133 29.788511192309507
    vertex 39.143845045395366 9.83050844586825 105.78851119230946
    vertex 39.14384504539538 9.830508445868235 29.788511192309485
  endloop
endfacet
facet normal -0.3336004733472653 -0.9427145507429493 -2.5062246501896305e-16
  outer loop
    vertex 39.143845045395366 9.83050844586825 105.78851119230946
    vertex 39.73038648680227 9.622947734795133 29.788511192309507
    vertex 39.73038648680225 9.622947734795133 105.78851119230949
  endloop
endfacet
facet normal -0.8603343510364673 -0.5097301290159928 -2.27003496886288e-16
  outer loop
    vertex 83.35305408782412 9.557064940851648 105.78851119230957
    vertex 83.49227847208837 9.322078791385563 29.788511192309507
    vertex 83.49227847208833 9.322078791385522 105.78851119230944
  endloop
endfacet
facet normal -0.8603343510364673 -0.5097301290159928 -2.27003496886288e-16
  outer loop
    vertex 83.49227847208837 9.322078791385563 29.788511192309507
    vertex 83.35305408782412 9.557064940851648 105.78851119230957
    vertex 83.35305408782418 9.557064940851621 -20.211488807690504
  endloop
endfacet
facet normal -0.8603343510364673 -0.5097301290159928 -2.27003496886288e-16
  outer loop
    vertex 83.73372927812683 8.91455251287923 29.788511192309496
    vertex 83.35305408782418 9.557064940851621 -20.211488807690504
    vertex 83.73372927812683 8.914552512879224 -20.211488807690507
  endloop
endfacet
facet normal -0.8603343510364673 -0.5097301290159928 -2.27003496886288e-16
  outer loop
    vertex 83.35305408782418 9.557064940851621 -20.211488807690504
    vertex 83.73372927812683 8.91455251287923 29.788511192309496
    vertex 83.49227847208837 9.322078791385563 29.788511192309507
  endloop
endfacet
facet normal 0.31931558692406814 -0.9476484347833527 -3.530885153134909e-16
  outer loop
    vertex 85.38167414863243 9.693038052466132 105.78851119230954
    vertex 84.76995042661179 9.486914228310654 29.788511192309517
    vertex 85.38167414863246 9.693038052466093 29.788511192309517
  endloop
endfacet
facet normal 0.31931558692406814 -0.9476484347833527 -3.530885153134909e-16
  outer loop
    vertex 84.76995042661179 9.486914228310654 29.788511192309517
    vertex 85.38167414863243 9.693038052466132 105.78851119230954
    vertex 84.7699504266118 9.486914228310638 105.7885111923095
  endloop
endfacet
facet normal 0.06269463252234679 -0.9980327565029556 -4.2758298848031995e-16
  outer loop
    vertex 84.13652615941366 9.362549278698808 29.788511192309517
    vertex 83.49227847208833 9.322078791385522 105.78851119230944
    vertex 83.49227847208837 9.322078791385563 29.788511192309507
  endloop
endfacet
facet normal 0.06269463252234679 -0.9980327565029556 -4.2758298848031995e-16
  outer loop
    vertex 83.49227847208833 9.322078791385522 105.78851119230944
    vertex 84.13652615941366 9.362549278698808 29.788511192309517
    vertex 84.13652615941365 9.362549278698795 105.7885111923095
  endloop
endfacet
facet normal -0.898959965247507 -0.4380307990109841 -2.6302923729655183e-16
  outer loop
    vertex 36.589313827140685 12.42691292340896 105.78851119230953
    vertex 36.86184936404329 11.867594863273151 29.78851119230953
    vertex 36.86184936404323 11.867594863273128 105.7885111923095
  endloop
endfacet
facet normal -0.898959965247507 -0.4380307990109841 -2.6302923729655183e-16
  outer loop
    vertex 36.86184936404329 11.867594863273151 29.78851119230953
    vertex 36.589313827140685 12.42691292340896 105.78851119230953
    vertex 36.5893138271407 12.426912923408988 29.788511192309496
  endloop
endfacet
facet normal 0.5540976242005905 -0.8324516940070823 -2.667841436430905e-16
  outer loop
    vertex 86.49855504190784 10.335060960841123 105.78851119230949
    vertex 85.96119284093851 9.977381204723185 29.788511192309542
    vertex 86.4985550419078 10.335060960841167 29.788511192309507
  endloop
endfacet
facet normal 0.5540976242005905 -0.8324516940070823 -2.667841436430905e-16
  outer loop
    vertex 85.96119284093851 9.977381204723185 29.788511192309542
    vertex 86.49855504190784 10.335060960841123 105.78851119230949
    vertex 85.96119284093847 9.9773812047232 105.78851119230957
  endloop
endfacet
facet normal -1.355517782201837e-16 -7.077671781985378e-16 1.0
  outer loop
    vertex 36.49952358724897 -5.263878423581967 29.788511192309507
    vertex 36.45281780985474 12.833536910197063 29.788511192309507
    vertex 36.403313646434555 -4.646248048177917 29.788511192309507
  endloop
endfacet
facet normal -1.355517782201837e-16 -7.077671781985378e-16 1.0
  outer loop
    vertex 36.45281780985474 12.833536910197063 29.788511192309507
    vertex 36.49952358724897 -5.263878423581967 29.788511192309507
    vertex 36.5893138271407 12.426912923408988 29.788511192309496
  endloop
endfacet
facet normal -1.355517782201837e-16 -7.077671781985378e-16 1.0
  outer loop
    vertex 36.5893138271407 12.426912923408988 29.788511192309496
    vertex 36.49952358724897 -5.263878423581967 29.788511192309507
    vertex 36.78219878828176 -5.821389288098766 29.788511192309496
  endloop
endfacet
facet normal -1.355517782201837e-16 -7.077671781985378e-16 1.0
  outer loop
    vertex 36.5893138271407 12.426912923408988 29.788511192309496
    vertex 36.78219878828176 -5.821389288098766 29.788511192309496
    vertex 36.86184936404329 11.867594863273151 29.78851119230953
  endloop
endfacet
facet normal -1.355517782201837e-16 -7.077671781985378e-16 1.0
  outer loop
    vertex 36.86184936404329 11.867594863273151 29.78851119230953
    vertex 36.78219878828176 -5.821389288098766 29.788511192309496
    vertex 37.223569990825425 -6.264012259597519 29.788511192309507
  endloop
endfacet
facet normal -1.355517782201837e-16 -7.077671781985378e-16 1.0
  outer loop
    vertex 36.86184936404329 11.867594863273151 29.78851119230953
    vertex 37.223569990825425 -6.264012259597519 29.788511192309507
    vertex 37.20435555280655 11.348170352946978 29.788511192309517
  endloop
endfacet
facet normal -1.355517782201837e-16 -7.077671781985378e-16 1.0
  outer loop
    vertex 37.20435555280655 11.348170352946978 29.788511192309517
    vertex 37.223569990825425 -6.264012259597519 29.788511192309507
    vertex 37.611092533752334 10.877344122156913 29.788511192309496
  endloop
endfacet
facet normal -1.355517782201837e-16 -7.077671781985378e-16 1.0
  outer loop
    vertex 37.611092533752334 10.877344122156913 29.788511192309496
    vertex 37.223569990825425 -6.264012259597519 29.788511192309507
    vertex 37.70473143121752 -6.509691419742245 29.788511192309517
  endloop
endfacet
facet normal -1.355517782201837e-16 -7.077671781985378e-16 1.0
  outer loop
    vertex 37.611092533752334 10.877344122156913 29.788511192309496
    vertex 37.70473143121752 -6.509691419742245 29.788511192309517
    vertex 38.07524404115073 10.463006470659195 29.788511192309507
  endloop
endfacet
facet normal -1.355517782201837e-16 -7.077671781985378e-16 1.0
  outer loop
    vertex 38.07524404115073 10.463006470659195 29.788511192309507
    vertex 37.70473143121752 -6.509691419742245 29.788511192309517
    vertex 37.78027806374716 -6.548265236498094 29.788511192309496
  endloop
endfacet
facet normal -1.355517782201837e-16 -7.077671781985378e-16 1.0
  outer loop
    vertex 38.07524404115073 10.463006470659195 29.788511192309507
    vertex 37.78027806374716 -6.548265236498094 29.788511192309496
    vertex 38.39763348902408 -6.646223963594886 29.788511192309507
  endloop
endfacet
facet normal -1.355517782201837e-16 -7.077671781985378e-16 1.0
  outer loop
    vertex 38.07524404115073 10.463006470659195 29.788511192309507
    vertex 38.39763348902408 -6.646223963594886 29.788511192309507
    vertex 38.397633489024074 -4.651896123119081 29.788511192309517
  endloop
endfacet
facet normal -1.355517782201837e-16 -7.077671781985378e-16 1.0
  outer loop
    vertex 38.397633489024074 -4.651896123119081 29.788511192309517
    vertex 38.39763348902408 -6.646223963594886 29.788511192309507
    vertex 85.85763348902404 -4.651896123119093 29.788511192309517
  endloop
endfacet
facet normal -1.355517782201837e-16 -7.077671781985378e-16 1.0
  outer loop
    vertex 85.85763348902404 -4.651896123119093 29.788511192309517
    vertex 38.39763348902408 -6.646223963594886 29.788511192309507
    vertex 86.26833940944972 -6.651707297991815 29.788511192309496
  endloop
endfacet
facet normal -1.355517782201837e-16 -7.077671781985378e-16 1.0
  outer loop
    vertex 85.85763348902404 -4.651896123119093 29.788511192309517
    vertex 86.26833940944972 -6.651707297991815 29.788511192309496
    vertex 85.96119284093851 9.977381204723185 29.788511192309542
  endloop
endfacet
facet normal -1.355517782201837e-16 -7.077671781985378e-16 1.0
  outer loop
    vertex 85.96119284093851 9.977381204723185 29.788511192309542
    vertex 86.26833940944972 -6.651707297991815 29.788511192309496
    vertex 86.4985550419078 10.335060960841167 29.788511192309507
  endloop
endfacet
facet normal -1.355517782201837e-16 -7.077671781985378e-16 1.0
  outer loop
    vertex 86.4985550419078 10.335060960841167 29.788511192309507
    vertex 86.26833940944972 -6.651707297991815 29.788511192309496
    vertex 86.49552871056383 -6.615748055817416 29.788511192309475
  endloop
endfacet
facet normal -1.355517782201837e-16 -7.077671781985378e-16 1.0
  outer loop
    vertex 86.4985550419078 10.335060960841167 29.788511192309507
    vertex 86.49552871056383 -6.615748055817416 29.788511192309475
    vertex 87.07120978948488 -6.322482035362507 29.788511192309507
  endloop
endfacet
facet normal -1.355517782201837e-16 -7.077671781985378e-16 1.0
  outer loop
    vertex 86.4985550419078 10.335060960841167 29.788511192309507
    vertex 87.07120978948488 -6.322482035362507 29.788511192309507
    vertex 86.98453319876214 10.759935264639447 29.788511192309507
  endloop
endfacet
facet normal -1.355517782201837e-16 -7.077671781985378e-16 1.0
  outer loop
    vertex 86.98453319876214 10.759935264639447 29.788511192309507
    vertex 87.07120978948488 -6.322482035362507 29.788511192309507
    vertex 87.41078212256893 11.244708199033335 29.78851119230953
  endloop
endfacet
facet normal -1.355517782201837e-16 -7.077671781985378e-16 1.0
  outer loop
    vertex 87.41078212256893 11.244708199033335 29.78851119230953
    vertex 87.07120978948488 -6.322482035362507 29.788511192309507
    vertex 87.52808038160737 -5.865663772335773 29.788511192309496
  endloop
endfacet
facet normal -1.355517782201837e-16 -7.077671781985378e-16 1.0
  outer loop
    vertex 87.41078212256893 11.244708199033335 29.78851119230953
    vertex 87.52808038160737 -5.865663772335773 29.788511192309496
    vertex 87.76998229134833 11.781055271101703 29.78851119230953
  endloop
endfacet
facet normal -1.355517782201837e-16 -7.077671781985378e-16 1.0
  outer loop
    vertex 87.76998229134833 11.781055271101703 29.78851119230953
    vertex 87.52808038160737 -5.865663772335773 29.788511192309496
    vertex 87.82141234133945 -5.290016289251774 29.788511192309496
  endloop
endfacet
facet normal -1.355517782201837e-16 -7.077671781985378e-16 1.0
  outer loop
    vertex 87.76998229134833 11.781055271101703 29.78851119230953
    vertex 87.82141234133945 -5.290016289251774 29.788511192309496
    vertex 87.97017487991036 12.186161763274223 29.78851119230953
  endloop
endfacet
facet normal -1.355517782201837e-16 -7.077671781985378e-16 1.0
  outer loop
    vertex 87.97017487991036 12.186161763274223 29.78851119230953
    vertex 87.82141234133945 -5.290016289251774 29.788511192309496
    vertex 87.92248813941143 -4.651896123119064 29.788511192309517
  endloop
endfacet
facet normal -1.355517782201837e-16 -7.077671781985378e-16 1.0
  outer loop
    vertex 83.73372927812683 8.91455251287923 29.788511192309496
    vertex 84.13652615941366 9.362549278698808 29.788511192309517
    vertex 83.49227847208837 9.322078791385563 29.788511192309507
  endloop
endfacet
facet normal -1.355517782201837e-16 -7.077671781985378e-16 1.0
  outer loop
    vertex 84.13652615941366 9.362549278698808 29.788511192309517
    vertex 83.73372927812683 8.91455251287923 29.788511192309496
    vertex 84.03346927740293 8.23052637781937 29.788511192309507
  endloop
endfacet
facet normal -1.355517782201837e-16 -7.077671781985378e-16 1.0
  outer loop
    vertex 84.13652615941366 9.362549278698808 29.788511192309517
    vertex 84.03346927740293 8.23052637781937 29.788511192309507
    vertex 84.24782750611232 7.515133918818278 29.788511192309507
  endloop
endfacet
facet normal -1.355517782201837e-16 -7.077671781985378e-16 1.0
  outer loop
    vertex 84.13652615941366 9.362549278698808 29.788511192309517
    vertex 84.24782750611232 7.515133918818278 29.788511192309507
    vertex 84.76995042661179 9.486914228310654 29.788511192309517
  endloop
endfacet
facet normal -1.355517782201837e-16 -7.077671781985378e-16 1.0
  outer loop
    vertex 84.76995042661179 9.486914228310654 29.788511192309517
    vertex 84.24782750611232 7.515133918818278 29.788511192309507
    vertex 84.37362400523632 6.778987831808984 29.788511192309496
  endloop
endfacet
facet normal -1.355517782201837e-16 -7.077671781985378e-16 1.0
  outer loop
    vertex 84.76995042661179 9.486914228310654 29.788511192309517
    vertex 84.37362400523632 6.778987831808984 29.788511192309496
    vertex 85.85763348902404 -4.651896123119093 29.788511192309517
  endloop
endfacet
facet normal -1.355517782201837e-16 -7.077671781985378e-16 1.0
  outer loop
    vertex 84.76995042661179 9.486914228310654 29.788511192309517
    vertex 85.85763348902404 -4.651896123119093 29.788511192309517
    vertex 85.38167414863246 9.693038052466093 29.788511192309517
  endloop
endfacet
facet normal -1.355517782201837e-16 -7.077671781985378e-16 1.0
  outer loop
    vertex 85.38167414863246 9.693038052466093 29.788511192309517
    vertex 85.85763348902404 -4.651896123119093 29.788511192309517
    vertex 85.96119284093851 9.977381204723185 29.788511192309542
  endloop
endfacet
facet normal -1.355517782201837e-16 -7.077671781985378e-16 1.0
  outer loop
    vertex 38.397633489024074 -4.651896123119081 29.788511192309517
    vertex 38.58903163300739 10.112101039348984 29.788511192309517
    vertex 38.07524404115073 10.463006470659195 29.788511192309507
  endloop
endfacet
facet normal -1.355517782201837e-16 -7.077671781985378e-16 1.0
  outer loop
    vertex 38.58903163300739 10.112101039348984 29.788511192309517
    vertex 38.397633489024074 -4.651896123119081 29.788511192309517
    vertex 40.00435686083786 6.806688877981959 29.788511192309485
  endloop
endfacet
facet normal -1.355517782201837e-16 -7.077671781985378e-16 1.0
  outer loop
    vertex 38.58903163300739 10.112101039348984 29.788511192309517
    vertex 40.00435686083786 6.806688877981959 29.788511192309485
    vertex 39.14384504539538 9.830508445868235 29.788511192309485
  endloop
endfacet
facet normal -1.355517782201837e-16 -7.077671781985378e-16 1.0
  outer loop
    vertex 39.14384504539538 9.830508445868235 29.788511192309485
    vertex 40.00435686083786 6.806688877981959 29.788511192309485
    vertex 39.73038648680227 9.622947734795133 29.788511192309507
  endloop
endfacet
facet normal -1.355517782201837e-16 -7.077671781985378e-16 1.0
  outer loop
    vertex 39.73038648680227 9.622947734795133 29.788511192309507
    vertex 40.00435686083786 6.806688877981959 29.788511192309485
    vertex 40.338826454346794 9.49289729395292 29.788511192309507
  endloop
endfacet
facet normal -1.355517782201837e-16 -7.077671781985378e-16 1.0
  outer loop
    vertex 40.338826454346794 9.49289729395292 29.788511192309507
    vertex 40.00435686083786 6.806688877981959 29.788511192309485
    vertex 40.134276599014136 7.54033576214033 29.788511192309517
  endloop
endfacet
facet normal -1.355517782201837e-16 -7.077671781985378e-16 1.0
  outer loop
    vertex 40.338826454346794 9.49289729395292 29.788511192309507
    vertex 40.134276599014136 7.54033576214033 29.788511192309517
    vertex 40.35205068403311 8.25286038409884 29.788511192309496
  endloop
endfacet
facet normal -1.355517782201837e-16 -7.077671781985378e-16 1.0
  outer loop
    vertex 40.338826454346794 9.49289729395292 29.788511192309507
    vertex 40.35205068403311 8.25286038409884 29.788511192309496
    vertex 40.654476142899384 8.933783089574687 29.788511192309485
  endloop
endfacet
facet normal -1.355517782201837e-16 -7.077671781985378e-16 1.0
  outer loop
    vertex 40.338826454346794 9.49289729395292 29.788511192309507
    vertex 40.654476142899384 8.933783089574687 29.788511192309485
    vertex 40.95896846063373 9.44253656215467 29.788511192309485
  endloop
endfacet
facet normal -0.9999959896832868 0.002832069445402596 -3.679544252888957e-17
  outer loop
    vertex 36.45281780985474 12.833536910197063 29.788511192309507
    vertex 36.403313646434555 -4.646248048177917 -22.21148880769051
    vertex 36.403313646434555 -4.646248048177917 29.788511192309507
  endloop
endfacet
facet normal -0.9999959896832868 0.002832069445402596 -3.679544252888957e-17
  outer loop
    vertex 36.403313646434555 -4.646248048177917 -22.21148880769051
    vertex 36.45281780985474 12.833536910197063 29.788511192309507
    vertex 36.45682397780561 14.248103876880881 -22.211488807690507
  endloop
endfacet
facet normal -0.9999959896832868 0.002832069445402596 -3.679544252888957e-17
  outer loop
    vertex 36.45682397780561 14.248103876880881 -22.211488807690507
    vertex 36.45281780985474 12.833536910197063 29.788511192309507
    vertex 36.45281780985474 12.83353691019711 105.78851119230954
  endloop
endfacet
facet normal -0.9999959896832868 0.002832069445402596 -3.679544252888957e-17
  outer loop
    vertex 36.45682397780561 14.248103876880881 -22.211488807690507
    vertex 36.45281780985474 12.83353691019711 105.78851119230954
    vertex 36.45682397780561 14.24810387688086 105.78851119230954
  endloop
endfacet
facet normal 1.7913971596146715e-17 9.714451465470117e-17 -1.0
  outer loop
    vertex 36.45682397780561 14.248103876880881 -22.211488807690507
    vertex 36.499523587248945 -5.263878423581923 -22.21148880769051
    vertex 36.403313646434555 -4.646248048177917 -22.21148880769051
  endloop
endfacet
facet normal 1.7913971596146715e-17 9.714451465470117e-17 -1.0
  outer loop
    vertex 36.499523587248945 -5.263878423581923 -22.21148880769051
    vertex 36.45682397780561 14.248103876880881 -22.211488807690507
    vertex 87.97601446658697 14.248103876880966 -22.211488807690497
  endloop
endfacet
facet normal 1.7913971596146715e-17 9.714451465470117e-17 -1.0
  outer loop
    vertex 36.499523587248945 -5.263878423581923 -22.21148880769051
    vertex 87.97601446658697 14.248103876880966 -22.211488807690497
    vertex 36.782198788281754 -5.82138928809875 -22.211488807690507
  endloop
endfacet
facet normal 1.7913971596146715e-17 9.714451465470117e-17 -1.0
  outer loop
    vertex 36.782198788281754 -5.82138928809875 -22.211488807690507
    vertex 87.97601446658697 14.248103876880966 -22.211488807690497
    vertex 37.22356999082545 -6.264012259597511 -22.211488807690507
  endloop
endfacet
facet normal 1.7913971596146715e-17 9.714451465470117e-17 -1.0
  outer loop
    vertex 37.22356999082545 -6.264012259597511 -22.211488807690507
    vertex 87.97601446658697 14.248103876880966 -22.211488807690497
    vertex 37.70473143121752 -6.5096914197422455 -22.2114888076905
  endloop
endfacet
facet normal 1.7913971596146715e-17 9.714451465470117e-17 -1.0
  outer loop
    vertex 37.70473143121752 -6.5096914197422455 -22.2114888076905
    vertex 87.97601446658697 14.248103876880966 -22.211488807690497
    vertex 37.780278063747154 -6.548265236498111 -22.21148880769051
  endloop
endfacet
facet normal 1.7913971596146715e-17 9.714451465470117e-17 -1.0
  outer loop
    vertex 37.780278063747154 -6.548265236498111 -22.21148880769051
    vertex 87.97601446658697 14.248103876880966 -22.211488807690497
    vertex 38.39763348902408 -6.646223963594847 -22.21148880769051
  endloop
endfacet
facet normal 1.7913971596146715e-17 9.714451465470117e-17 -1.0
  outer loop
    vertex 38.39763348902408 -6.646223963594847 -22.21148880769051
    vertex 87.97601446658697 14.248103876880966 -22.211488807690497
    vertex 86.26833940944972 -6.6517072979917895 -22.211488807690507
  endloop
endfacet
facet normal 1.7913971596146715e-17 9.714451465470117e-17 -1.0
  outer loop
    vertex 86.26833940944972 -6.6517072979917895 -22.211488807690507
    vertex 87.97601446658697 14.248103876880966 -22.211488807690497
    vertex 86.49552871056385 -6.615748055817409 -22.21148880769051
  endloop
endfacet
facet normal 1.7913971596146715e-17 9.714451465470117e-17 -1.0
  outer loop
    vertex 86.49552871056385 -6.615748055817409 -22.21148880769051
    vertex 87.97601446658697 14.248103876880966 -22.211488807690497
    vertex 87.07120978948488 -6.322482035362507 -22.21148880769051
  endloop
endfacet
facet normal 1.7913971596146715e-17 9.714451465470117e-17 -1.0
  outer loop
    vertex 87.07120978948488 -6.322482035362507 -22.21148880769051
    vertex 87.97601446658697 14.248103876880966 -22.211488807690497
    vertex 87.52808038160738 -5.865663772335757 -22.21148880769052
  endloop
endfacet
facet normal 1.7913971596146715e-17 9.714451465470117e-17 -1.0
  outer loop
    vertex 87.52808038160738 -5.865663772335757 -22.21148880769052
    vertex 87.97601446658697 14.248103876880966 -22.211488807690497
    vertex 87.82141234133945 -5.290016289251766 -22.21148880769051
  endloop
endfacet
facet normal 1.7913971596146715e-17 9.714451465470117e-17 -1.0
  outer loop
    vertex 87.82141234133945 -5.290016289251766 -22.21148880769051
    vertex 87.97601446658697 14.248103876880966 -22.211488807690497
    vertex 87.92248813941141 -4.65189612311906 -22.211488807690515
  endloop
endfacet
facet normal 0.6581916876528329 -0.7528503850731005 -1.2268891613619705e-16
  outer loop
    vertex 86.98453319876212 10.759935264639422 105.78851119230954
    vertex 86.4985550419078 10.335060960841167 29.788511192309507
    vertex 86.98453319876214 10.759935264639447 29.788511192309507
  endloop
endfacet
facet normal 0.6581916876528329 -0.7528503850731005 -1.2268891613619705e-16
  outer loop
    vertex 86.4985550419078 10.335060960841167 29.788511192309507
    vertex 86.98453319876212 10.759935264639422 105.78851119230954
    vertex 86.49855504190784 10.335060960841123 105.78851119230949
  endloop
endfacet
facet normal 0.4539190562443724 -0.8910429228596219 -2.817569686647161e-16
  outer loop
    vertex 87.07120978948488 -6.322482035362507 29.788511192309507
    vertex 86.49552871056385 -6.615748055817409 -22.21148880769051
    vertex 87.07120978948488 -6.322482035362507 -22.21148880769051
  endloop
endfacet
facet normal 0.4539190562443724 -0.8910429228596219 -2.817569686647161e-16
  outer loop
    vertex 86.49552871056385 -6.615748055817409 -22.21148880769051
    vertex 87.07120978948488 -6.322482035362507 29.788511192309507
    vertex 86.49552871056383 -6.615748055817416 29.788511192309475
  endloop
endfacet
facet normal -0.708107361014345 -0.7061047834969681 -1.4868065547300394e-16
  outer loop
    vertex 36.78219878828176 -5.821389288098766 29.788511192309496
    vertex 37.22356999082545 -6.264012259597511 -22.211488807690507
    vertex 37.223569990825425 -6.264012259597519 29.788511192309507
  endloop
endfacet
facet normal -0.708107361014345 -0.7061047834969681 -1.4868065547300394e-16
  outer loop
    vertex 37.22356999082545 -6.264012259597511 -22.211488807690507
    vertex 36.78219878828176 -5.821389288098766 29.788511192309496
    vertex 36.782198788281754 -5.82138928809875 -22.211488807690507
  endloop
endfacet
facet normal 0.7070662823692322 -0.7071472776844675 -2.230805300247064e-16
  outer loop
    vertex 87.52808038160737 -5.865663772335773 29.788511192309496
    vertex 87.07120978948488 -6.322482035362507 -22.21148880769051
    vertex 87.52808038160738 -5.865663772335757 -22.21148880769052
  endloop
endfacet
facet normal 0.7070662823692322 -0.7071472776844675 -2.230805300247064e-16
  outer loop
    vertex 87.07120978948488 -6.322482035362507 -22.21148880769051
    vertex 87.52808038160737 -5.865663772335773 29.788511192309496
    vertex 87.07120978948488 -6.322482035362507 29.788511192309507
  endloop
endfacet
facet normal -0.00011454467310634264 -0.9999999934397591 -4.1633773685989153e-16
  outer loop
    vertex 86.26833940944972 -6.6517072979917895 -22.211488807690507
    vertex 38.39763348902408 -6.646223963594886 29.788511192309507
    vertex 38.39763348902408 -6.646223963594847 -22.21148880769051
  endloop
endfacet
facet normal -0.00011454467310634264 -0.9999999934397591 -4.1633773685989153e-16
  outer loop
    vertex 38.39763348902408 -6.646223963594886 29.788511192309507
    vertex 86.26833940944972 -6.6517072979917895 -22.211488807690507
    vertex 86.26833940944972 -6.651707297991815 29.788511192309496
  endloop
endfacet
facet normal -0.8919047867603364 -0.4522232317716538 -3.488006255939985e-16
  outer loop
    vertex 36.49952358724897 -5.263878423581967 29.788511192309507
    vertex 36.782198788281754 -5.82138928809875 -22.211488807690507
    vertex 36.78219878828176 -5.821389288098766 29.788511192309496
  endloop
endfacet
facet normal -0.8919047867603364 -0.4522232317716538 -3.488006255939985e-16
  outer loop
    vertex 36.782198788281754 -5.82138928809875 -22.211488807690507
    vertex 36.49952358724897 -5.263878423581967 29.788511192309507
    vertex 36.499523587248945 -5.263878423581923 -22.21148880769051
  endloop
endfacet
facet normal 0.9999959896832868 -0.002832069445402457 3.1157591231964945e-17
  outer loop
    vertex 87.92248813941141 -4.65189612311906 -22.211488807690515
    vertex 87.97017487991036 12.186161763274223 29.78851119230953
    vertex 87.92248813941143 -4.651896123119064 29.788511192309517
  endloop
endfacet
facet normal 0.9999959896832868 -0.002832069445402457 3.1157591231964945e-17
  outer loop
    vertex 87.97017487991036 12.186161763274223 29.78851119230953
    vertex 87.92248813941141 -4.65189612311906 -22.211488807690515
    vertex 87.97601446658697 14.248103876880966 -22.211488807690497
  endloop
endfacet
facet normal 0.9999959896832868 -0.002832069445402457 3.1157591231964945e-17
  outer loop
    vertex 87.97017487991036 12.186161763274223 29.78851119230953
    vertex 87.97601446658697 14.248103876880966 -22.211488807690497
    vertex 87.97601446658693 14.248103876880938 105.78851119230954
  endloop
endfacet
facet normal 0.9999959896832868 -0.002832069445402457 3.1157591231964945e-17
  outer loop
    vertex 87.97601446658693 14.248103876880938 105.78851119230954
    vertex 87.97017487991035 12.18616176327422 105.78851119230949
    vertex 87.97017487991036 12.186161763274223 29.78851119230953
  endloop
endfacet
facet normal -0.9880838622739061 -0.1539164744719704 -1.499831410332842e-17
  outer loop
    vertex 36.403313646434555 -4.646248048177917 29.788511192309507
    vertex 36.499523587248945 -5.263878423581923 -22.21148880769051
    vertex 36.49952358724897 -5.263878423581967 29.788511192309507
  endloop
endfacet
facet normal -0.9880838622739061 -0.1539164744719704 -1.499831410332842e-17
  outer loop
    vertex 36.499523587248945 -5.263878423581923 -22.21148880769051
    vertex 36.403313646434555 -4.646248048177917 29.788511192309507
    vertex 36.403313646434555 -4.646248048177917 -22.21148880769051
  endloop
endfacet
facet normal -0.45474735450806214 -0.8906204823424615 -4.946417831534672e-16
  outer loop
    vertex 37.70473143121752 -6.5096914197422455 -22.2114888076905
    vertex 37.223569990825425 -6.264012259597519 29.788511192309507
    vertex 37.22356999082545 -6.264012259597511 -22.211488807690507
  endloop
endfacet
facet normal -0.45474735450806214 -0.8906204823424615 -4.946417831534672e-16
  outer loop
    vertex 37.223569990825425 -6.264012259597519 29.788511192309507
    vertex 37.70473143121752 -6.5096914197422455 -22.2114888076905
    vertex 37.70473143121752 -6.509691419742245 29.788511192309517
  endloop
endfacet
facet normal 0.9876865486568733 -0.1564457784738016 -6.960203034916077e-17
  outer loop
    vertex 87.82141234133945 -5.290016289251766 -22.21148880769051
    vertex 87.92248813941143 -4.651896123119064 29.788511192309517
    vertex 87.82141234133945 -5.290016289251774 29.788511192309496
  endloop
endfacet
facet normal 0.9876865486568733 -0.1564457784738016 -6.960203034916077e-17
  outer loop
    vertex 87.92248813941143 -4.651896123119064 29.788511192309517
    vertex 87.82141234133945 -5.290016289251766 -22.21148880769051
    vertex 87.92248813941141 -4.65189612311906 -22.211488807690515
  endloop
endfacet
facet normal -0.45474735450808706 -0.8906204823424487 -3.6674785495588466e-17
  outer loop
    vertex 37.78027806374716 -6.548265236498094 29.788511192309496
    vertex 37.70473143121752 -6.5096914197422455 -22.2114888076905
    vertex 37.780278063747154 -6.548265236498111 -22.21148880769051
  endloop
endfacet
facet normal -0.45474735450808706 -0.8906204823424487 -3.6674785495588466e-17
  outer loop
    vertex 37.70473143121752 -6.5096914197422455 -22.2114888076905
    vertex 37.78027806374716 -6.548265236498094 29.788511192309496
    vertex 37.70473143121752 -6.509691419742245 29.788511192309517
  endloop
endfacet
facet normal 0.8909909230042528 -0.4540211174868742 -1.118001012595075e-16
  outer loop
    vertex 87.52808038160738 -5.865663772335757 -22.21148880769052
    vertex 87.82141234133945 -5.290016289251774 29.788511192309496
    vertex 87.52808038160737 -5.865663772335773 29.788511192309496
  endloop
endfacet
facet normal 0.8909909230042528 -0.4540211174868742 -1.118001012595075e-16
  outer loop
    vertex 87.82141234133945 -5.290016289251774 29.788511192309496
    vertex 87.52808038160738 -5.865663772335757 -22.21148880769052
    vertex 87.82141234133945 -5.290016289251766 -22.21148880769051
  endloop
endfacet
facet normal 0.1563326432146373 -0.9877044622079649 -2.2793242757019905e-16
  outer loop
    vertex 86.49552871056383 -6.615748055817416 29.788511192309475
    vertex 86.26833940944972 -6.6517072979917895 -22.211488807690507
    vertex 86.49552871056385 -6.615748055817409 -22.21148880769051
  endloop
endfacet
facet normal 0.1563326432146373 -0.9877044622079649 -2.2793242757019905e-16
  outer loop
    vertex 86.26833940944972 -6.6517072979917895 -22.211488807690507
    vertex 86.49552871056383 -6.615748055817416 29.788511192309475
    vertex 86.26833940944972 -6.651707297991815 29.788511192309496
  endloop
endfacet
facet normal -0.1567141793339889 -0.9876439976001851 -3.2240323058193296e-16
  outer loop
    vertex 38.39763348902408 -6.646223963594847 -22.21148880769051
    vertex 37.78027806374716 -6.548265236498094 29.788511192309496
    vertex 37.780278063747154 -6.548265236498111 -22.21148880769051
  endloop
endfacet
facet normal -0.1567141793339889 -0.9876439976001851 -3.2240323058193296e-16
  outer loop
    vertex 37.78027806374716 -6.548265236498094 29.788511192309496
    vertex 38.39763348902408 -6.646223963594847 -22.21148880769051
    vertex 38.39763348902408 -6.646223963594886 29.788511192309507
  endloop
endfacet
endsolid Wandhalterung
